SplineFontDB: 3.2
FontName: RobotoLegacy-Medium
FullName: Roboto Legacy Medium
FamilyName: Roboto Legacy Medium
Weight: Medium
Copyright: Font data copyright Google 2011
Version: 1.00000; 2011
ItalicAngle: 0
UnderlinePosition: -200
UnderlineWidth: 100
Ascent: 1536
Descent: 512
InvalidEm: 0
sfntRevision: 0x00010000
LayerCount: 2
Layer: 0 1 "Back" 1
Layer: 1 1 "Fore" 0
XUID: [1021 474 -1613799265 16018]
StyleMap: 0x0000
FSType: 4
OS2Version: 3
OS2_WeightWidthSlopeOnly: 0
OS2_UseTypoMetrics: 0
CreationTime: 1221222574
ModificationTime: 1744076118
PfmFamily: 81
TTFWeight: 500
TTFWidth: 5
LineGap: 0
VLineGap: 0
Panose: 0 0 0 0 0 0 0 0 0 0
OS2TypoAscent: 1536
OS2TypoAOffset: 0
OS2TypoDescent: -512
OS2TypoDOffset: 0
OS2TypoLinegap: 102
OS2WinAscent: 1946
OS2WinAOffset: 0
OS2WinDescent: 512
OS2WinDOffset: 0
HheadAscent: 1900
HheadAOffset: 0
HheadDescent: -500
HheadDOffset: 0
OS2SubXSize: 1434
OS2SubYSize: 1331
OS2SubXOff: 0
OS2SubYOff: 287
OS2SupXSize: 1434
OS2SupYSize: 1331
OS2SupXOff: 0
OS2SupYOff: 977
OS2StrikeYSize: 102
OS2StrikeYPos: 512
OS2CapHeight: 1456
OS2XHeight: 1082
OS2Vendor: 'pyrs'
OS2CodePages: 2000019f.4f010000
OS2UnicodeRanges: e00002ef.5000205b.00000020.00000000
Lookup: 1 0 0 "'smcp' Lowercase to Small Capitals lookup 0" { "'smcp' Lowercase to Small Capitals lookup 0 subtable"  } ['smcp' ('DFLT' <'dflt' > ) ]
Lookup: 4 0 1 "'liga' Standard Ligatures lookup 1" { "'liga' Standard Ligatures lookup 1 subtable"  } ['liga' ('DFLT' <'dflt' > ) ]
Lookup: 258 0 0 "'kern' Horizontal Kerning lookup 0" { "'kern' Horizontal Kerning lookup 0 per glyph data 0"  "'kern' Horizontal Kerning lookup 0 per glyph data 1"  "'kern' Horizontal Kerning lookup 0 per glyph data 2"  "'kern' Horizontal Kerning lookup 0 kerning class 3"  } ['kern' ('DFLT' <'dflt' > ) ]
MarkAttachClasses: 1
DEI: 91125
KernClass2: 32+ 29 "'kern' Horizontal Kerning lookup 0 kerning class 3"

StartChar: exclam
Encoding: 33 33 4
Width: 549
GlyphClass: 1
Flags: W
LayerCount: 2
Fore
SplineSet
397 491 m 1,0,-1
 154 491 l 1,1,-1
 154 1456 l 1,2,-1
 397 1456 l 1,3,-1
 397 491 l 1,0,-1
397 0 m 1,4,-1
 154 0 l 1,5,-1
 154 234 l 1,6,-1
 397 234 l 1,7,-1
 397 0 l 1,4,-1
EndSplineSet
Validated: 1
EndChar

StartChar: quotedbl
Encoding: 34 34 5
Width: 781
GlyphClass: 1
Flags: W
LayerCount: 2
Fore
SplineSet
347 1181 m 1,0,-1
 245 932 l 1,1,-1
 133 932 l 1,2,-1
 133 1456 l 1,3,-1
 347 1456 l 1,4,-1
 347 1181 l 1,0,-1
672 1181 m 1,5,-1
 570 932 l 1,6,-1
 458 932 l 1,7,-1
 458 1456 l 1,8,-1
 672 1456 l 1,9,-1
 672 1181 l 1,5,-1
EndSplineSet
Validated: 1
EndChar

StartChar: numbersign
Encoding: 35 35 6
Width: 1250
GlyphClass: 1
Flags: W
LayerCount: 2
Fore
SplineSet
683 410 m 1,0,-1
 458 410 l 1,1,-1
 382 0 l 1,2,-1
 215 0 l 1,3,-1
 291 410 l 1,4,-1
 60 410 l 1,5,-1
 60 568 l 1,6,-1
 321 568 l 1,7,-1
 379 881 l 1,8,-1
 136 881 l 1,9,-1
 136 1040 l 1,10,-1
 409 1040 l 1,11,-1
 487 1456 l 1,12,-1
 654 1456 l 1,13,-1
 576 1040 l 1,14,-1
 800 1040 l 1,15,-1
 878 1456 l 1,16,-1
 1046 1456 l 1,17,-1
 968 1040 l 1,18,-1
 1176 1040 l 1,19,-1
 1176 881 l 1,20,-1
 938 881 l 1,21,-1
 880 568 l 1,22,-1
 1101 568 l 1,23,-1
 1101 410 l 1,24,-1
 850 410 l 1,25,-1
 774 0 l 1,26,-1
 607 0 l 1,27,-1
 683 410 l 1,0,-1
488 568 m 1,28,-1
 713 568 l 1,29,-1
 771 881 l 1,30,-1
 546 881 l 1,31,-1
 488 568 l 1,28,-1
EndSplineSet
Validated: 1
EndChar

StartChar: dollar
Encoding: 36 36 7
Width: 1205
GlyphClass: 1
Flags: W
LayerCount: 2
Fore
SplineSet
841 380 m 0,0,1
 841 465 841 465 785.5 520.5 c 128,-1,2
 730 576 730 576 596 623 c 0,3,4
 384 691 384 691 278 793.5 c 128,-1,5
 172 896 172 896 172 1073 c 0,6,7
 172 1240 172 1240 273 1346.5 c 128,-1,8
 374 1453 374 1453 550 1473 c 1,9,-1
 550 1691 l 1,10,-1
 709 1691 l 1,11,-1
 709 1471 l 1,12,13
 883 1448 883 1448 979 1333 c 128,-1,14
 1075 1218 1075 1218 1073 1030 c 1,15,-1
 1070 1025 l 1,16,-1
 835 1025 l 1,17,18
 835 1141 835 1141 779 1208.5 c 128,-1,19
 723 1276 723 1276 622 1276 c 0,20,21
 516 1276 516 1276 465 1221.5 c 128,-1,22
 414 1167 414 1167 414 1075 c 0,23,24
 414 989 414 989 467 937 c 128,-1,25
 520 885 520 885 663 832 c 1,26,27
 875 763 875 763 979.5 661 c 128,-1,28
 1084 559 1084 559 1084 382 c 0,29,30
 1084 209 1084 209 978.5 106 c 128,-1,31
 873 3 873 3 689 -16 c 1,32,-1
 689 -211 l 1,33,-1
 530 -211 l 1,34,-1
 530 -17 l 1,35,36
 350 1 350 1 233.5 110 c 128,-1,37
 117 219 117 219 121 431 c 1,38,-1
 123 436 l 1,39,-1
 358 436 l 1,40,41
 358 297 358 297 428 238 c 128,-1,42
 498 179 498 179 605 179 c 0,43,44
 719 179 719 179 780 233 c 128,-1,45
 841 287 841 287 841 380 c 0,0,1
EndSplineSet
Validated: 33
EndChar

StartChar: percent
Encoding: 37 37 8
Width: 1504
GlyphClass: 1
Flags: W
LayerCount: 2
Fore
SplineSet
100 1176 m 2,0,1
 100 1304 100 1304 182.5 1390.5 c 128,-1,2
 265 1477 265 1477 408 1477 c 0,3,4
 552 1477 552 1477 634.5 1391 c 128,-1,5
 717 1305 717 1305 717 1176 c 2,6,-1
 717 1099 l 2,7,8
 717 971 717 971 634.5 885.5 c 128,-1,9
 552 800 552 800 410 800 c 0,10,11
 266 800 266 800 183 885.5 c 128,-1,12
 100 971 100 971 100 1099 c 2,13,-1
 100 1176 l 2,0,1
269 1099 m 2,14,15
 269 1035 269 1035 305.5 990.5 c 128,-1,16
 342 946 342 946 410 946 c 0,17,18
 476 946 476 946 511.5 990 c 128,-1,19
 547 1034 547 1034 547 1099 c 2,20,-1
 547 1176 l 2,21,22
 547 1241 547 1241 510.5 1286 c 128,-1,23
 474 1331 474 1331 408 1331 c 0,24,25
 341 1331 341 1331 305 1286 c 128,-1,26
 269 1241 269 1241 269 1176 c 2,27,-1
 269 1099 l 2,14,15
800 357 m 2,28,29
 800 484 800 484 883 570.5 c 128,-1,30
 966 657 966 657 1108 657 c 0,31,32
 1252 657 1252 657 1334.5 571 c 128,-1,33
 1417 485 1417 485 1417 357 c 2,34,-1
 1417 279 l 2,35,36
 1417 150 1417 150 1334.5 64.5 c 128,-1,37
 1252 -21 1252 -21 1110 -21 c 0,38,39
 966 -21 966 -21 883 65 c 128,-1,40
 800 151 800 151 800 279 c 2,41,-1
 800 357 l 2,28,29
969 279 m 2,42,43
 969 215 969 215 1006.5 170 c 128,-1,44
 1044 125 1044 125 1110 125 c 0,45,46
 1180 125 1180 125 1214 168.5 c 128,-1,47
 1248 212 1248 212 1248 279 c 2,48,-1
 1248 357 l 2,49,50
 1248 421 1248 421 1211.5 466 c 128,-1,51
 1175 511 1175 511 1108 511 c 256,52,53
 1041 511 1041 511 1005 466 c 128,-1,54
 969 421 969 421 969 357 c 2,55,-1
 969 279 l 2,42,43
460 109 m 1,56,-1
 335 181 l 1,57,-1
 1046 1319 l 1,58,-1
 1171 1247 l 1,59,-1
 460 109 l 1,56,-1
EndSplineSet
Validated: 1
EndChar

StartChar: ampersand
Encoding: 38 38 9
Width: 1309
GlyphClass: 1
Flags: W
LayerCount: 2
Fore
SplineSet
62 393 m 0,0,1
 62 513 62 513 129 601.5 c 128,-1,2
 196 690 196 690 332 783 c 1,3,4
 259 877 259 877 224 953 c 128,-1,5
 189 1029 189 1029 189 1109 c 0,6,7
 189 1285 189 1285 291 1381 c 128,-1,8
 393 1477 393 1477 570 1477 c 0,9,10
 729 1477 729 1477 828.5 1381.5 c 128,-1,11
 928 1286 928 1286 928 1151 c 0,12,13
 928 1050 928 1050 879.5 975.5 c 128,-1,14
 831 901 831 901 738 831 c 2,15,-1
 634 756 l 1,16,-1
 936 397 l 1,17,18
 976 460 976 460 998.5 535 c 128,-1,19
 1021 610 1021 610 1021 694 c 1,20,-1
 1225 694 l 1,21,22
 1225 556 1225 556 1187.5 439.5 c 128,-1,23
 1150 323 1150 323 1075 233 c 1,24,-1
 1267 5 l 1,25,-1
 1265 0 l 1,26,-1
 991 0 l 1,27,-1
 910 95 l 1,28,29
 828 38 828 38 734.5 8.5 c 128,-1,30
 641 -21 641 -21 537 -21 c 0,31,32
 320 -21 320 -21 191 94 c 128,-1,33
 62 209 62 209 62 393 c 0,0,1
544 173 m 0,34,35
 606 173 606 173 667 191 c 128,-1,36
 728 209 728 209 783 244 c 1,37,-1
 458 628 l 1,38,-1
 432 609 l 2,39,40
 356 553 356 553 330.5 500.5 c 128,-1,41
 305 448 305 448 305 401 c 0,42,43
 305 301 305 301 368 237 c 128,-1,44
 431 173 431 173 544 173 c 0,34,35
417 1112 m 0,45,46
 417 1064 417 1064 440.5 1014 c 128,-1,47
 464 964 464 964 512 903 c 1,48,-1
 621 976 l 2,49,50
 678 1013 678 1013 697.5 1053.5 c 128,-1,51
 717 1094 717 1094 717 1143 c 0,52,53
 717 1197 717 1197 675.5 1239.5 c 128,-1,54
 634 1282 634 1282 566 1282 c 0,55,56
 496 1282 496 1282 456.5 1232.5 c 128,-1,57
 417 1183 417 1183 417 1112 c 0,45,46
EndSplineSet
Validated: 1
EndChar

StartChar: quotesingle
Encoding: 39 39 10
Width: 444
GlyphClass: 1
Flags: W
LayerCount: 2
Fore
SplineSet
338 1207 m 1,0,-1
 236 924 l 1,1,-1
 109 924 l 1,2,-1
 109 1456 l 1,3,-1
 338 1456 l 1,4,-1
 338 1207 l 1,0,-1
EndSplineSet
Validated: 1
EndChar

StartChar: parenleft
Encoding: 40 40 11
Width: 695
GlyphClass: 1
Flags: W
LayerCount: 2
Fore
SplineSet
128 592 m 2,0,1
 128 986 128 986 284.5 1262.5 c 128,-1,2
 441 1539 441 1539 623 1624 c 1,3,-1
 629 1623 l 1,4,-1
 674 1489 l 1,5,6
 540 1387 540 1387 444.5 1162 c 128,-1,7
 349 937 349 937 349 594 c 2,8,-1
 349 574 l 2,9,10
 349 231 349 231 444 6 c 128,-1,11
 539 -219 539 -219 674 -328 c 1,12,-1
 629 -456 l 1,13,-1
 623 -456 l 1,14,15
 440 -370 440 -370 284 -94 c 128,-1,16
 128 182 128 182 128 576 c 2,17,-1
 128 592 l 2,0,1
EndSplineSet
Validated: 1
EndChar

StartChar: parenright
Encoding: 41 41 12
Width: 700
GlyphClass: 1
Flags: W
LayerCount: 2
Fore
SplineSet
571 576 m 2,0,1
 571 187 571 187 411.5 -92 c 128,-1,2
 252 -371 252 -371 69 -456 c 1,3,-1
 63 -456 l 1,4,-1
 17 -328 l 1,5,6
 150 -226 150 -226 246 2 c 128,-1,7
 342 230 342 230 342 574 c 2,8,-1
 342 594 l 2,9,10
 342 934 342 934 243.5 1162.5 c 128,-1,11
 145 1391 145 1391 17 1495 c 1,12,-1
 63 1624 l 1,13,-1
 69 1624 l 1,14,15
 251 1540 251 1540 411 1260 c 128,-1,16
 571 980 571 980 571 592 c 2,17,-1
 571 576 l 2,0,1
EndSplineSet
Validated: 1
EndChar

StartChar: asterisk
Encoding: 42 42 13
Width: 872
GlyphClass: 1
Flags: W
LayerCount: 2
Fore
SplineSet
302 678 m 1,0,-1
 70 751 l 1,1,-1
 121 915 l 1,2,-1
 359 832 l 1,3,-1
 354 1081 l 1,4,-1
 523 1081 l 1,5,-1
 521 824 l 1,6,-1
 752 907 l 1,7,-1
 803 740 l 1,8,-1
 565 667 l 1,9,-1
 711 467 l 1,10,-1
 573 365 l 1,11,-1
 429 576 l 1,12,-1
 289 373 l 1,13,-1
 150 472 l 1,14,-1
 302 678 l 1,0,-1
EndSplineSet
Validated: 1
EndChar

StartChar: plus
Encoding: 43 43 14
Width: 1141
GlyphClass: 1
Flags: W
LayerCount: 2
Fore
SplineSet
686 801 m 1,0,-1
 1066 801 l 1,1,-1
 1066 579 l 1,2,-1
 686 579 l 1,3,-1
 686 146 l 1,4,-1
 450 146 l 1,5,-1
 450 579 l 1,6,-1
 68 579 l 1,7,-1
 68 801 l 1,8,-1
 450 801 l 1,9,-1
 450 1206 l 1,10,-1
 686 1206 l 1,11,-1
 686 801 l 1,0,-1
EndSplineSet
Validated: 1
EndChar

StartChar: comma
Encoding: 44 44 15
Width: 462
GlyphClass: 1
Flags: W
LayerCount: 2
Fore
SplineSet
363 31 m 1,0,-1
 208 -281 l 1,1,-1
 54 -281 l 1,2,-1
 124 40 l 1,3,-1
 124 238 l 1,4,-1
 363 238 l 1,5,-1
 363 31 l 1,0,-1
EndSplineSet
Validated: 1
EndChar

StartChar: hyphen
Encoding: 45 45 16
Width: 910
GlyphClass: 1
Flags: W
LayerCount: 2
Fore
SplineSet
748 521 m 1,0,-1
 158 521 l 1,1,-1
 158 717 l 1,2,-1
 748 717 l 1,3,-1
 748 521 l 1,0,-1
EndSplineSet
Validated: 1
EndChar

StartChar: period
Encoding: 46 46 17
Width: 572
GlyphClass: 1
Flags: W
LayerCount: 2
Fore
SplineSet
395 0 m 1,0,-1
 153 0 l 1,1,-1
 153 233 l 1,2,-1
 395 233 l 1,3,-1
 395 0 l 1,0,-1
EndSplineSet
Validated: 1
EndChar

StartChar: slash
Encoding: 47 47 18
Width: 839
GlyphClass: 1
Flags: W
LayerCount: 2
Fore
SplineSet
225 -125 m 1,0,-1
 2 -125 l 1,1,-1
 575 1456 l 1,2,-1
 798 1456 l 1,3,-1
 225 -125 l 1,0,-1
EndSplineSet
Validated: 1
EndChar

StartChar: zero
Encoding: 48 48 19
Width: 1164
GlyphClass: 1
Flags: W
LayerCount: 2
Fore
SplineSet
1059 521 m 2,0,1
 1059 269 1059 269 929.5 124 c 128,-1,2
 800 -21 800 -21 583 -21 c 256,3,4
 366 -21 366 -21 235 124.5 c 128,-1,5
 104 270 104 270 104 521 c 2,6,-1
 104 934 l 2,7,8
 104 1185 104 1185 234 1331 c 128,-1,9
 364 1477 364 1477 581 1477 c 256,10,11
 798 1477 798 1477 928.5 1331 c 128,-1,12
 1059 1185 1059 1185 1059 934 c 2,13,-1
 1059 521 l 2,0,1
816 971 m 2,14,15
 816 1117 816 1117 754 1199.5 c 128,-1,16
 692 1282 692 1282 581 1282 c 0,17,18
 469 1282 469 1282 408 1199.5 c 128,-1,19
 347 1117 347 1117 347 971 c 2,20,-1
 347 486 l 2,21,22
 347 338 347 338 409 255.5 c 128,-1,23
 471 173 471 173 583 173 c 256,24,25
 695 173 695 173 755.5 255 c 128,-1,26
 816 337 816 337 816 486 c 2,27,-1
 816 971 l 2,14,15
EndSplineSet
Validated: 1
EndChar

StartChar: one
Encoding: 49 49 20
Width: 1164
GlyphClass: 1
Flags: W
LayerCount: 2
Fore
SplineSet
751 0 m 1,0,-1
 508 0 l 1,1,-1
 508 1232 l 1,2,-1
 199 1232 l 1,3,-1
 199 1425 l 1,4,-1
 751 1477 l 1,5,-1
 751 0 l 1,0,-1
EndSplineSet
Validated: 1
EndChar

StartChar: two
Encoding: 50 50 21
Width: 1164
GlyphClass: 1
Flags: W
LayerCount: 2
Fore
SplineSet
1073 0 m 1,0,-1
 134 0 l 1,1,-1
 134 167 l 1,2,-1
 589 693 l 2,3,4
 700 824 700 824 743 909 c 128,-1,5
 786 994 786 994 786 1072 c 0,6,7
 786 1165 786 1165 734 1223.5 c 128,-1,8
 682 1282 682 1282 585 1282 c 0,9,10
 472 1282 472 1282 412 1209 c 128,-1,11
 352 1136 352 1136 352 1025 c 1,12,-1
 117 1025 l 1,13,-1
 115 1031 l 1,14,15
 110 1218 110 1218 238.5 1347.5 c 128,-1,16
 367 1477 367 1477 585 1477 c 0,17,18
 794 1477 794 1477 911.5 1365 c 128,-1,19
 1029 1253 1029 1253 1029 1071 c 0,20,21
 1029 948 1029 948 963.5 840 c 128,-1,22
 898 732 898 732 748 551 c 1,23,-1
 441 199 l 1,24,-1
 443 194 l 1,25,-1
 1073 194 l 1,26,-1
 1073 0 l 1,0,-1
EndSplineSet
Validated: 33
EndChar

StartChar: three
Encoding: 51 51 22
Width: 1164
GlyphClass: 1
Flags: W
LayerCount: 2
Fore
SplineSet
580 844 m 2,0,1
 698 844 698 844 750 903 c 128,-1,2
 802 962 802 962 802 1068 c 0,3,4
 802 1163 802 1163 746 1222.5 c 128,-1,5
 690 1282 690 1282 584 1282 c 0,6,7
 486 1282 486 1282 421 1223.5 c 128,-1,8
 356 1165 356 1165 356 1077 c 1,9,-1
 123 1077 l 1,10,-1
 121 1083 l 1,11,12
 115 1250 115 1250 248.5 1363.5 c 128,-1,13
 382 1477 382 1477 584 1477 c 0,14,15
 797 1477 797 1477 920.5 1372.5 c 128,-1,16
 1044 1268 1044 1268 1044 1068 c 0,17,18
 1044 968 1044 968 989.5 884.5 c 128,-1,19
 935 801 935 801 838 754 c 1,20,21
 949 710 949 710 1008 621.5 c 128,-1,22
 1067 533 1067 533 1067 408 c 0,23,24
 1067 207 1067 207 932 93 c 128,-1,25
 797 -21 797 -21 584 -21 c 0,26,27
 392 -21 392 -21 247 87.5 c 128,-1,28
 102 196 102 196 107 384 c 1,29,-1
 109 390 l 1,30,-1
 343 390 l 1,31,32
 343 298 343 298 410.5 235.5 c 128,-1,33
 478 173 478 173 584 173 c 0,34,35
 694 173 694 173 759 238.5 c 128,-1,36
 824 304 824 304 824 407 c 0,37,38
 824 531 824 531 763.5 592 c 128,-1,39
 703 653 703 653 580 653 c 2,40,-1
 418 653 l 1,41,-1
 418 844 l 1,42,-1
 580 844 l 2,0,1
EndSplineSet
Validated: 33
EndChar

StartChar: four
Encoding: 52 52 23
Width: 1164
GlyphClass: 1
Flags: W
LayerCount: 2
Fore
SplineSet
922 519 m 1,0,-1
 1106 519 l 1,1,-1
 1106 323 l 1,2,-1
 922 323 l 1,3,-1
 922 0 l 1,4,-1
 680 0 l 1,5,-1
 680 323 l 1,6,-1
 71 323 l 1,7,-1
 65 472 l 1,8,-1
 673 1456 l 1,9,-1
 922 1456 l 1,10,-1
 922 519 l 1,0,-1
302 519 m 1,11,-1
 680 519 l 1,12,-1
 680 1113 l 1,13,-1
 674 1114 l 1,14,-1
 651 1058 l 1,15,-1
 302 519 l 1,11,-1
EndSplineSet
Validated: 1
EndChar

StartChar: five
Encoding: 53 53 24
Width: 1164
GlyphClass: 1
Flags: W
LayerCount: 2
Fore
SplineSet
158 644 m 1,0,-1
 242 1456 l 1,1,-1
 1010 1456 l 1,2,-1
 1010 1246 l 1,3,-1
 444 1246 l 1,4,-1
 400 875 l 1,5,6
 443 906 443 906 502.5 927 c 128,-1,7
 562 948 562 948 634 949 c 0,8,9
 837 951 837 951 950 822 c 128,-1,10
 1063 693 1063 693 1063 465 c 0,11,12
 1063 249 1063 249 944 114 c 128,-1,13
 825 -21 825 -21 588 -21 c 0,14,15
 396 -21 396 -21 263.5 82.5 c 128,-1,16
 131 186 131 186 136 378 c 1,17,-1
 138 383 l 1,18,-1
 366 390 l 1,19,20
 366 288 366 288 427.5 230.5 c 128,-1,21
 489 173 489 173 588 173 c 0,22,23
 702 173 702 173 761 250 c 128,-1,24
 820 327 820 327 820 463 c 0,25,26
 820 594 820 594 759 673.5 c 128,-1,27
 698 753 698 753 585 753 c 0,28,29
 485 753 485 753 436.5 721 c 128,-1,30
 388 689 388 689 366 627 c 1,31,-1
 158 644 l 1,0,-1
EndSplineSet
Validated: 33
EndChar

StartChar: six
Encoding: 54 54 25
Width: 1164
GlyphClass: 1
Flags: W
LayerCount: 2
Fore
SplineSet
654 1477 m 0,0,1
 739 1477 739 1477 818 1460.5 c 128,-1,2
 897 1444 897 1444 960 1417 c 1,3,-1
 913 1229 l 1,4,5
 852 1253 852 1253 793 1266.5 c 128,-1,6
 734 1280 734 1280 655 1280 c 0,7,8
 522 1280 522 1280 440.5 1173 c 128,-1,9
 359 1066 359 1066 359 890 c 2,10,-1
 359 814 l 1,11,12
 418 873 418 873 499.5 906 c 128,-1,13
 581 939 581 939 679 939 c 0,14,15
 866 939 866 939 973.5 810 c 128,-1,16
 1081 681 1081 681 1081 472 c 0,17,18
 1081 251 1081 251 952 115 c 128,-1,19
 823 -21 823 -21 611 -21 c 0,20,21
 396 -21 396 -21 256.5 134 c 128,-1,22
 117 289 117 289 117 558 c 2,23,-1
 117 875 l 2,24,25
 117 1143 117 1143 270.5 1310 c 128,-1,26
 424 1477 424 1477 654 1477 c 0,0,1
600 750 m 0,27,28
 513 750 513 750 452.5 718.5 c 128,-1,29
 392 687 392 687 359 632 c 1,30,-1
 359 545 l 2,31,32
 359 371 359 371 430 272 c 128,-1,33
 501 173 501 173 611 173 c 0,34,35
 718 173 718 173 778.5 257 c 128,-1,36
 839 341 839 341 839 472 c 0,37,38
 839 600 839 600 775.5 675 c 128,-1,39
 712 750 712 750 600 750 c 0,27,28
EndSplineSet
Validated: 1
EndChar

StartChar: seven
Encoding: 55 55 26
Width: 1164
GlyphClass: 1
Flags: W
LayerCount: 2
Fore
SplineSet
1078 1261 m 1,0,1
 815 951 815 951 722.5 712 c 128,-1,2
 630 473 630 473 630 171 c 2,3,-1
 630 0 l 1,4,-1
 387 0 l 1,5,-1
 387 171 l 2,6,7
 387 486 387 486 503.5 741.5 c 128,-1,8
 620 997 620 997 842 1261 c 1,9,-1
 85 1261 l 1,10,-1
 85 1456 l 1,11,-1
 1078 1456 l 1,12,-1
 1078 1261 l 1,0,1
EndSplineSet
Validated: 1
EndChar

StartChar: eight
Encoding: 56 56 27
Width: 1164
GlyphClass: 1
Flags: W
LayerCount: 2
Fore
SplineSet
1032 1080 m 0,0,1
 1032 970 1032 970 973 885.5 c 128,-1,2
 914 801 914 801 813 755 c 1,3,4
 933 708 933 708 1004.5 616 c 128,-1,5
 1076 524 1076 524 1076 404 c 0,6,7
 1076 201 1076 201 940.5 90 c 128,-1,8
 805 -21 805 -21 596 -21 c 0,9,10
 374 -21 374 -21 233.5 90 c 128,-1,11
 93 201 93 201 93 404 c 0,12,13
 93 524 93 524 166.5 616 c 128,-1,14
 240 708 240 708 366 755 c 1,15,16
 260 801 260 801 199 885.5 c 128,-1,17
 138 970 138 970 138 1080 c 0,18,19
 138 1273 138 1273 264 1375 c 128,-1,20
 390 1477 390 1477 594 1477 c 0,21,22
 787 1477 787 1477 909.5 1374.5 c 128,-1,23
 1032 1272 1032 1272 1032 1080 c 0,0,1
834 413 m 0,24,25
 834 520 834 520 765 588.5 c 128,-1,26
 696 657 696 657 594 657 c 0,27,28
 482 657 482 657 409 588.5 c 128,-1,29
 336 520 336 520 336 413 c 0,30,31
 336 304 336 304 408.5 238.5 c 128,-1,32
 481 173 481 173 596 173 c 0,33,34
 698 173 698 173 766 238.5 c 128,-1,35
 834 304 834 304 834 413 c 0,24,25
789 1071 m 0,36,37
 789 1165 789 1165 734 1223.5 c 128,-1,38
 679 1282 679 1282 594 1282 c 0,39,40
 498 1282 498 1282 439.5 1225.5 c 128,-1,41
 381 1169 381 1169 381 1071 c 256,42,43
 381 973 381 973 441 912.5 c 128,-1,44
 501 852 501 852 596 852 c 0,45,46
 680 852 680 852 734.5 912.5 c 128,-1,47
 789 973 789 973 789 1071 c 0,36,37
EndSplineSet
Validated: 1
EndChar

StartChar: nine
Encoding: 57 57 28
Width: 1164
GlyphClass: 1
Flags: W
LayerCount: 2
Fore
SplineSet
515 173 m 0,0,1
 641 173 641 173 719.5 262 c 128,-1,2
 798 351 798 351 798 512 c 2,3,-1
 798 617 l 1,4,5
 750 550 750 550 681 516 c 128,-1,6
 612 482 612 482 531 482 c 0,7,8
 324 482 324 482 206.5 613 c 128,-1,9
 89 744 89 744 89 974 c 0,10,11
 89 1193 89 1193 220.5 1335 c 128,-1,12
 352 1477 352 1477 551 1477 c 0,13,14
 770 1477 770 1477 905.5 1334 c 128,-1,15
 1041 1191 1041 1191 1041 934 c 2,16,-1
 1041 521 l 2,17,18
 1041 268 1041 268 893.5 123.5 c 128,-1,19
 746 -21 746 -21 515 -21 c 0,20,21
 438 -21 438 -21 357.5 -5 c 128,-1,22
 277 11 277 11 207 42 c 1,23,-1
 246 227 l 1,24,25
 311 198 311 198 373 185.5 c 128,-1,26
 435 173 435 173 515 173 c 0,0,1
554 671 m 0,27,28
 641 671 641 671 703 707.5 c 128,-1,29
 765 744 765 744 798 803 c 1,30,-1
 798 976 l 2,31,32
 798 1123 798 1123 733.5 1202.5 c 128,-1,33
 669 1282 669 1282 555 1282 c 0,34,35
 458 1282 458 1282 394.5 1194.5 c 128,-1,36
 331 1107 331 1107 331 974 c 0,37,38
 331 837 331 837 388.5 754 c 128,-1,39
 446 671 446 671 554 671 c 0,27,28
EndSplineSet
Validated: 1
EndChar

StartChar: less
Encoding: 60 60 31
Width: 1041
GlyphClass: 1
Flags: W
LayerCount: 2
Fore
SplineSet
322 559 m 1,0,-1
 303 556 l 1,1,-1
 303 550 l 1,2,-1
 322 547 l 1,3,-1
 900 329 l 1,4,-1
 900 86 l 1,5,-1
 63 458 l 1,6,-1
 63 651 l 1,7,-1
 900 1023 l 1,8,-1
 900 781 l 1,9,-1
 322 559 l 1,0,-1
EndSplineSet
Validated: 1
EndChar

StartChar: equal
Encoding: 61 61 32
Width: 1166
GlyphClass: 1
Flags: W
LayerCount: 2
Fore
SplineSet
1007 790 m 1,0,-1
 145 790 l 1,1,-1
 145 992 l 1,2,-1
 1007 992 l 1,3,-1
 1007 790 l 1,0,-1
1007 366 m 1,4,-1
 145 366 l 1,5,-1
 145 567 l 1,6,-1
 1007 567 l 1,7,-1
 1007 366 l 1,4,-1
EndSplineSet
Validated: 1
EndChar

StartChar: greater
Encoding: 62 62 33
Width: 1066
GlyphClass: 1
Flags: W
LayerCount: 2
Fore
SplineSet
128 770 m 1,0,-1
 128 1009 l 1,1,-1
 992 637 l 1,2,-1
 992 444 l 1,3,-1
 128 72 l 1,4,-1
 128 311 l 1,5,-1
 733 537 l 1,6,-1
 751 539 l 1,7,-1
 752 545 l 1,8,-1
 733 549 l 1,9,-1
 128 770 l 1,0,-1
EndSplineSet
Validated: 1
EndChar

StartChar: question
Encoding: 63 63 34
Width: 996
GlyphClass: 1
Flags: W
LayerCount: 2
Fore
SplineSet
340 412 m 1,0,1
 341 555 341 555 373 616.5 c 128,-1,2
 405 678 405 678 515 771 c 1,3,4
 593 847 593 847 639 916.5 c 128,-1,5
 685 986 685 986 685 1070 c 0,6,7
 685 1167 685 1167 632.5 1220.5 c 128,-1,8
 580 1274 580 1274 483 1274 c 0,9,10
 400 1274 400 1274 342 1228.5 c 128,-1,11
 284 1183 284 1183 284 1094 c 1,12,-1
 50 1094 l 1,13,-1
 47 1100 l 1,14,15
 44 1278 44 1278 166.5 1377.5 c 128,-1,16
 289 1477 289 1477 483 1477 c 0,17,18
 693 1477 693 1477 810.5 1370 c 128,-1,19
 928 1263 928 1263 928 1073 c 0,20,21
 928 946 928 946 854.5 837.5 c 128,-1,22
 781 729 781 729 669 639 c 0,23,24
 612 589 612 589 597.5 544 c 128,-1,25
 583 499 583 499 583 412 c 1,26,-1
 340 412 l 1,0,1
587 0 m 1,27,-1
 339 0 l 1,28,-1
 339 233 l 1,29,-1
 587 233 l 1,30,-1
 587 0 l 1,27,-1
EndSplineSet
Validated: 33
EndChar

StartChar: at
Encoding: 64 64 35
Width: 1825
GlyphClass: 1
Flags: W
LayerCount: 2
Fore
SplineSet
1731 507 m 0,0,1
 1722 291 1722 291 1607 135 c 128,-1,2
 1492 -21 1492 -21 1263 -21 c 0,3,4
 1188 -21 1188 -21 1133.5 21 c 128,-1,5
 1079 63 1079 63 1055 140 c 1,6,7
 1008 60 1008 60 939 20.5 c 128,-1,8
 870 -19 870 -19 778 -19 c 0,9,10
 645 -19 645 -19 573.5 100.5 c 128,-1,11
 502 220 502 220 520 416 c 0,12,13
 544 672 544 672 660.5 827 c 128,-1,14
 777 982 777 982 943 982 c 0,15,16
 1053 982 1053 982 1120.5 956 c 128,-1,17
 1188 930 1188 930 1268 876 c 1,18,-1
 1265 872 l 1,19,-1
 1270 872 l 1,20,-1
 1219 293 l 2,21,22
 1211 192 1211 192 1237 154 c 128,-1,23
 1263 116 1263 116 1306 116 c 0,24,25
 1425 116 1425 116 1496.5 226.5 c 128,-1,26
 1568 337 1568 337 1576 507 c 0,27,28
 1592 874 1592 874 1436 1079 c 128,-1,29
 1280 1284 1280 1284 952 1284 c 0,30,31
 646 1284 646 1284 462.5 1063 c 128,-1,32
 279 842 279 842 264 478 c 0,33,34
 246 113 246 113 411.5 -97 c 128,-1,35
 577 -307 577 -307 887 -307 c 0,36,37
 974 -307 974 -307 1064 -287 c 128,-1,38
 1154 -267 1154 -267 1218 -234 c 1,39,-1
 1256 -364 l 1,40,41
 1189 -406 1189 -406 1085.5 -429.5 c 128,-1,42
 982 -453 982 -453 883 -453 c 0,43,44
 496 -453 496 -453 285 -203.5 c 128,-1,45
 74 46 74 46 91 478 c 0,46,47
 109 902 109 902 343 1163 c 128,-1,48
 577 1424 577 1424 956 1424 c 0,49,50
 1339 1424 1339 1424 1543 1178 c 128,-1,51
 1747 932 1747 932 1731 507 c 0,0,1
721 416 m 0,52,53
 711 283 711 283 741 214 c 128,-1,54
 771 145 771 145 840 145 c 0,55,56
 899 145 899 145 949 169.5 c 128,-1,57
 999 194 999 194 1038 257 c 1,58,59
 1038 265 1038 265 1038.5 273 c 128,-1,60
 1039 281 1039 281 1040 293 c 2,61,-1
 1085 808 l 1,62,63
 1062 817 1062 817 1036 822.5 c 128,-1,64
 1010 828 1010 828 982 828 c 0,65,66
 864 828 864 828 802 725.5 c 128,-1,67
 740 623 740 623 721 416 c 0,52,53
EndSplineSet
Validated: 33
EndChar

StartChar: A
Encoding: 65 65 36
Width: 1300
GlyphClass: 1
Flags: W
LayerCount: 2
Fore
SplineSet
911 340 m 1,0,-1
 395 340 l 1,1,-1
 283 0 l 1,2,-1
 32 0 l 1,3,-1
 540 1456 l 1,4,-1
 771 1456 l 1,5,-1
 1273 0 l 1,6,-1
 1022 0 l 1,7,-1
 911 340 l 1,0,-1
462 543 m 1,8,-1
 845 543 l 1,9,-1
 658 1117 l 1,10,-1
 652 1117 l 1,11,-1
 462 543 l 1,8,-1
EndSplineSet
Validated: 1
Substitution2: "'smcp' Lowercase to Small Capitals lookup 0 subtable" A.smcp
EndChar

StartChar: B
Encoding: 66 66 37
Width: 1304
GlyphClass: 1
Flags: W
LayerCount: 2
Fore
SplineSet
153 0 m 1,0,-1
 153 1456 l 1,1,-1
 630 1456 l 2,2,3
 871 1456 871 1456 1007 1356.5 c 128,-1,4
 1143 1257 1143 1257 1143 1059 c 0,5,6
 1143 963 1143 963 1088.5 886 c 128,-1,7
 1034 809 1034 809 937 769 c 1,8,9
 1077 746 1077 746 1152.5 648 c 128,-1,10
 1228 550 1228 550 1228 418 c 0,11,12
 1228 213 1228 213 1094 106.5 c 128,-1,13
 960 0 960 0 724 0 c 2,14,-1
 153 0 l 1,0,-1
396 662 m 1,15,-1
 396 194 l 1,16,-1
 724 194 l 2,17,18
 850 194 850 194 918 251.5 c 128,-1,19
 986 309 986 309 986 418 c 0,20,21
 986 528 986 528 919 593 c 128,-1,22
 852 658 852 658 731 662 c 1,23,-1
 718 662 l 1,24,-1
 396 662 l 1,15,-1
396 843 m 1,25,-1
 656 843 l 2,26,27
 769 843 769 843 834.5 896.5 c 128,-1,28
 900 950 900 950 900 1048 c 0,29,30
 900 1156 900 1156 831 1208.5 c 128,-1,31
 762 1261 762 1261 630 1261 c 2,32,-1
 396 1261 l 1,33,-1
 396 843 l 1,25,-1
EndSplineSet
Validated: 1
Substitution2: "'smcp' Lowercase to Small Capitals lookup 0 subtable" B.smcp
EndChar

StartChar: C
Encoding: 67 67 38
Width: 1300
GlyphClass: 1
Flags: W
LayerCount: 2
Fore
SplineSet
1217 476 m 1,0,-1
 1219 470 l 1,1,2
 1223 250 1223 250 1076 114.5 c 128,-1,3
 929 -21 929 -21 679 -21 c 0,4,5
 425 -21 425 -21 267 150.5 c 128,-1,6
 109 322 109 322 109 589 c 2,7,-1
 109 866 l 2,8,9
 109 1132 109 1132 265 1304.5 c 128,-1,10
 421 1477 421 1477 672 1477 c 0,11,12
 929 1477 929 1477 1076.5 1346 c 128,-1,13
 1224 1215 1224 1215 1220 987 c 1,14,-1
 1218 981 l 1,15,-1
 983 981 l 1,16,17
 983 1127 983 1127 904 1204.5 c 128,-1,18
 825 1282 825 1282 672 1282 c 0,19,20
 524 1282 524 1282 437.5 1164.5 c 128,-1,21
 351 1047 351 1047 351 868 c 2,22,-1
 351 589 l 2,23,24
 351 408 351 408 439 290.5 c 128,-1,25
 527 173 527 173 679 173 c 0,26,27
 828 173 828 173 905.5 251 c 128,-1,28
 983 329 983 329 983 476 c 1,29,-1
 1217 476 l 1,0,-1
EndSplineSet
Validated: 33
Substitution2: "'smcp' Lowercase to Small Capitals lookup 0 subtable" C.smcp
EndChar

StartChar: D
Encoding: 68 68 39
Width: 1372
GlyphClass: 1
Flags: W
LayerCount: 2
Fore
SplineSet
153 0 m 1,0,-1
 153 1456 l 1,1,-1
 634 1456 l 2,2,3
 911 1456 911 1456 1084.5 1283 c 128,-1,4
 1258 1110 1258 1110 1258 838 c 2,5,-1
 1258 617 l 2,6,7
 1258 344 1258 344 1084.5 172 c 128,-1,8
 911 0 911 0 634 0 c 2,9,-1
 153 0 l 1,0,-1
396 1261 m 1,10,-1
 396 194 l 1,11,-1
 634 194 l 2,12,13
 809 194 809 194 912 312.5 c 128,-1,14
 1015 431 1015 431 1015 617 c 2,15,-1
 1015 840 l 2,16,17
 1015 1024 1015 1024 912 1142.5 c 128,-1,18
 809 1261 809 1261 634 1261 c 2,19,-1
 396 1261 l 1,10,-1
EndSplineSet
Validated: 1
Substitution2: "'smcp' Lowercase to Small Capitals lookup 0 subtable" D.smcp
EndChar

StartChar: E
Encoding: 69 69 40
Width: 1134
GlyphClass: 1
Flags: W
LayerCount: 2
Fore
SplineSet
966 655 m 1,0,-1
 396 655 l 1,1,-1
 396 194 l 1,2,-1
 1068 194 l 1,3,-1
 1068 0 l 1,4,-1
 153 0 l 1,5,-1
 153 1456 l 1,6,-1
 1061 1456 l 1,7,-1
 1061 1261 l 1,8,-1
 396 1261 l 1,9,-1
 396 850 l 1,10,-1
 966 850 l 1,11,-1
 966 655 l 1,0,-1
EndSplineSet
Validated: 1
Substitution2: "'smcp' Lowercase to Small Capitals lookup 0 subtable" E.smcp
EndChar

StartChar: F
Encoding: 70 70 41
Width: 1134
GlyphClass: 1
Flags: W
LayerCount: 2
Fore
SplineSet
983 621 m 1,0,-1
 396 621 l 1,1,-1
 396 0 l 1,2,-1
 153 0 l 1,3,-1
 153 1456 l 1,4,-1
 1085 1456 l 1,5,-1
 1085 1261 l 1,6,-1
 396 1261 l 1,7,-1
 396 816 l 1,8,-1
 983 816 l 1,9,-1
 983 621 l 1,0,-1
EndSplineSet
Validated: 1
Substitution2: "'smcp' Lowercase to Small Capitals lookup 0 subtable" F.smcp
EndChar

StartChar: G
Encoding: 71 71 42
Width: 1376
GlyphClass: 1
Flags: W
LayerCount: 2
Fore
SplineSet
1232 197 m 1,0,1
 1172 112 1172 112 1040.5 45.5 c 128,-1,2
 909 -21 909 -21 701 -21 c 0,3,4
 443 -21 443 -21 276.5 145.5 c 128,-1,5
 110 312 110 312 110 576 c 2,6,-1
 110 880 l 2,7,8
 110 1144 110 1144 271 1310.5 c 128,-1,9
 432 1477 432 1477 685 1477 c 0,10,11
 939 1477 939 1477 1081 1349 c 128,-1,12
 1223 1221 1223 1221 1219 1015 c 1,13,-1
 1216 1009 l 1,14,-1
 985 1009 l 1,15,16
 985 1132 985 1132 908.5 1207 c 128,-1,17
 832 1282 832 1282 689 1282 c 0,18,19
 538 1282 538 1282 445.5 1169 c 128,-1,20
 353 1056 353 1056 353 882 c 2,21,-1
 353 576 l 2,22,23
 353 400 353 400 449.5 286.5 c 128,-1,24
 546 173 546 173 701 173 c 0,25,26
 818 173 818 173 886 199.5 c 128,-1,27
 954 226 954 226 989 264 c 1,28,-1
 989 565 l 1,29,-1
 684 565 l 1,30,-1
 684 747 l 1,31,-1
 1232 747 l 1,32,-1
 1232 197 l 1,0,1
EndSplineSet
Validated: 33
Substitution2: "'smcp' Lowercase to Small Capitals lookup 0 subtable" G.smcp
EndChar

StartChar: H
Encoding: 72 72 43
Width: 1443
GlyphClass: 1
Flags: W
LayerCount: 2
Fore
SplineSet
1290 0 m 1,0,-1
 1047 0 l 1,1,-1
 1047 621 l 1,2,-1
 396 621 l 1,3,-1
 396 0 l 1,4,-1
 153 0 l 1,5,-1
 153 1456 l 1,6,-1
 396 1456 l 1,7,-1
 396 816 l 1,8,-1
 1047 816 l 1,9,-1
 1047 1456 l 1,10,-1
 1290 1456 l 1,11,-1
 1290 0 l 1,0,-1
EndSplineSet
Validated: 1
Substitution2: "'smcp' Lowercase to Small Capitals lookup 0 subtable" H.smcp
EndChar

StartChar: I
Encoding: 73 73 44
Width: 589
GlyphClass: 1
Flags: W
LayerCount: 2
Fore
SplineSet
416 0 m 1,0,-1
 173 0 l 1,1,-1
 173 1456 l 1,2,-1
 416 1456 l 1,3,-1
 416 0 l 1,0,-1
EndSplineSet
Validated: 1
Substitution2: "'smcp' Lowercase to Small Capitals lookup 0 subtable" I.smcp
EndChar

StartChar: J
Encoding: 74 74 45
Width: 1130
GlyphClass: 1
Flags: W
LayerCount: 2
Fore
SplineSet
737 1456 m 1,0,-1
 979 1456 l 1,1,-1
 979 437 l 2,2,3
 979 227 979 227 851.5 103 c 128,-1,4
 724 -21 724 -21 521 -21 c 0,5,6
 306 -21 306 -21 180 89 c 128,-1,7
 54 199 54 199 59 410 c 1,8,-1
 61 416 l 1,9,-1
 296 416 l 1,10,11
 296 292 296 292 355.5 232.5 c 128,-1,12
 415 173 415 173 521 173 c 0,13,14
 616 173 616 173 676.5 245 c 128,-1,15
 737 317 737 317 737 437 c 2,16,-1
 737 1456 l 1,0,-1
EndSplineSet
Validated: 33
Substitution2: "'smcp' Lowercase to Small Capitals lookup 0 subtable" J.smcp
EndChar

StartChar: K
Encoding: 75 75 46
Width: 1304
GlyphClass: 1
Flags: W
LayerCount: 2
Fore
SplineSet
515 630 m 1,0,-1
 396 630 l 1,1,-1
 396 0 l 1,2,-1
 153 0 l 1,3,-1
 153 1456 l 1,4,-1
 396 1456 l 1,5,-1
 396 839 l 1,6,-1
 491 839 l 1,7,-1
 964 1456 l 1,8,-1
 1249 1456 l 1,9,-1
 1252 1451 l 1,10,-1
 706 767 l 1,11,-1
 1297 0 l 1,12,-1
 990 0 l 1,13,-1
 515 630 l 1,0,-1
EndSplineSet
Validated: 1
Substitution2: "'smcp' Lowercase to Small Capitals lookup 0 subtable" K.smcp
EndChar

StartChar: L
Encoding: 76 76 47
Width: 1131
GlyphClass: 1
Flags: W
LayerCount: 2
Fore
SplineSet
396 194 m 1,0,-1
 1078 194 l 1,1,-1
 1078 0 l 1,2,-1
 153 0 l 1,3,-1
 153 1456 l 1,4,-1
 396 1456 l 1,5,-1
 396 194 l 1,0,-1
EndSplineSet
Validated: 1
Substitution2: "'smcp' Lowercase to Small Capitals lookup 0 subtable" L.smcp
EndChar

StartChar: M
Encoding: 77 77 48
Width: 1781
GlyphClass: 1
Flags: W
LayerCount: 2
Fore
SplineSet
890 336 m 1,0,-1
 896 336 l 1,1,-1
 1317 1456 l 1,2,-1
 1627 1456 l 1,3,-1
 1627 0 l 1,4,-1
 1384 0 l 1,5,-1
 1384 1046 l 1,6,-1
 1378 1047 l 1,7,-1
 977 0 l 1,8,-1
 810 0 l 1,9,-1
 402 1067 l 1,10,-1
 396 1065 l 1,11,-1
 396 0 l 1,12,-1
 153 0 l 1,13,-1
 153 1456 l 1,14,-1
 472 1456 l 1,15,-1
 890 336 l 1,0,-1
EndSplineSet
Validated: 1
Substitution2: "'smcp' Lowercase to Small Capitals lookup 0 subtable" M.smcp
EndChar

StartChar: N
Encoding: 78 78 49
Width: 1443
GlyphClass: 1
Flags: W
LayerCount: 2
Fore
SplineSet
1290 0 m 1,0,-1
 1047 0 l 1,1,-1
 402 1049 l 1,2,-1
 396 1047 l 1,3,-1
 396 0 l 1,4,-1
 153 0 l 1,5,-1
 153 1456 l 1,6,-1
 396 1456 l 1,7,-1
 1041 407 l 1,8,-1
 1047 409 l 1,9,-1
 1047 1456 l 1,10,-1
 1290 1456 l 1,11,-1
 1290 0 l 1,0,-1
EndSplineSet
Validated: 1
Substitution2: "'smcp' Lowercase to Small Capitals lookup 0 subtable" N.smcp
EndChar

StartChar: O
Encoding: 79 79 50
Width: 1402
GlyphClass: 1
Flags: W
LayerCount: 2
Fore
SplineSet
1297 597 m 2,0,1
 1297 330 1297 330 1129.5 154.5 c 128,-1,2
 962 -21 962 -21 694 -21 c 0,3,4
 433 -21 433 -21 269 154.5 c 128,-1,5
 105 330 105 330 105 597 c 2,6,-1
 105 859 l 2,7,8
 105 1125 105 1125 268.5 1301 c 128,-1,9
 432 1477 432 1477 694 1477 c 0,10,11
 961 1477 961 1477 1129 1301 c 128,-1,12
 1297 1125 1297 1125 1297 859 c 2,13,-1
 1297 597 l 2,0,1
1054 861 m 2,14,15
 1054 1043 1054 1043 957 1160 c 128,-1,16
 860 1277 860 1277 694 1277 c 0,17,18
 533 1277 533 1277 440.5 1160 c 128,-1,19
 348 1043 348 1043 348 861 c 2,20,-1
 348 597 l 2,21,22
 348 413 348 413 441 295.5 c 128,-1,23
 534 178 534 178 694 178 c 0,24,25
 861 178 861 178 957.5 295 c 128,-1,26
 1054 412 1054 412 1054 597 c 2,27,-1
 1054 861 l 2,14,15
EndSplineSet
Validated: 1
Substitution2: "'smcp' Lowercase to Small Capitals lookup 0 subtable" O.smcp
EndChar

StartChar: P
Encoding: 80 80 51
Width: 1304
GlyphClass: 1
Flags: W
LayerCount: 2
Fore
SplineSet
396 552 m 1,0,-1
 396 0 l 1,1,-1
 153 0 l 1,2,-1
 153 1456 l 1,3,-1
 711 1456 l 2,4,5
 952 1456 952 1456 1088.5 1331.5 c 128,-1,6
 1225 1207 1225 1207 1225 1004 c 0,7,8
 1225 799 1225 799 1088.5 675.5 c 128,-1,9
 952 552 952 552 711 552 c 2,10,-1
 396 552 l 1,0,-1
396 747 m 1,11,-1
 711 747 l 2,12,13
 846 747 846 747 914 819 c 128,-1,14
 982 891 982 891 982 1002 c 256,15,16
 982 1113 982 1113 914 1187 c 128,-1,17
 846 1261 846 1261 711 1261 c 2,18,-1
 396 1261 l 1,19,-1
 396 747 l 1,11,-1
EndSplineSet
Validated: 1
Substitution2: "'smcp' Lowercase to Small Capitals lookup 0 subtable" P.smcp
EndChar

StartChar: Q
Encoding: 81 81 52
Width: 1434
GlyphClass: 1
Flags: W
LayerCount: 2
Fore
SplineSet
1297 597 m 2,0,1
 1297 485 1297 485 1265.5 386 c 128,-1,2
 1234 287 1234 287 1175 208 c 1,3,-1
 1390 -6 l 1,4,-1
 1228 -151 l 1,5,-1
 1012 62 l 1,6,7
 943 21 943 21 863 0 c 128,-1,8
 783 -21 783 -21 694 -21 c 0,9,10
 433 -21 433 -21 269 154.5 c 128,-1,11
 105 330 105 330 105 597 c 2,12,-1
 105 859 l 2,13,14
 105 1125 105 1125 268.5 1301 c 128,-1,15
 432 1477 432 1477 694 1477 c 0,16,17
 961 1477 961 1477 1129 1301 c 128,-1,18
 1297 1125 1297 1125 1297 859 c 2,19,-1
 1297 597 l 2,0,1
1054 861 m 2,20,21
 1054 1043 1054 1043 957 1160 c 128,-1,22
 860 1277 860 1277 694 1277 c 0,23,24
 533 1277 533 1277 440.5 1160 c 128,-1,25
 348 1043 348 1043 348 861 c 2,26,-1
 348 597 l 2,27,28
 348 413 348 413 441 295.5 c 128,-1,29
 534 178 534 178 694 178 c 0,30,31
 861 178 861 178 957.5 295 c 128,-1,32
 1054 412 1054 412 1054 597 c 2,33,-1
 1054 861 l 2,20,21
EndSplineSet
Validated: 1
Substitution2: "'smcp' Lowercase to Small Capitals lookup 0 subtable" Q.smcp
EndChar

StartChar: R
Encoding: 82 82 53
Width: 1303
GlyphClass: 1
Flags: W
LayerCount: 2
Fore
SplineSet
396 604 m 1,0,-1
 396 0 l 1,1,-1
 153 0 l 1,2,-1
 153 1456 l 1,3,-1
 654 1456 l 2,4,5
 897 1456 897 1456 1030 1346 c 128,-1,6
 1163 1236 1163 1236 1163 1032 c 0,7,8
 1163 919 1163 919 1104.5 837.5 c 128,-1,9
 1046 756 1046 756 934 707 c 1,10,11
 1057 668 1057 668 1111.5 580 c 128,-1,12
 1166 492 1166 492 1166 362 c 2,13,-1
 1166 241 l 2,14,15
 1166 177 1166 177 1182 116 c 128,-1,16
 1198 55 1198 55 1235 23 c 1,17,-1
 1235 0 l 1,18,-1
 985 0 l 1,19,20
 945 33 945 33 934 103 c 128,-1,21
 923 173 923 173 923 243 c 2,22,-1
 923 360 l 2,23,24
 923 472 923 472 858.5 538 c 128,-1,25
 794 604 794 604 683 604 c 2,26,-1
 396 604 l 1,0,-1
396 799 m 1,27,-1
 641 799 l 2,28,29
 787 799 787 799 854 855 c 128,-1,30
 921 911 921 911 921 1026 c 0,31,32
 921 1136 921 1136 855 1198.5 c 128,-1,33
 789 1261 789 1261 654 1261 c 2,34,-1
 396 1261 l 1,35,-1
 396 799 l 1,27,-1
EndSplineSet
Validated: 1
Substitution2: "'smcp' Lowercase to Small Capitals lookup 0 subtable" R.smcp
EndChar

StartChar: S
Encoding: 83 83 54
Width: 1259
GlyphClass: 1
Flags: W
LayerCount: 2
Fore
SplineSet
920 374 m 0,0,1
 920 465 920 465 855.5 523 c 128,-1,2
 791 581 791 581 627 627 c 0,3,4
 392 692 392 692 264.5 797.5 c 128,-1,5
 137 903 137 903 137 1073 c 0,6,7
 137 1249 137 1249 277 1363 c 128,-1,8
 417 1477 417 1477 637 1477 c 0,9,10
 873 1477 873 1477 1014.5 1350.5 c 128,-1,11
 1156 1224 1156 1224 1151 1038 c 1,12,-1
 1149 1032 l 1,13,-1
 915 1032 l 1,14,15
 915 1147 915 1147 838.5 1215 c 128,-1,16
 762 1283 762 1283 635 1283 c 0,17,18
 512 1283 512 1283 445.5 1225 c 128,-1,19
 379 1167 379 1167 379 1075 c 0,20,21
 379 991 379 991 452 936.5 c 128,-1,22
 525 882 525 882 694 833 c 0,23,24
 923 769 923 769 1043 658.5 c 128,-1,25
 1163 548 1163 548 1163 376 c 0,26,27
 1163 195 1163 195 1021 87 c 128,-1,28
 879 -21 879 -21 648 -21 c 0,29,30
 426 -21 426 -21 261 97 c 128,-1,31
 96 215 96 215 101 430 c 1,32,-1
 103 436 l 1,33,-1
 337 436 l 1,34,35
 337 305 337 305 427.5 238.5 c 128,-1,36
 518 172 518 172 648 172 c 0,37,38
 777 172 777 172 848.5 226.5 c 128,-1,39
 920 281 920 281 920 374 c 0,0,1
EndSplineSet
Validated: 33
Substitution2: "'smcp' Lowercase to Small Capitals lookup 0 subtable" S.smcp
EndChar

StartChar: T
Encoding: 84 84 55
Width: 1202
GlyphClass: 1
Flags: W
LayerCount: 2
Fore
SplineSet
1170 1261 m 1,0,-1
 720 1261 l 1,1,-1
 720 0 l 1,2,-1
 477 0 l 1,3,-1
 477 1261 l 1,4,-1
 34 1261 l 1,5,-1
 34 1456 l 1,6,-1
 1170 1456 l 1,7,-1
 1170 1261 l 1,0,-1
EndSplineSet
Validated: 1
Substitution2: "'smcp' Lowercase to Small Capitals lookup 0 subtable" T.smcp
EndChar

StartChar: U
Encoding: 85 85 56
Width: 1396
GlyphClass: 1
Flags: W
LayerCount: 2
Fore
SplineSet
1265 1456 m 1,0,-1
 1265 497 l 2,1,2
 1265 254 1265 254 1105.5 116.5 c 128,-1,3
 946 -21 946 -21 694 -21 c 0,4,5
 446 -21 446 -21 290 116.5 c 128,-1,6
 134 254 134 254 134 497 c 2,7,-1
 134 1456 l 1,8,-1
 377 1456 l 1,9,-1
 377 497 l 2,10,11
 377 342 377 342 464 257.5 c 128,-1,12
 551 173 551 173 694 173 c 0,13,14
 842 173 842 173 932 257.5 c 128,-1,15
 1022 342 1022 342 1022 497 c 2,16,-1
 1022 1456 l 1,17,-1
 1265 1456 l 1,0,-1
EndSplineSet
Validated: 1
Substitution2: "'smcp' Lowercase to Small Capitals lookup 0 subtable" U.smcp
EndChar

StartChar: V
Encoding: 86 86 57
Width: 1300
GlyphClass: 1
Flags: W
LayerCount: 2
Fore
SplineSet
621 395 m 1,0,-1
 647 289 l 1,1,-1
 653 289 l 1,2,-1
 678 393 l 1,3,-1
 1026 1456 l 1,4,-1
 1285 1456 l 1,5,-1
 765 0 l 1,6,-1
 534 0 l 1,7,-1
 15 1456 l 1,8,-1
 274 1456 l 1,9,-1
 621 395 l 1,0,-1
EndSplineSet
Validated: 1
Substitution2: "'smcp' Lowercase to Small Capitals lookup 0 subtable" V.smcp
EndChar

StartChar: W
Encoding: 87 87 58
Width: 1781
GlyphClass: 1
Flags: W
LayerCount: 2
Fore
SplineSet
1276 406 m 1,0,-1
 1282 406 l 1,1,-1
 1496 1456 l 1,2,-1
 1752 1456 l 1,3,-1
 1406 0 l 1,4,-1
 1185 0 l 1,5,-1
 894 1036 l 1,6,-1
 888 1036 l 1,7,-1
 596 0 l 1,8,-1
 374 0 l 1,9,-1
 29 1456 l 1,10,-1
 284 1456 l 1,11,-1
 500 407 l 1,12,-1
 506 407 l 1,13,-1
 783 1456 l 1,14,-1
 997 1456 l 1,15,-1
 1276 406 l 1,0,-1
EndSplineSet
Validated: 1
Substitution2: "'smcp' Lowercase to Small Capitals lookup 0 subtable" W.smcp
EndChar

StartChar: X
Encoding: 88 88 59
Width: 1300
GlyphClass: 1
Flags: W
LayerCount: 2
Fore
SplineSet
650 918 m 1,0,-1
 957 1456 l 1,1,-1
 1245 1456 l 1,2,-1
 797 734 l 1,3,-1
 1262 0 l 1,4,-1
 970 0 l 1,5,-1
 654 547 l 1,6,-1
 338 0 l 1,7,-1
 50 0 l 1,8,-1
 508 734 l 1,9,-1
 60 1456 l 1,10,-1
 346 1456 l 1,11,-1
 650 918 l 1,0,-1
EndSplineSet
Validated: 1
Substitution2: "'smcp' Lowercase to Small Capitals lookup 0 subtable" X.smcp
EndChar

StartChar: Y
Encoding: 89 89 60
Width: 1300
GlyphClass: 1
Flags: W
LayerCount: 2
Fore
SplineSet
648 748 m 1,0,-1
 999 1456 l 1,1,-1
 1270 1456 l 1,2,-1
 765 509 l 1,3,-1
 765 0 l 1,4,-1
 523 0 l 1,5,-1
 523 524 l 1,6,-1
 26 1456 l 1,7,-1
 297 1456 l 1,8,-1
 648 748 l 1,0,-1
EndSplineSet
Validated: 1
Substitution2: "'smcp' Lowercase to Small Capitals lookup 0 subtable" Y.smcp
EndChar

StartChar: Z
Encoding: 90 90 61
Width: 1196
GlyphClass: 1
Flags: W
LayerCount: 2
Fore
SplineSet
374 194 m 1,0,-1
 1113 194 l 1,1,-1
 1113 0 l 1,2,-1
 88 0 l 1,3,-1
 88 152 l 1,4,-1
 799 1261 l 1,5,-1
 94 1261 l 1,6,-1
 94 1456 l 1,7,-1
 1087 1456 l 1,8,-1
 1087 1310 l 1,9,-1
 374 194 l 1,0,-1
EndSplineSet
Validated: 1
Substitution2: "'smcp' Lowercase to Small Capitals lookup 0 subtable" Z.smcp
EndChar

StartChar: bracketleft
Encoding: 91 91 62
Width: 561
GlyphClass: 1
Flags: W
LayerCount: 2
Fore
SplineSet
540 1488 m 1,0,-1
 375 1488 l 1,1,-1
 375 -135 l 1,2,-1
 540 -135 l 1,3,-1
 540 -324 l 1,4,-1
 132 -324 l 1,5,-1
 132 1678 l 1,6,-1
 540 1678 l 1,7,-1
 540 1488 l 1,0,-1
EndSplineSet
Validated: 1
EndChar

StartChar: backslash
Encoding: 92 92 63
Width: 855
GlyphClass: 1
Flags: W
LayerCount: 2
Fore
SplineSet
21 1456 m 1,0,-1
 257 1456 l 1,1,-1
 865 -125 l 1,2,-1
 629 -125 l 1,3,-1
 21 1456 l 1,0,-1
EndSplineSet
Validated: 1
EndChar

StartChar: bracketright
Encoding: 93 93 64
Width: 561
GlyphClass: 1
Flags: W
LayerCount: 2
Fore
SplineSet
12 1678 m 1,0,-1
 422 1678 l 1,1,-1
 422 -324 l 1,2,-1
 12 -324 l 1,3,-1
 12 -135 l 1,4,-1
 179 -135 l 1,5,-1
 179 1488 l 1,6,-1
 12 1488 l 1,7,-1
 12 1678 l 1,0,-1
EndSplineSet
Validated: 1
EndChar

StartChar: asciicircum
Encoding: 94 94 65
Width: 875
GlyphClass: 1
Flags: W
LayerCount: 2
Fore
SplineSet
259 729 m 1,0,-1
 53 729 l 1,1,-1
 352 1456 l 1,2,-1
 523 1456 l 1,3,-1
 821 729 l 1,4,-1
 616 729 l 1,5,-1
 451 1142 l 1,6,-1
 439 1196 l 1,7,-1
 433 1196 l 1,8,-1
 421 1142 l 1,9,-1
 259 729 l 1,0,-1
EndSplineSet
Validated: 1
EndChar

StartChar: underscore
Encoding: 95 95 66
Width: 924
GlyphClass: 1
Flags: W
LayerCount: 2
Fore
SplineSet
920 -191 m 1,0,-1
 3 -191 l 1,1,-1
 3 0 l 1,2,-1
 920 0 l 1,3,-1
 920 -191 l 1,0,-1
EndSplineSet
Validated: 1
EndChar

StartChar: grave
Encoding: 96 96 67
Width: 660
GlyphClass: 1
Flags: W
LayerCount: 2
Fore
SplineSet
531 1252 m 1,0,-1
 329 1252 l 1,1,-1
 69 1512 l 1,2,-1
 71 1518 l 1,3,-1
 347 1518 l 1,4,-1
 531 1252 l 1,0,-1
EndSplineSet
Validated: 1
EndChar

StartChar: a
Encoding: 97 97 68
Width: 1114
GlyphClass: 1
Flags: W
LayerCount: 2
Fore
SplineSet
780 0 m 1,0,1
 767 41 767 41 758.5 80 c 128,-1,2
 750 119 750 119 747 158 c 1,3,4
 698 82 698 82 616 30.5 c 128,-1,5
 534 -21 534 -21 433 -21 c 0,6,7
 264 -21 264 -21 173.5 66 c 128,-1,8
 83 153 83 153 83 305 c 0,9,10
 83 462 83 462 207 549.5 c 128,-1,11
 331 637 331 637 556 637 c 2,12,-1
 745 637 l 1,13,-1
 745 732 l 2,14,15
 745 817 745 817 695.5 865 c 128,-1,16
 646 913 646 913 552 913 c 0,17,18
 469 913 469 913 420 873.5 c 128,-1,19
 371 834 371 834 371 771 c 1,20,-1
 137 770 l 1,21,-1
 136 776 l 1,22,23
 129 904 129 904 250.5 1003 c 128,-1,24
 372 1102 372 1102 567 1102 c 0,25,26
 756 1102 756 1102 872 1006 c 128,-1,27
 988 910 988 910 988 730 c 2,28,-1
 988 249 l 2,29,30
 988 182 988 182 997 120.5 c 128,-1,31
 1006 59 1006 59 1026 0 c 1,32,-1
 780 0 l 1,0,1
483 174 m 0,33,34
 574 174 574 174 647.5 220 c 128,-1,35
 721 266 721 266 745 325 c 1,36,-1
 745 485 l 1,37,-1
 552 485 l 2,38,39
 446 485 446 485 386 432.5 c 128,-1,40
 326 380 326 380 326 309 c 0,41,42
 326 247 326 247 366.5 210.5 c 128,-1,43
 407 174 407 174 483 174 c 0,33,34
EndSplineSet
Validated: 33
Substitution2: "'smcp' Lowercase to Small Capitals lookup 0 subtable" A.smcp
EndChar

StartChar: b
Encoding: 98 98 69
Width: 1160
GlyphClass: 1
Flags: W
LayerCount: 2
Fore
SplineSet
1078 505 m 2,0,1
 1078 268 1078 268 967.5 123.5 c 128,-1,2
 857 -21 857 -21 656 -21 c 0,3,4
 554 -21 554 -21 479 21 c 128,-1,5
 404 63 404 63 354 143 c 1,6,-1
 325 0 l 1,7,-1
 128 0 l 1,8,-1
 128 1560 l 1,9,-1
 371 1560 l 1,10,-1
 371 959 l 1,11,12
 421 1028 421 1028 491 1065 c 128,-1,13
 561 1102 561 1102 654 1102 c 0,14,15
 857 1102 857 1102 967.5 944 c 128,-1,16
 1078 786 1078 786 1078 526 c 2,17,-1
 1078 505 l 2,0,1
835 526 m 2,18,19
 835 695 835 695 777 799 c 128,-1,20
 719 903 719 903 593 903 c 0,21,22
 512 903 512 903 457.5 867 c 128,-1,23
 403 831 403 831 371 767 c 1,24,-1
 371 313 l 1,25,26
 402 248 402 248 457 212.5 c 128,-1,27
 512 177 512 177 595 177 c 0,28,29
 721 177 721 177 778 265.5 c 128,-1,30
 835 354 835 354 835 505 c 2,31,-1
 835 526 l 2,18,19
EndSplineSet
Validated: 1
Substitution2: "'smcp' Lowercase to Small Capitals lookup 0 subtable" B.smcp
EndChar

StartChar: c
Encoding: 99 99 70
Width: 1065
GlyphClass: 1
Flags: W
LayerCount: 2
Fore
SplineSet
569 173 m 0,0,1
 652 173 652 173 709.5 225 c 128,-1,2
 767 277 767 277 767 357 c 1,3,-1
 987 357 l 1,4,-1
 989 351 l 1,5,6
 993 199 993 199 868.5 89 c 128,-1,7
 744 -21 744 -21 569 -21 c 0,8,9
 335 -21 335 -21 208 133.5 c 128,-1,10
 81 288 81 288 81 523 c 2,11,-1
 81 558 l 2,12,13
 81 792 81 792 208 947 c 128,-1,14
 335 1102 335 1102 568 1102 c 0,15,16
 757 1102 757 1102 875 988.5 c 128,-1,17
 993 875 993 875 989 700 c 1,18,-1
 987 694 l 1,19,-1
 767 694 l 1,20,21
 767 783 767 783 712 845 c 128,-1,22
 657 907 657 907 568 907 c 0,23,24
 438 907 438 907 381 806.5 c 128,-1,25
 324 706 324 706 324 558 c 2,26,-1
 324 523 l 2,27,28
 324 372 324 372 380.5 272.5 c 128,-1,29
 437 173 437 173 569 173 c 0,0,1
EndSplineSet
Validated: 33
Substitution2: "'smcp' Lowercase to Small Capitals lookup 0 subtable" C.smcp
EndChar

StartChar: d
Encoding: 100 100 71
Width: 1160
GlyphClass: 1
Flags: W
LayerCount: 2
Fore
SplineSet
83 526 m 2,0,1
 83 785 83 785 194 943.5 c 128,-1,2
 305 1102 305 1102 506 1102 c 0,3,4
 594 1102 594 1102 663.5 1066.5 c 128,-1,5
 733 1031 733 1031 784 965 c 1,6,-1
 784 1560 l 1,7,-1
 1027 1560 l 1,8,-1
 1027 0 l 1,9,-1
 830 0 l 1,10,-1
 801 137 l 1,11,12
 749 60 749 60 675 19.5 c 128,-1,13
 601 -21 601 -21 504 -21 c 0,14,15
 305 -21 305 -21 194 124 c 128,-1,16
 83 269 83 269 83 505 c 2,17,-1
 83 526 l 2,0,1
326 505 m 2,18,19
 326 355 326 355 383.5 266 c 128,-1,20
 441 177 441 177 566 177 c 0,21,22
 643 177 643 177 696.5 210 c 128,-1,23
 750 243 750 243 784 304 c 1,24,-1
 784 776 l 1,25,26
 750 836 750 836 696 869.5 c 128,-1,27
 642 903 642 903 568 903 c 0,28,29
 444 903 444 903 385 798.5 c 128,-1,30
 326 694 326 694 326 526 c 2,31,-1
 326 505 l 2,18,19
EndSplineSet
Validated: 1
Substitution2: "'smcp' Lowercase to Small Capitals lookup 0 subtable" D.smcp
EndChar

StartChar: e
Encoding: 101 101 72
Width: 1072
GlyphClass: 1
Flags: W
LayerCount: 2
Fore
SplineSet
587 -21 m 0,0,1
 350 -21 350 -21 216.5 128.5 c 128,-1,2
 83 278 83 278 83 516 c 2,3,-1
 83 556 l 2,4,5
 83 794 83 794 216.5 948.5 c 128,-1,6
 350 1103 350 1103 561 1102 c 0,7,8
 779 1102 779 1102 891 967.5 c 128,-1,9
 1003 833 1003 833 1003 608 c 2,10,-1
 1003 477 l 1,11,-1
 334 477 l 1,12,-1
 332 472 l 1,13,14
 336 339 336 339 402 256 c 128,-1,15
 468 173 468 173 601 173 c 0,16,17
 700 173 700 173 772.5 197 c 128,-1,18
 845 221 845 221 907 266 c 1,19,-1
 986 107 l 1,20,21
 924 53 924 53 822 16 c 128,-1,22
 720 -21 720 -21 587 -21 c 0,0,1
561 907 m 0,23,24
 466 907 466 907 409 838.5 c 128,-1,25
 352 770 352 770 338 660 c 1,26,-1
 340 655 l 1,27,-1
 763 655 l 1,28,-1
 763 674 l 2,29,30
 763 778 763 778 714.5 842.5 c 128,-1,31
 666 907 666 907 561 907 c 0,23,24
EndSplineSet
Validated: 33
Substitution2: "'smcp' Lowercase to Small Capitals lookup 0 subtable" E.smcp
EndChar

StartChar: f
Encoding: 102 102 73
Width: 693
GlyphClass: 1
Flags: W
LayerCount: 2
Fore
SplineSet
207 0 m 1,0,-1
 207 902 l 1,1,-1
 42 902 l 1,2,-1
 42 1082 l 1,3,-1
 207 1082 l 1,4,-1
 207 1208 l 2,5,6
 207 1387 207 1387 304.5 1484 c 128,-1,7
 402 1581 402 1581 578 1581 c 0,8,9
 613 1581 613 1581 649 1575.5 c 128,-1,10
 685 1570 685 1570 730 1560 c 1,11,-1
 705 1372 l 1,12,13
 685 1376 685 1376 660.5 1379 c 128,-1,14
 636 1382 636 1382 608 1382 c 0,15,16
 529 1382 529 1382 489.5 1337 c 128,-1,17
 450 1292 450 1292 450 1208 c 2,18,-1
 450 1082 l 1,19,-1
 651 1082 l 1,20,-1
 651 902 l 1,21,-1
 450 902 l 1,22,-1
 450 0 l 1,23,-1
 207 0 l 1,0,-1
EndSplineSet
Validated: 1
Substitution2: "'smcp' Lowercase to Small Capitals lookup 0 subtable" F.smcp
EndChar

StartChar: g
Encoding: 103 103 74
Width: 1160
GlyphClass: 1
Flags: W
LayerCount: 2
Fore
SplineSet
90 526 m 2,0,1
 90 785 90 785 201 943.5 c 128,-1,2
 312 1102 312 1102 513 1102 c 0,3,4
 610 1102 610 1102 683.5 1060.5 c 128,-1,5
 757 1019 757 1019 808 941 c 1,6,-1
 832 1082 l 1,7,-1
 1034 1082 l 1,8,-1
 1034 0 l 2,9,10
 1034 -209 1034 -209 905 -323 c 128,-1,11
 776 -437 776 -437 539 -437 c 0,12,13
 460 -437 460 -437 368.5 -414.5 c 128,-1,14
 277 -392 277 -392 203 -355 c 1,15,-1
 242 -164 l 1,16,17
 304 -195 304 -195 380.5 -212.5 c 128,-1,18
 457 -230 457 -230 537 -230 c 0,19,20
 669 -230 669 -230 730 -173.5 c 128,-1,21
 791 -117 791 -117 791 0 c 2,22,-1
 791 111 l 1,23,24
 740 46 740 46 670.5 12.5 c 128,-1,25
 601 -21 601 -21 511 -21 c 0,26,27
 312 -21 312 -21 201 124 c 128,-1,28
 90 269 90 269 90 505 c 2,29,-1
 90 526 l 2,0,1
332 505 m 2,30,31
 332 355 332 355 390 266 c 128,-1,32
 448 177 448 177 573 177 c 0,33,34
 651 177 651 177 704.5 209.5 c 128,-1,35
 758 242 758 242 791 303 c 1,36,-1
 791 777 l 1,37,38
 757 836 757 836 703.5 869.5 c 128,-1,39
 650 903 650 903 575 903 c 0,40,41
 450 903 450 903 391 798.5 c 128,-1,42
 332 694 332 694 332 526 c 2,43,-1
 332 505 l 2,30,31
EndSplineSet
Validated: 1
Substitution2: "'smcp' Lowercase to Small Capitals lookup 0 subtable" G.smcp
EndChar

StartChar: h
Encoding: 104 104 75
Width: 1160
GlyphClass: 1
Flags: W
LayerCount: 2
Fore
SplineSet
368 942 m 1,0,1
 422 1018 422 1018 499.5 1060 c 128,-1,2
 577 1102 577 1102 671 1102 c 0,3,4
 843 1102 843 1102 939.5 993.5 c 128,-1,5
 1036 885 1036 885 1036 659 c 2,6,-1
 1036 0 l 1,7,-1
 793 0 l 1,8,-1
 793 661 l 2,9,10
 793 788 793 788 743.5 845.5 c 128,-1,11
 694 903 694 903 596 903 c 0,12,13
 518 903 518 903 461 875.5 c 128,-1,14
 404 848 404 848 368 799 c 1,15,-1
 368 0 l 1,16,-1
 125 0 l 1,17,-1
 125 1560 l 1,18,-1
 368 1560 l 1,19,-1
 368 942 l 1,0,1
EndSplineSet
Validated: 1
Substitution2: "'smcp' Lowercase to Small Capitals lookup 0 subtable" H.smcp
EndChar

StartChar: i
Encoding: 105 105 76
Width: 531
GlyphClass: 1
Flags: W
LayerCount: 2
Fore
SplineSet
387 0 m 1,0,-1
 144 0 l 1,1,-1
 144 1082 l 1,2,-1
 387 1082 l 1,3,-1
 387 0 l 1,0,-1
387 1347 m 1,4,-1
 144 1347 l 1,5,-1
 144 1560 l 1,6,-1
 387 1560 l 1,7,-1
 387 1347 l 1,4,-1
EndSplineSet
Validated: 1
Substitution2: "'smcp' Lowercase to Small Capitals lookup 0 subtable" I.smcp
EndChar

StartChar: j
Encoding: 106 106 77
Width: 537
GlyphClass: 1
Flags: W
LayerCount: 2
Fore
SplineSet
398 1082 m 1,0,-1
 398 -63 l 2,1,2
 398 -242 398 -242 305 -339.5 c 128,-1,3
 212 -437 212 -437 46 -437 c 0,4,5
 10 -437 10 -437 -19 -433 c 128,-1,6
 -48 -429 -48 -429 -80 -420 c 1,7,-1
 -66 -226 l 1,8,9
 -49 -231 -49 -231 -24 -234.5 c 128,-1,10
 1 -238 1 -238 22 -238 c 0,11,12
 84 -238 84 -238 119.5 -195.5 c 128,-1,13
 155 -153 155 -153 155 -63 c 2,14,-1
 155 1082 l 1,15,-1
 398 1082 l 1,0,-1
392 1350 m 1,16,-1
 149 1350 l 1,17,-1
 149 1560 l 1,18,-1
 392 1560 l 1,19,-1
 392 1350 l 1,16,-1
EndSplineSet
Validated: 1
Substitution2: "'smcp' Lowercase to Small Capitals lookup 0 subtable" J.smcp
EndChar

StartChar: k
Encoding: 107 107 78
Width: 1072
GlyphClass: 1
Flags: W
LayerCount: 2
Fore
SplineSet
461 473 m 1,0,-1
 371 473 l 1,1,-1
 371 0 l 1,2,-1
 129 0 l 1,3,-1
 129 1560 l 1,4,-1
 371 1560 l 1,5,-1
 371 668 l 1,6,-1
 454 668 l 1,7,-1
 747 1082 l 1,8,-1
 1032 1082 l 1,9,-1
 661 584 l 1,10,-1
 1073 0 l 1,11,-1
 790 0 l 1,12,-1
 461 473 l 1,0,-1
EndSplineSet
Validated: 1
Substitution2: "'smcp' Lowercase to Small Capitals lookup 0 subtable" K.smcp
EndChar

StartChar: l
Encoding: 108 108 79
Width: 531
GlyphClass: 1
Flags: W
LayerCount: 2
Fore
SplineSet
387 0 m 1,0,-1
 144 0 l 1,1,-1
 144 1560 l 1,2,-1
 387 1560 l 1,3,-1
 387 0 l 1,0,-1
EndSplineSet
Validated: 1
Substitution2: "'smcp' Lowercase to Small Capitals lookup 0 subtable" L.smcp
EndChar

StartChar: m
Encoding: 109 109 80
Width: 1781
GlyphClass: 1
Flags: W
LayerCount: 2
Fore
SplineSet
350 1082 m 1,0,-1
 363 941 l 1,1,2
 416 1018 416 1018 496 1060 c 128,-1,3
 576 1102 576 1102 681 1102 c 0,4,5
 787 1102 787 1102 863 1054 c 128,-1,6
 939 1006 939 1006 977 910 c 1,7,8
 1027 1000 1027 1000 1109 1051 c 128,-1,9
 1191 1102 1191 1102 1301 1102 c 0,10,11
 1464 1102 1464 1102 1558.5 988.5 c 128,-1,12
 1653 875 1653 875 1653 645 c 2,13,-1
 1653 0 l 1,14,-1
 1410 0 l 1,15,-1
 1410 646 l 2,16,17
 1410 788 1410 788 1362.5 845.5 c 128,-1,18
 1315 903 1315 903 1220 903 c 0,19,20
 1142 903 1142 903 1088 861 c 128,-1,21
 1034 819 1034 819 1010 748 c 1,22,23
 1010 733 1010 733 1011 722 c 128,-1,24
 1012 711 1012 711 1012 701 c 2,25,-1
 1012 0 l 1,26,-1
 769 0 l 1,27,-1
 769 646 l 2,28,29
 769 783 769 783 720.5 843 c 128,-1,30
 672 903 672 903 578 903 c 0,31,32
 504 903 504 903 452.5 874.5 c 128,-1,33
 401 846 401 846 371 794 c 1,34,-1
 371 0 l 1,35,-1
 128 0 l 1,36,-1
 128 1082 l 1,37,-1
 350 1082 l 1,0,-1
EndSplineSet
Validated: 1
Substitution2: "'smcp' Lowercase to Small Capitals lookup 0 subtable" M.smcp
EndChar

StartChar: n
Encoding: 110 110 81
Width: 1160
GlyphClass: 1
Flags: W
LayerCount: 2
Fore
SplineSet
348 1082 m 1,0,-1
 362 926 l 1,1,2
 415 1009 415 1009 495.5 1055.5 c 128,-1,3
 576 1102 576 1102 677 1102 c 0,4,5
 846 1102 846 1102 940.5 998 c 128,-1,6
 1035 894 1035 894 1035 673 c 2,7,-1
 1035 0 l 1,8,-1
 792 0 l 1,9,-1
 792 671 l 2,10,11
 792 797 792 797 743 850 c 128,-1,12
 694 903 694 903 595 903 c 0,13,14
 517 903 517 903 460 873.5 c 128,-1,15
 403 844 403 844 369 792 c 1,16,-1
 369 0 l 1,17,-1
 126 0 l 1,18,-1
 126 1082 l 1,19,-1
 348 1082 l 1,0,-1
EndSplineSet
Validated: 1
Substitution2: "'smcp' Lowercase to Small Capitals lookup 0 subtable" N.smcp
EndChar

StartChar: o
Encoding: 111 111 82
Width: 1160
GlyphClass: 1
Flags: W
LayerCount: 2
Fore
SplineSet
83 551 m 2,0,1
 83 793 83 793 215.5 947.5 c 128,-1,2
 348 1102 348 1102 578 1102 c 0,3,4
 811 1102 811 1102 943.5 947.5 c 128,-1,5
 1076 793 1076 793 1076 551 c 2,6,-1
 1076 530 l 2,7,8
 1076 286 1076 286 943.5 132.5 c 128,-1,9
 811 -21 811 -21 580 -21 c 0,10,11
 348 -21 348 -21 215.5 133 c 128,-1,12
 83 287 83 287 83 530 c 2,13,-1
 83 551 l 2,0,1
326 530 m 2,14,15
 326 371 326 371 388 272 c 128,-1,16
 450 173 450 173 580 173 c 0,17,18
 707 173 707 173 770.5 272.5 c 128,-1,19
 834 372 834 372 834 530 c 2,20,-1
 834 551 l 2,21,22
 834 706 834 706 770.5 806.5 c 128,-1,23
 707 907 707 907 578 907 c 0,24,25
 451 907 451 907 388.5 806.5 c 128,-1,26
 326 706 326 706 326 551 c 2,27,-1
 326 530 l 2,14,15
EndSplineSet
Validated: 1
Substitution2: "'smcp' Lowercase to Small Capitals lookup 0 subtable" O.smcp
EndChar

StartChar: p
Encoding: 112 112 83
Width: 1160
GlyphClass: 1
Flags: W
LayerCount: 2
Fore
SplineSet
1076 505 m 2,0,1
 1076 269 1076 269 965 124 c 128,-1,2
 854 -21 854 -21 656 -21 c 0,3,4
 564 -21 564 -21 493 12 c 128,-1,5
 422 45 422 45 371 109 c 1,6,-1
 371 -416 l 1,7,-1
 128 -416 l 1,8,-1
 128 1082 l 1,9,-1
 333 1082 l 1,10,-1
 357 946 l 1,11,12
 409 1022 409 1022 482.5 1062 c 128,-1,13
 556 1102 556 1102 653 1102 c 0,14,15
 853 1102 853 1102 964.5 943.5 c 128,-1,16
 1076 785 1076 785 1076 526 c 2,17,-1
 1076 505 l 2,0,1
834 526 m 2,18,19
 834 692 834 692 771.5 797.5 c 128,-1,20
 709 903 709 903 585 903 c 0,21,22
 509 903 509 903 456 870.5 c 128,-1,23
 403 838 403 838 371 780 c 1,24,-1
 371 291 l 1,25,26
 403 234 403 234 456 203.5 c 128,-1,27
 509 173 509 173 587 173 c 0,28,29
 711 173 711 173 772.5 264.5 c 128,-1,30
 834 356 834 356 834 505 c 2,31,-1
 834 526 l 2,18,19
EndSplineSet
Validated: 1
Substitution2: "'smcp' Lowercase to Small Capitals lookup 0 subtable" P.smcp
EndChar

StartChar: q
Encoding: 113 113 84
Width: 1160
GlyphClass: 1
Flags: W
LayerCount: 2
Fore
SplineSet
83 526 m 2,0,1
 83 785 83 785 194 943.5 c 128,-1,2
 305 1102 305 1102 506 1102 c 0,3,4
 600 1102 600 1102 672 1063 c 128,-1,5
 744 1024 744 1024 795 951 c 1,6,-1
 823 1082 l 1,7,-1
 1020 1082 l 1,8,-1
 1020 -416 l 1,9,-1
 777 -416 l 1,10,-1
 777 102 l 1,11,12
 727 41 727 41 659 10 c 128,-1,13
 591 -21 591 -21 504 -21 c 0,14,15
 305 -21 305 -21 194 124 c 128,-1,16
 83 269 83 269 83 505 c 2,17,-1
 83 526 l 2,0,1
326 505 m 2,18,19
 326 355 326 355 383.5 264 c 128,-1,20
 441 173 441 173 566 173 c 0,21,22
 640 173 640 173 691.5 202.5 c 128,-1,23
 743 232 743 232 777 288 c 1,24,-1
 777 792 l 1,25,26
 743 846 743 846 691 876.5 c 128,-1,27
 639 907 639 907 568 907 c 0,28,29
 444 907 444 907 385 800.5 c 128,-1,30
 326 694 326 694 326 526 c 2,31,-1
 326 505 l 2,18,19
EndSplineSet
Validated: 1
Substitution2: "'smcp' Lowercase to Small Capitals lookup 0 subtable" Q.smcp
EndChar

StartChar: r
Encoding: 114 114 85
Width: 719
GlyphClass: 1
Flags: W
LayerCount: 2
Fore
SplineSet
667 863 m 1,0,-1
 563 867 l 2,1,2
 492 867 492 867 444.5 837 c 128,-1,3
 397 807 397 807 371 752 c 1,4,-1
 371 0 l 1,5,-1
 128 0 l 1,6,-1
 128 1082 l 1,7,-1
 350 1082 l 1,8,-1
 366 925 l 1,9,10
 407 1008 407 1008 471.5 1055 c 128,-1,11
 536 1102 536 1102 620 1102 c 0,12,13
 642 1102 642 1102 661 1098.5 c 128,-1,14
 680 1095 680 1095 696 1090 c 1,15,-1
 667 863 l 1,0,-1
EndSplineSet
Validated: 1
Substitution2: "'smcp' Lowercase to Small Capitals lookup 0 subtable" R.smcp
EndChar

StartChar: s
Encoding: 115 115 86
Width: 1065
GlyphClass: 1
Flags: W
LayerCount: 2
Fore
SplineSet
736 296 m 0,0,1
 736 352 736 352 688.5 388.5 c 128,-1,2
 641 425 641 425 509 454 c 0,3,4
 318 493 318 493 217 569 c 128,-1,5
 116 645 116 645 116 773 c 0,6,7
 116 909 116 909 231 1005.5 c 128,-1,8
 346 1102 346 1102 534 1102 c 0,9,10
 728 1102 728 1102 846.5 1002.5 c 128,-1,11
 965 903 965 903 960 763 c 1,12,-1
 958 757 l 1,13,-1
 725 757 l 1,14,15
 725 823 725 823 673 871.5 c 128,-1,16
 621 920 621 920 534 920 c 0,17,18
 446 920 446 920 400 880 c 128,-1,19
 354 840 354 840 354 782 c 0,20,21
 354 727 354 727 397 694 c 128,-1,22
 440 661 440 661 574 635 c 0,23,24
 773 595 773 595 874 517.5 c 128,-1,25
 975 440 975 440 975 310 c 0,26,27
 975 164 975 164 854.5 71.5 c 128,-1,28
 734 -21 734 -21 537 -21 c 0,29,30
 326 -21 326 -21 204 87 c 128,-1,31
 82 195 82 195 88 335 c 1,32,-1
 90 341 l 1,33,-1
 316 341 l 1,34,35
 320 247 320 247 384 204 c 128,-1,36
 448 161 448 161 540 161 c 0,37,38
 633 161 633 161 684.5 198 c 128,-1,39
 736 235 736 235 736 296 c 0,0,1
EndSplineSet
Validated: 33
Substitution2: "'smcp' Lowercase to Small Capitals lookup 0 subtable" S.smcp
EndChar

StartChar: t
Encoding: 116 116 87
Width: 701
GlyphClass: 1
Flags: W
LayerCount: 2
Fore
SplineSet
439 1345 m 1,0,-1
 439 1082 l 1,1,-1
 633 1082 l 1,2,-1
 633 902 l 1,3,-1
 439 902 l 1,4,-1
 439 304 l 2,5,6
 439 237 439 237 468 208.5 c 128,-1,7
 497 180 497 180 545 180 c 0,8,9
 565 180 565 180 584 183.5 c 128,-1,10
 603 187 603 187 620 193 c 1,11,-1
 646 15 l 1,12,13
 615 -2 615 -2 572.5 -11.5 c 128,-1,14
 530 -21 530 -21 484 -21 c 0,15,16
 350 -21 350 -21 273.5 57.5 c 128,-1,17
 197 136 197 136 197 304 c 2,18,-1
 197 902 l 1,19,-1
 32 902 l 1,20,-1
 32 1082 l 1,21,-1
 197 1082 l 1,22,-1
 197 1345 l 1,23,-1
 439 1345 l 1,0,-1
EndSplineSet
Validated: 1
Substitution2: "'smcp' Lowercase to Small Capitals lookup 0 subtable" T.smcp
EndChar

StartChar: u
Encoding: 117 117 88
Width: 1160
GlyphClass: 1
Flags: W
LayerCount: 2
Fore
SplineSet
803 160 m 1,0,1
 753 73 753 73 674.5 26 c 128,-1,2
 596 -21 596 -21 493 -21 c 0,3,4
 319 -21 319 -21 221 93.5 c 128,-1,5
 123 208 123 208 123 449 c 2,6,-1
 123 1082 l 1,7,-1
 365 1082 l 1,8,-1
 365 447 l 2,9,10
 365 292 365 292 410 234.5 c 128,-1,11
 455 177 455 177 550 177 c 0,12,13
 638 177 638 177 697.5 208.5 c 128,-1,14
 757 240 757 240 791 300 c 1,15,-1
 791 1082 l 1,16,-1
 1034 1082 l 1,17,-1
 1034 0 l 1,18,-1
 825 0 l 1,19,-1
 803 160 l 1,0,1
EndSplineSet
Validated: 1
Substitution2: "'smcp' Lowercase to Small Capitals lookup 0 subtable" U.smcp
EndChar

StartChar: v
Encoding: 118 118 89
Width: 1038
GlyphClass: 1
Flags: W
LayerCount: 2
Fore
SplineSet
504 366 m 1,0,-1
 522 278 l 1,1,-1
 528 278 l 1,2,-1
 547 366 l 1,3,-1
 762 1082 l 1,4,-1
 1013 1082 l 1,5,-1
 629 0 l 1,6,-1
 418 0 l 1,7,-1
 32 1082 l 1,8,-1
 283 1082 l 1,9,-1
 504 366 l 1,0,-1
EndSplineSet
Validated: 1
Substitution2: "'smcp' Lowercase to Small Capitals lookup 0 subtable" V.smcp
EndChar

StartChar: w
Encoding: 119 119 90
Width: 1530
GlyphClass: 1
Flags: W
LayerCount: 2
Fore
SplineSet
1081 321 m 1,0,-1
 1087 321 l 1,1,-1
 1245 1082 l 1,2,-1
 1488 1082 l 1,3,-1
 1192 0 l 1,4,-1
 993 0 l 1,5,-1
 764 716 l 1,6,-1
 758 716 l 1,7,-1
 532 0 l 1,8,-1
 333 0 l 1,9,-1
 37 1082 l 1,10,-1
 280 1082 l 1,11,-1
 442 331 l 1,12,-1
 448 331 l 1,13,-1
 674 1082 l 1,14,-1
 851 1082 l 1,15,-1
 1081 321 l 1,0,-1
EndSplineSet
Validated: 1
Substitution2: "'smcp' Lowercase to Small Capitals lookup 0 subtable" W.smcp
EndChar

StartChar: x
Encoding: 120 120 91
Width: 1038
GlyphClass: 1
Flags: W
LayerCount: 2
Fore
SplineSet
516 711 m 1,0,-1
 716 1082 l 1,1,-1
 995 1082 l 1,2,-1
 655 547 l 1,3,-1
 1005 0 l 1,4,-1
 729 0 l 1,5,-1
 520 380 l 1,6,-1
 311 0 l 1,7,-1
 33 0 l 1,8,-1
 383 547 l 1,9,-1
 43 1082 l 1,10,-1
 319 1082 l 1,11,-1
 516 711 l 1,0,-1
EndSplineSet
Validated: 1
Substitution2: "'smcp' Lowercase to Small Capitals lookup 0 subtable" X.smcp
EndChar

StartChar: y
Encoding: 121 121 92
Width: 1038
GlyphClass: 1
Flags: W
LayerCount: 2
Fore
SplineSet
487 434 m 1,0,-1
 511 326 l 1,1,-1
 517 326 l 1,2,-1
 754 1082 l 1,3,-1
 1020 1082 l 1,4,-1
 572 -164 l 2,5,6
 529 -277 529 -277 451 -357 c 128,-1,7
 373 -437 373 -437 230 -437 c 0,8,9
 200 -437 200 -437 165.5 -431 c 128,-1,10
 131 -425 131 -425 99 -417 c 1,11,-1
 126 -229 l 1,12,13
 139 -230 139 -230 163 -232 c 128,-1,14
 187 -234 187 -234 199 -234 c 0,15,16
 265 -234 265 -234 304.5 -189 c 128,-1,17
 344 -144 344 -144 369 -85 c 2,18,-1
 409 13 l 1,19,-1
 16 1082 l 1,20,-1
 281 1082 l 1,21,-1
 487 434 l 1,0,-1
EndSplineSet
Validated: 1
Substitution2: "'smcp' Lowercase to Small Capitals lookup 0 subtable" Y.smcp
EndChar

StartChar: z
Encoding: 122 122 93
Width: 1038
GlyphClass: 1
Flags: W
LayerCount: 2
Fore
SplineSet
386 194 m 1,0,-1
 964 194 l 1,1,-1
 964 0 l 1,2,-1
 85 0 l 1,3,-1
 85 159 l 1,4,-1
 631 886 l 1,5,-1
 96 886 l 1,6,-1
 96 1082 l 1,7,-1
 938 1082 l 1,8,-1
 938 928 l 1,9,-1
 386 194 l 1,0,-1
EndSplineSet
Validated: 1
Substitution2: "'smcp' Lowercase to Small Capitals lookup 0 subtable" Z.smcp
EndChar

StartChar: braceleft
Encoding: 123 123 94
Width: 687
GlyphClass: 1
Flags: W
LayerCount: 2
Fore
SplineSet
609 -360 m 1,0,1
 414 -305 414 -305 331.5 -185 c 128,-1,2
 249 -65 249 -65 249 106 c 2,3,-1
 249 309 l 2,4,5
 249 413 249 413 201.5 471 c 128,-1,6
 154 529 154 529 56 529 c 1,7,-1
 56 707 l 1,8,9
 154 707 154 707 201.5 765 c 128,-1,10
 249 823 249 823 249 929 c 2,11,-1
 249 1132 l 2,12,13
 249 1303 249 1303 331.5 1422.5 c 128,-1,14
 414 1542 414 1542 609 1597 c 1,15,-1
 657 1457 l 1,16,17
 559 1424 559 1424 518.5 1340 c 128,-1,18
 478 1256 478 1256 478 1132 c 2,19,-1
 478 929 l 2,20,21
 478 825 478 825 435 744.5 c 128,-1,22
 392 664 392 664 305 619 c 1,23,24
 392 572 392 572 435 491.5 c 128,-1,25
 478 411 478 411 478 309 c 2,26,-1
 478 106 l 2,27,28
 478 -18 478 -18 518.5 -102 c 128,-1,29
 559 -186 559 -186 657 -219 c 1,30,-1
 609 -360 l 1,0,1
EndSplineSet
Validated: 1
EndChar

StartChar: bar
Encoding: 124 124 95
Width: 514
GlyphClass: 1
Flags: W
LayerCount: 2
Fore
SplineSet
358 -270 m 1,0,-1
 144 -270 l 1,1,-1
 144 1456 l 1,2,-1
 358 1456 l 1,3,-1
 358 -270 l 1,0,-1
EndSplineSet
Validated: 1
EndChar

StartChar: braceright
Encoding: 125 125 96
Width: 687
GlyphClass: 1
Flags: W
LayerCount: 2
Fore
SplineSet
27 -219 m 1,0,1
 124 -186 124 -186 165.5 -102 c 128,-1,2
 207 -18 207 -18 207 106 c 2,3,-1
 207 309 l 2,4,5
 207 414 207 414 251.5 494 c 128,-1,6
 296 574 296 574 389 618 c 1,7,8
 296 661 296 661 251.5 741.5 c 128,-1,9
 207 822 207 822 207 929 c 2,10,-1
 207 1132 l 2,11,12
 207 1256 207 1256 165.5 1340 c 128,-1,13
 124 1424 124 1424 27 1457 c 1,14,-1
 75 1597 l 1,15,16
 269 1542 269 1542 352 1422.5 c 128,-1,17
 435 1303 435 1303 435 1132 c 2,18,-1
 435 929 l 2,19,20
 435 823 435 823 482 765 c 128,-1,21
 529 707 529 707 629 707 c 1,22,-1
 629 529 l 1,23,24
 529 529 529 529 482 471 c 128,-1,25
 435 413 435 413 435 309 c 2,26,-1
 435 106 l 2,27,28
 435 -65 435 -65 352 -185 c 128,-1,29
 269 -305 269 -305 75 -360 c 1,30,-1
 27 -219 l 1,0,1
EndSplineSet
Validated: 1
EndChar

StartChar: asciitilde
Encoding: 126 126 97
Width: 1361
GlyphClass: 1
Flags: W
LayerCount: 2
Fore
SplineSet
1244 750 m 1,0,1
 1244 599 1244 599 1156 493 c 128,-1,2
 1068 387 1068 387 935 387 c 0,3,4
 848 387 848 387 775.5 419.5 c 128,-1,5
 703 452 703 452 620 523 c 0,6,7
 565 569 565 569 521 591 c 128,-1,8
 477 613 477 613 431 613 c 0,9,10
 371 613 371 613 329 561.5 c 128,-1,11
 287 510 287 510 287 438 c 1,12,-1
 117 460 l 1,13,14
 117 610 117 610 203 712.5 c 128,-1,15
 289 815 289 815 424 815 c 0,16,17
 510 815 510 815 585.5 781.5 c 128,-1,18
 661 748 661 748 741 680 c 0,19,20
 795 632 795 632 838 611 c 128,-1,21
 881 590 881 590 928 590 c 0,22,23
 987 590 987 590 1030 644.5 c 128,-1,24
 1073 699 1073 699 1073 773 c 1,25,-1
 1244 750 l 1,0,1
EndSplineSet
Validated: 1
EndChar

StartChar: exclamdown
Encoding: 161 161 99
Width: 542
GlyphClass: 1
Flags: W
LayerCount: 2
Fore
SplineSet
386 -374 m 1,0,-1
 143 -374 l 1,1,-1
 143 590 l 1,2,-1
 386 590 l 1,3,-1
 386 -374 l 1,0,-1
386 847 m 1,4,-1
 143 847 l 1,5,-1
 143 1082 l 1,6,-1
 386 1082 l 1,7,-1
 386 847 l 1,4,-1
EndSplineSet
Validated: 1
EndChar

StartChar: cent
Encoding: 162 162 100
Width: 1149
GlyphClass: 1
Flags: W
LayerCount: 2
Fore
SplineSet
569 173 m 0,0,1
 652 173 652 173 709.5 225 c 128,-1,2
 767 277 767 277 767 357 c 1,3,-1
 988 357 l 1,4,-1
 990 352 l 1,5,6
 993 227 993 227 907 127.5 c 128,-1,7
 821 28 821 28 687 -6 c 1,8,-1
 687 -245 l 1,9,-1
 487 -245 l 1,10,-1
 487 -15 l 1,11,12
 291 12 291 12 186 161 c 128,-1,13
 81 310 81 310 81 523 c 2,14,-1
 81 558 l 2,15,16
 81 770 81 770 186 919 c 128,-1,17
 291 1068 291 1068 487 1096 c 1,18,-1
 487 1318 l 1,19,-1
 687 1318 l 1,20,-1
 687 1088 l 1,21,22
 827 1054 827 1054 911 948 c 128,-1,23
 995 842 995 842 995 694 c 1,24,-1
 767 694 l 1,25,26
 767 783 767 783 712 845 c 128,-1,27
 657 907 657 907 568 907 c 0,28,29
 438 907 438 907 381 806.5 c 128,-1,30
 324 706 324 706 324 558 c 2,31,-1
 324 523 l 2,32,33
 324 372 324 372 380.5 272.5 c 128,-1,34
 437 173 437 173 569 173 c 0,0,1
EndSplineSet
Validated: 33
EndChar

StartChar: sterling
Encoding: 163 163 101
Width: 1205
GlyphClass: 1
Flags: W
LayerCount: 2
Fore
SplineSet
487 599 m 1,0,-1
 492 486 l 2,1,2
 492 404 492 404 469.5 328 c 128,-1,3
 447 252 447 252 405 194 c 1,4,-1
 1131 194 l 1,5,-1
 1130 0 l 1,6,-1
 144 0 l 1,7,-1
 144 194 l 1,8,-1
 154 194 l 1,9,10
 201 207 201 207 224.5 295.5 c 128,-1,11
 248 384 248 384 248 478 c 2,12,-1
 243 599 l 1,13,-1
 81 599 l 1,14,-1
 81 795 l 1,15,-1
 236 795 l 1,16,-1
 227 1033 l 1,17,18
 227 1240 227 1240 343 1358.5 c 128,-1,19
 459 1477 459 1477 654 1477 c 0,20,21
 861 1477 861 1477 975 1368.5 c 128,-1,22
 1089 1260 1089 1260 1085 1082 c 1,23,-1
 1083 1076 l 1,24,-1
 848 1076 l 1,25,26
 848 1181 848 1181 793.5 1231.5 c 128,-1,27
 739 1282 739 1282 654 1282 c 0,28,29
 568 1282 568 1282 519 1216.5 c 128,-1,30
 470 1151 470 1151 470 1033 c 1,31,-1
 479 795 l 1,32,-1
 868 795 l 1,33,-1
 868 599 l 1,34,-1
 487 599 l 1,0,-1
EndSplineSet
Validated: 33
EndChar

StartChar: currency
Encoding: 164 164 102
Width: 1437
GlyphClass: 1
Flags: W
LayerCount: 2
Fore
SplineSet
1085 107 m 1,0,1
 1008 46 1008 46 915.5 13 c 128,-1,2
 823 -20 823 -20 723 -20 c 0,3,4
 622 -20 622 -20 530 12.5 c 128,-1,5
 438 45 438 45 363 106 c 1,6,-1
 234 -26 l 1,7,-1
 93 118 l 1,8,-1
 228 255 l 1,9,10
 179 331 179 331 153.5 420.5 c 128,-1,11
 128 510 128 510 128 608 c 0,12,13
 128 709 128 709 156 801.5 c 128,-1,14
 184 894 184 894 237 973 c 1,15,-1
 93 1120 l 1,16,-1
 234 1264 l 1,17,-1
 376 1119 l 1,18,19
 450 1174 450 1174 538 1204 c 128,-1,20
 626 1234 626 1234 723 1234 c 0,21,22
 819 1234 819 1234 908 1203.5 c 128,-1,23
 997 1173 997 1173 1072 1117 c 1,24,-1
 1217 1265 l 1,25,-1
 1359 1120 l 1,26,-1
 1211 969 l 1,27,28
 1262 891 1262 891 1290 799.5 c 128,-1,29
 1318 708 1318 708 1318 608 c 0,30,31
 1318 511 1318 511 1292.5 422.5 c 128,-1,32
 1267 334 1267 334 1220 259 c 1,33,-1
 1359 118 l 1,34,-1
 1217 -27 l 1,35,-1
 1085 107 l 1,0,1
313 608 m 0,36,37
 313 423 313 423 432.5 294 c 128,-1,38
 552 165 552 165 723 165 c 0,39,40
 893 165 893 165 1012.5 294 c 128,-1,41
 1132 423 1132 423 1132 608 c 0,42,43
 1132 792 1132 792 1012.5 920 c 128,-1,44
 893 1048 893 1048 723 1048 c 0,45,46
 552 1048 552 1048 432.5 920 c 128,-1,47
 313 792 313 792 313 608 c 0,36,37
EndSplineSet
Validated: 1
EndChar

StartChar: yen
Encoding: 165 165 103
Width: 1248
GlyphClass: 1
Flags: W
LayerCount: 2
Fore
SplineSet
620 816 m 1,0,-1
 943 1456 l 1,1,-1
 1214 1456 l 1,2,-1
 817 742 l 1,3,-1
 1093 742 l 1,4,-1
 1093 595 l 1,5,-1
 738 595 l 1,6,-1
 738 452 l 1,7,-1
 1093 452 l 1,8,-1
 1093 306 l 1,9,-1
 738 306 l 1,10,-1
 738 0 l 1,11,-1
 495 0 l 1,12,-1
 495 306 l 1,13,-1
 138 306 l 1,14,-1
 138 452 l 1,15,-1
 495 452 l 1,16,-1
 495 595 l 1,17,-1
 138 595 l 1,18,-1
 138 742 l 1,19,-1
 425 742 l 1,20,-1
 26 1456 l 1,21,-1
 298 1456 l 1,22,-1
 620 816 l 1,0,-1
EndSplineSet
Validated: 1
EndChar

StartChar: brokenbar
Encoding: 166 166 104
Width: 508
GlyphClass: 1
Flags: W
LayerCount: 2
Fore
SplineSet
136 -270 m 1,0,-1
 136 525 l 1,1,-1
 365 525 l 1,2,-1
 365 -270 l 1,3,-1
 136 -270 l 1,0,-1
365 698 m 1,4,-1
 136 698 l 1,5,-1
 136 1456 l 1,6,-1
 365 1456 l 1,7,-1
 365 698 l 1,4,-1
EndSplineSet
Validated: 1
EndChar

StartChar: section
Encoding: 167 167 105
Width: 1272
GlyphClass: 1
Flags: W
LayerCount: 2
Fore
SplineSet
1164 455 m 0,0,1
 1164 362 1164 362 1119.5 293 c 128,-1,2
 1075 224 1075 224 993 182 c 1,3,4
 1060 132 1060 132 1094 63 c 128,-1,5
 1128 -6 1128 -6 1128 -103 c 0,6,7
 1128 -278 1128 -278 991.5 -377 c 128,-1,8
 855 -476 855 -476 624 -476 c 0,9,10
 398 -476 398 -476 245 -375 c 128,-1,11
 92 -274 92 -274 97 -56 c 1,12,-1
 99 -50 l 1,13,-1
 332 -49 l 1,14,15
 332 -171 332 -171 417 -226 c 128,-1,16
 502 -281 502 -281 624 -281 c 256,17,18
 746 -281 746 -281 816 -231.5 c 128,-1,19
 886 -182 886 -182 886 -105 c 256,20,21
 886 -28 886 -28 819 17 c 128,-1,22
 752 62 752 62 565 118 c 1,23,24
 323 182 323 182 208.5 275 c 128,-1,25
 94 368 94 368 94 542 c 0,26,27
 94 632 94 632 137.5 702 c 128,-1,28
 181 772 181 772 263 816 c 1,29,30
 196 866 196 866 163 935.5 c 128,-1,31
 130 1005 130 1005 130 1102 c 0,32,33
 130 1271 130 1271 267.5 1374 c 128,-1,34
 405 1477 405 1477 635 1477 c 0,35,36
 873 1477 873 1477 1007 1365.5 c 128,-1,37
 1141 1254 1141 1254 1136 1053 c 1,38,-1
 1134 1047 l 1,39,-1
 900 1047 l 1,40,41
 900 1148 900 1148 830 1215 c 128,-1,42
 760 1282 760 1282 635 1282 c 0,43,44
 505 1282 505 1282 439 1231.5 c 128,-1,45
 373 1181 373 1181 373 1104 c 0,46,47
 373 1018 373 1018 434 975 c 128,-1,48
 495 932 495 932 691 880 c 0,49,50
 935 814 935 814 1049.5 721.5 c 128,-1,51
 1164 629 1164 629 1164 455 c 0,0,1
601 673 m 0,52,53
 559 683 559 683 520 695.5 c 128,-1,54
 481 708 481 708 444 722 c 1,55,56
 389 701 389 701 362.5 658.5 c 128,-1,57
 336 616 336 616 336 558 c 0,58,59
 336 469 336 469 398 423.5 c 128,-1,60
 460 378 460 378 654 323 c 0,61,62
 707 307 707 307 742 296.5 c 128,-1,63
 777 286 777 286 809 275 c 1,64,65
 864 297 864 297 894 339.5 c 128,-1,66
 924 382 924 382 924 439 c 0,67,68
 924 519 924 519 856 567.5 c 128,-1,69
 788 616 788 616 601 673 c 0,52,53
EndSplineSet
Validated: 33
EndChar

StartChar: dieresis
Encoding: 168 168 106
Width: 1054
GlyphClass: 1
Flags: W
LayerCount: 2
Fore
SplineSet
889 1252 m 1,0,-1
 647 1252 l 1,1,-1
 647 1456 l 1,2,-1
 889 1456 l 1,3,-1
 889 1252 l 1,0,-1
405 1252 m 1,4,-1
 164 1252 l 1,5,-1
 164 1456 l 1,6,-1
 405 1456 l 1,7,-1
 405 1252 l 1,4,-1
EndSplineSet
Validated: 1
EndChar

StartChar: copyright
Encoding: 169 169 107
Width: 1604
GlyphClass: 1
Flags: W
LayerCount: 2
Fore
SplineSet
1110 596 m 1,0,-1
 1112 590 l 1,1,2
 1116 439 1116 439 1028 360.5 c 128,-1,3
 940 282 940 282 783 282 c 0,4,5
 623 282 623 282 528.5 388 c 128,-1,6
 434 494 434 494 434 669 c 2,7,-1
 434 788 l 2,8,9
 434 961 434 961 528.5 1068 c 128,-1,10
 623 1175 623 1175 783 1175 c 0,11,12
 940 1175 940 1175 1028.5 1095.5 c 128,-1,13
 1117 1016 1117 1016 1113 867 c 1,14,-1
 1111 861 l 1,15,-1
 963 861 l 1,16,17
 963 955 963 955 918 997.5 c 128,-1,18
 873 1040 873 1040 783 1040 c 0,19,20
 689 1040 689 1040 638.5 971 c 128,-1,21
 588 902 588 902 588 789 c 2,22,-1
 588 669 l 2,23,24
 588 554 588 554 638.5 485.5 c 128,-1,25
 689 417 689 417 783 417 c 0,26,27
 873 417 873 417 917.5 458.5 c 128,-1,28
 962 500 962 500 962 596 c 1,29,-1
 1110 596 l 1,0,-1
209 729 m 0,30,31
 209 465 209 465 380.5 284.5 c 128,-1,32
 552 104 552 104 797 104 c 0,33,34
 1041 104 1041 104 1212.5 284.5 c 128,-1,35
 1384 465 1384 465 1384 729 c 0,36,37
 1384 992 1384 992 1212.5 1171.5 c 128,-1,38
 1041 1351 1041 1351 797 1351 c 0,39,40
 551 1351 551 1351 380 1171.5 c 128,-1,41
 209 992 209 992 209 729 c 0,30,31
87 729 m 0,42,43
 87 1044 87 1044 294 1260 c 128,-1,44
 501 1476 501 1476 797 1476 c 0,45,46
 1092 1476 1092 1476 1299 1260 c 128,-1,47
 1506 1044 1506 1044 1506 729 c 0,48,49
 1506 413 1506 413 1298.5 196 c 128,-1,50
 1091 -21 1091 -21 797 -21 c 0,51,52
 501 -21 501 -21 294 196 c 128,-1,53
 87 413 87 413 87 729 c 0,42,43
EndSplineSet
Validated: 33
EndChar

StartChar: ordfeminine
Encoding: 170 170 108
Width: 913
GlyphClass: 1
Flags: W
LayerCount: 2
Fore
SplineSet
608 706 m 1,0,1
 600 727 600 727 595 750.5 c 128,-1,2
 590 774 590 774 587 800 c 1,3,4
 554 753 554 753 498.5 722.5 c 128,-1,5
 443 692 443 692 365 692 c 0,6,7
 246 692 246 692 181 753 c 128,-1,8
 116 814 116 814 116 920 c 0,9,10
 116 1031 116 1031 200.5 1091 c 128,-1,11
 285 1151 285 1151 447 1151 c 2,12,-1
 584 1151 l 1,13,-1
 584 1202 l 2,14,15
 584 1264 584 1264 554.5 1296.5 c 128,-1,16
 525 1329 525 1329 468 1329 c 0,17,18
 402 1329 402 1329 366 1303 c 128,-1,19
 330 1277 330 1277 330 1230 c 1,20,-1
 165 1243 l 1,21,-1
 164 1249 l 1,22,23
 158 1347 158 1347 243 1412 c 128,-1,24
 328 1477 328 1477 468 1477 c 0,25,26
 602 1477 602 1477 680.5 1406 c 128,-1,27
 759 1335 759 1335 759 1201 c 2,28,-1
 759 887 l 2,29,30
 759 836 759 836 765 792 c 128,-1,31
 771 748 771 748 785 706 c 1,32,-1
 608 706 l 1,0,1
408 836 m 0,33,34
 459 836 459 836 512.5 865 c 128,-1,35
 566 894 566 894 584 929 c 1,36,-1
 584 1034 l 1,37,-1
 448 1034 l 2,38,39
 374 1034 374 1034 332.5 1002 c 128,-1,40
 291 970 291 970 291 924 c 0,41,42
 291 881 291 881 320 858.5 c 128,-1,43
 349 836 349 836 408 836 c 0,33,34
EndSplineSet
Validated: 33
EndChar

StartChar: logicalnot
Encoding: 172 172 110
Width: 1133
GlyphClass: 1
Flags: W
LayerCount: 2
Fore
SplineSet
962 374 m 1,0,-1
 762 374 l 1,1,-1
 762 634 l 1,2,-1
 127 634 l 1,3,-1
 127 805 l 1,4,-1
 962 805 l 1,5,-1
 962 374 l 1,0,-1
EndSplineSet
Validated: 1
EndChar

StartChar: registered
Encoding: 174 174 112
Width: 1604
GlyphClass: 1
Flags: W
LayerCount: 2
Fore
SplineSet
87 729 m 0,0,1
 87 1044 87 1044 294 1260 c 128,-1,2
 501 1476 501 1476 797 1476 c 0,3,4
 1092 1476 1092 1476 1299 1260 c 128,-1,5
 1506 1044 1506 1044 1506 729 c 0,6,7
 1506 413 1506 413 1298.5 196 c 128,-1,8
 1091 -21 1091 -21 797 -21 c 0,9,10
 501 -21 501 -21 294 196 c 128,-1,11
 87 413 87 413 87 729 c 0,0,1
209 729 m 0,12,13
 209 465 209 465 380.5 284.5 c 128,-1,14
 552 104 552 104 797 104 c 0,15,16
 1041 104 1041 104 1212.5 284.5 c 128,-1,17
 1384 465 1384 465 1384 729 c 0,18,19
 1384 992 1384 992 1212.5 1171.5 c 128,-1,20
 1041 1351 1041 1351 797 1351 c 0,21,22
 551 1351 551 1351 380 1171.5 c 128,-1,23
 209 992 209 992 209 729 c 0,12,13
653 653 m 1,24,-1
 653 316 l 1,25,-1
 502 316 l 1,26,-1
 502 1166 l 1,27,-1
 783 1166 l 2,28,29
 934 1166 934 1166 1021 1099.5 c 128,-1,30
 1108 1033 1108 1033 1108 906 c 0,31,32
 1108 847 1108 847 1077.5 802 c 128,-1,33
 1047 757 1047 757 988 726 c 1,34,35
 1050 698 1050 698 1077.5 644 c 128,-1,36
 1105 590 1105 590 1105 515 c 2,37,-1
 1105 459 l 2,38,39
 1105 418 1105 418 1108.5 385.5 c 128,-1,40
 1112 353 1112 353 1122 332 c 1,41,-1
 1122 316 l 1,42,-1
 967 316 l 1,43,44
 958 337 958 337 956 377.5 c 128,-1,45
 954 418 954 418 954 460 c 2,46,-1
 954 514 l 2,47,48
 954 585 954 585 920.5 619 c 128,-1,49
 887 653 887 653 811 653 c 2,50,-1
 653 653 l 1,24,-1
653 787 m 1,51,-1
 796 787 l 2,52,53
 864 787 864 787 911 817.5 c 128,-1,54
 958 848 958 848 958 903 c 0,55,56
 958 975 958 975 919 1004 c 128,-1,57
 880 1033 880 1033 783 1033 c 2,58,-1
 653 1033 l 1,59,-1
 653 787 l 1,51,-1
EndSplineSet
Validated: 1
EndChar

StartChar: macron
Encoding: 175 175 113
AltUni2: 0002c9.ffffffff.0 0002c9.ffffffff.0
Width: 987
GlyphClass: 1
Flags: W
LayerCount: 2
Fore
SplineSet
862 1298 m 1,0,-1
 135 1298 l 1,1,-1
 135 1456 l 1,2,-1
 862 1456 l 1,3,-1
 862 1298 l 1,0,-1
EndSplineSet
Validated: 1
EndChar

StartChar: degree
Encoding: 176 176 114
Width: 778
GlyphClass: 1
Flags: W
LayerCount: 2
Fore
SplineSet
127 1208 m 256,0,1
 127 1318 127 1318 204.5 1397.5 c 128,-1,2
 282 1477 282 1477 391 1477 c 0,3,4
 498 1477 498 1477 574.5 1397.5 c 128,-1,5
 651 1318 651 1318 651 1208 c 256,6,7
 651 1098 651 1098 574.5 1021 c 128,-1,8
 498 944 498 944 391 944 c 0,9,10
 282 944 282 944 204.5 1021 c 128,-1,11
 127 1098 127 1098 127 1208 c 256,0,1
266 1208 m 0,12,13
 266 1155 266 1155 302.5 1119.5 c 128,-1,14
 339 1084 339 1084 391 1084 c 0,15,16
 442 1084 442 1084 477.5 1119 c 128,-1,17
 513 1154 513 1154 513 1208 c 256,18,19
 513 1262 513 1262 477.5 1299 c 128,-1,20
 442 1336 442 1336 391 1336 c 0,21,22
 339 1336 339 1336 302.5 1299 c 128,-1,23
 266 1262 266 1262 266 1208 c 0,12,13
EndSplineSet
Validated: 1
EndChar

StartChar: plusminus
Encoding: 177 177 115
Width: 1099
GlyphClass: 1
Flags: W
LayerCount: 2
Fore
SplineSet
668 906 m 1,0,-1
 1011 906 l 1,1,-1
 1011 707 l 1,2,-1
 668 707 l 1,3,-1
 668 312 l 1,4,-1
 453 312 l 1,5,-1
 453 707 l 1,6,-1
 95 707 l 1,7,-1
 95 906 l 1,8,-1
 453 906 l 1,9,-1
 453 1290 l 1,10,-1
 668 1290 l 1,11,-1
 668 906 l 1,0,-1
961 -23 m 1,12,-1
 126 -23 l 1,13,-1
 126 173 l 1,14,-1
 961 173 l 1,15,-1
 961 -23 l 1,12,-1
EndSplineSet
Validated: 1
EndChar

StartChar: twosuperior
Encoding: 178 178 116
Width: 865
GlyphClass: 1
Flags: W
LayerCount: 2
Fore
SplineSet
725 667 m 1,0,-1
 118 667 l 1,1,-1
 118 812 l 1,2,-1
 423 1068 l 2,3,4
 487 1122 487 1122 507 1157 c 128,-1,5
 527 1192 527 1192 527 1233 c 0,6,7
 527 1277 527 1277 501.5 1305 c 128,-1,8
 476 1333 476 1333 422 1333 c 0,9,10
 361 1333 361 1333 329 1303 c 128,-1,11
 297 1273 297 1273 297 1225 c 1,12,-1
 116 1225 l 1,13,-1
 114 1231 l 1,14,15
 108 1334 108 1334 194 1406.5 c 128,-1,16
 280 1479 280 1479 425 1479 c 0,17,18
 564 1479 564 1479 641.5 1414 c 128,-1,19
 719 1349 719 1349 719 1232 c 0,20,21
 719 1151 719 1151 670.5 1092 c 128,-1,22
 622 1033 622 1033 502 928 c 2,23,-1
 373 818 l 1,24,-1
 375 812 l 1,25,-1
 725 812 l 1,26,-1
 725 667 l 1,0,-1
EndSplineSet
Validated: 33
EndChar

StartChar: threesuperior
Encoding: 179 179 117
Width: 867
GlyphClass: 1
Flags: W
LayerCount: 2
Fore
SplineSet
417 1139 m 2,0,1
 482 1139 482 1139 512.5 1165.5 c 128,-1,2
 543 1192 543 1192 543 1240 c 0,3,4
 543 1279 543 1279 510.5 1305.5 c 128,-1,5
 478 1332 478 1332 416 1332 c 0,6,7
 363 1332 363 1332 331.5 1310 c 128,-1,8
 300 1288 300 1288 300 1254 c 1,9,-1
 119 1254 l 1,10,-1
 117 1260 l 1,11,12
 111 1358 111 1358 197 1418 c 128,-1,13
 283 1478 283 1478 413 1478 c 0,14,15
 562 1478 562 1478 648 1418.5 c 128,-1,16
 734 1359 734 1359 734 1249 c 0,17,18
 734 1194 734 1194 698.5 1148.5 c 128,-1,19
 663 1103 663 1103 602 1078 c 1,20,21
 672 1054 672 1054 709.5 1006.5 c 128,-1,22
 747 959 747 959 747 891 c 0,23,24
 747 779 747 779 657 717 c 128,-1,25
 567 655 567 655 418 655 c 0,26,27
 283 655 283 655 190.5 715.5 c 128,-1,28
 98 776 98 776 104 888 c 1,29,-1
 106 894 l 1,30,-1
 287 894 l 1,31,32
 287 851 287 851 321.5 825.5 c 128,-1,33
 356 800 356 800 417 800 c 0,34,35
 481 800 481 800 519 826 c 128,-1,36
 557 852 557 852 557 897 c 0,37,38
 557 953 557 953 521.5 980.5 c 128,-1,39
 486 1008 486 1008 417 1008 c 2,40,-1
 294 1008 l 1,41,-1
 294 1139 l 1,42,-1
 417 1139 l 2,0,1
EndSplineSet
Validated: 33
EndChar

StartChar: acute
Encoding: 180 180 118
Width: 689
GlyphClass: 1
Flags: W
LayerCount: 2
Fore
SplineSet
315 1518 m 1,0,-1
 590 1518 l 1,1,-1
 592 1512 l 1,2,-1
 319 1252 l 1,3,-1
 124 1252 l 1,4,-1
 315 1518 l 1,0,-1
EndSplineSet
Validated: 1
EndChar

StartChar: mu
Encoding: 181 181 119
Width: 1211
GlyphClass: 1
Flags: W
LayerCount: 2
Fore
SplineSet
388 1082 m 1,0,-1
 388 462 l 2,1,2
 388 295 388 295 438 235 c 128,-1,3
 488 175 488 175 585 175 c 0,4,5
 672 175 672 175 727.5 205.5 c 128,-1,6
 783 236 783 236 812 296 c 1,7,-1
 812 1082 l 1,8,-1
 1055 1082 l 1,9,-1
 1055 0 l 1,10,-1
 832 0 l 1,11,-1
 825 86 l 1,12,13
 780 33 780 33 720.5 6 c 128,-1,14
 661 -21 661 -21 586 -21 c 0,15,16
 525 -21 525 -21 475.5 -7.5 c 128,-1,17
 426 6 426 6 388 34 c 1,18,-1
 388 -416 l 1,19,-1
 146 -416 l 1,20,-1
 146 1082 l 1,21,-1
 388 1082 l 1,0,-1
EndSplineSet
Validated: 1
EndChar

StartChar: paragraph
Encoding: 182 182 120
Width: 1040
GlyphClass: 1
Flags: W
LayerCount: 2
Fore
SplineSet
637 0 m 1,0,-1
 637 520 l 1,1,-1
 554 520 l 2,2,3
 321 520 321 520 191.5 649.5 c 128,-1,4
 62 779 62 779 62 988 c 0,5,6
 62 1195 62 1195 191.5 1325.5 c 128,-1,7
 321 1456 321 1456 554 1456 c 2,8,-1
 880 1456 l 1,9,-1
 880 0 l 1,10,-1
 637 0 l 1,0,-1
EndSplineSet
Validated: 1
EndChar

StartChar: periodcentered
Encoding: 183 183 121
Width: 578
GlyphClass: 1
Flags: W
LayerCount: 2
Fore
SplineSet
402 594 m 1,0,-1
 160 594 l 1,1,-1
 160 834 l 1,2,-1
 402 834 l 1,3,-1
 402 594 l 1,0,-1
EndSplineSet
Validated: 1
EndChar

StartChar: cedilla
Encoding: 184 184 122
Width: 528
GlyphClass: 1
Flags: W
LayerCount: 2
Fore
SplineSet
318 3 m 1,0,-1
 307 -51 l 1,1,2
 371 -62 371 -62 414 -103 c 128,-1,3
 457 -144 457 -144 457 -224 c 0,4,5
 457 -326 457 -326 372 -386.5 c 128,-1,6
 287 -447 287 -447 130 -447 c 1,7,-1
 123 -310 l 1,8,9
 185 -310 185 -310 222.5 -288 c 128,-1,10
 260 -266 260 -266 260 -221 c 0,11,12
 260 -177 260 -177 225.5 -159 c 128,-1,13
 191 -141 191 -141 109 -136 c 1,14,-1
 141 3 l 1,15,-1
 318 3 l 1,0,-1
EndSplineSet
Validated: 1
EndChar

StartChar: onesuperior
Encoding: 185 185 123
Width: 565
GlyphClass: 1
Flags: W
LayerCount: 2
Fore
SplineSet
406 665 m 1,0,-1
 214 665 l 1,1,-1
 214 1304 l 1,2,-1
 87 1304 l 1,3,-1
 87 1454 l 1,4,-1
 406 1477 l 1,5,-1
 406 665 l 1,0,-1
EndSplineSet
Validated: 1
EndChar

StartChar: ordmasculine
Encoding: 186 186 124
Width: 935
GlyphClass: 1
Flags: W
LayerCount: 2
Fore
SplineSet
119 1142 m 2,0,1
 119 1290 119 1290 213 1383.5 c 128,-1,2
 307 1477 307 1477 465 1477 c 256,3,4
 623 1477 623 1477 717.5 1383.5 c 128,-1,5
 812 1290 812 1290 812 1142 c 2,6,-1
 812 1025 l 2,7,8
 812 876 812 876 718 783.5 c 128,-1,9
 624 691 624 691 467 691 c 0,10,11
 308 691 308 691 213.5 783.5 c 128,-1,12
 119 876 119 876 119 1025 c 2,13,-1
 119 1142 l 2,0,1
294 1025 m 2,14,15
 294 940 294 940 338 888.5 c 128,-1,16
 382 837 382 837 467 837 c 0,17,18
 549 837 549 837 593 888.5 c 128,-1,19
 637 940 637 940 637 1025 c 2,20,-1
 637 1142 l 2,21,22
 637 1225 637 1225 592.5 1277 c 128,-1,23
 548 1329 548 1329 465 1329 c 0,24,25
 381 1329 381 1329 337.5 1277 c 128,-1,26
 294 1225 294 1225 294 1142 c 2,27,-1
 294 1025 l 2,14,15
EndSplineSet
Validated: 1
EndChar

StartChar: questiondown
Encoding: 191 191 129
Width: 1025
GlyphClass: 1
Flags: W
LayerCount: 2
Fore
SplineSet
684 669 m 1,0,1
 682 525 682 525 650.5 464 c 128,-1,2
 619 403 619 403 509 311 c 1,3,4
 429 232 429 232 384 163.5 c 128,-1,5
 339 95 339 95 339 12 c 0,6,7
 339 -85 339 -85 391 -138.5 c 128,-1,8
 443 -192 443 -192 542 -192 c 0,9,10
 623 -192 623 -192 681 -146 c 128,-1,11
 739 -100 739 -100 741 -11 c 1,12,-1
 975 -11 l 1,13,-1
 978 -17 l 1,14,15
 979 -195 979 -195 856.5 -294.5 c 128,-1,16
 734 -394 734 -394 542 -394 c 0,17,18
 331 -394 331 -394 213.5 -287 c 128,-1,19
 96 -180 96 -180 96 8 c 0,20,21
 96 135 96 135 169 243.5 c 128,-1,22
 242 352 242 352 355 442 c 0,23,24
 411 491 411 491 426.5 536.5 c 128,-1,25
 442 582 442 582 442 669 c 1,26,-1
 684 669 l 1,0,1
438 1082 m 1,27,-1
 686 1082 l 1,28,-1
 686 849 l 1,29,-1
 438 849 l 1,30,-1
 438 1082 l 1,27,-1
EndSplineSet
Validated: 33
EndChar

StartChar: AE
Encoding: 198 198 136
Width: 1976
GlyphClass: 1
Flags: W
LayerCount: 2
Fore
SplineSet
1902 0 m 1,0,-1
 1005 0 l 1,1,-1
 990 340 l 1,2,-1
 487 340 l 1,3,-1
 303 0 l 1,4,-1
 13 0 l 1,5,-1
 848 1456 l 1,6,-1
 1841 1456 l 1,7,-1
 1841 1259 l 1,8,-1
 1194 1259 l 1,9,-1
 1211 851 l 1,10,-1
 1760 851 l 1,11,-1
 1760 654 l 1,12,-1
 1219 654 l 1,13,-1
 1239 196 l 1,14,-1
 1902 196 l 1,15,-1
 1902 0 l 1,0,-1
603 555 m 1,16,-1
 981 555 l 1,17,-1
 954 1193 l 1,18,-1
 949 1194 l 1,19,-1
 603 555 l 1,16,-1
EndSplineSet
Validated: 1
EndChar

StartChar: Eth
Encoding: 208 208 146
Width: 1372
GlyphClass: 1
Flags: W
LayerCount: 2
Fore
SplineSet
153 0 m 1,0,-1
 153 657 l 1,1,-1
 -1 657 l 1,2,-1
 -1 827 l 1,3,-1
 153 827 l 1,4,-1
 153 1456 l 1,5,-1
 634 1456 l 2,6,7
 911 1456 911 1456 1084.5 1283 c 128,-1,8
 1258 1110 1258 1110 1258 838 c 2,9,-1
 1258 617 l 2,10,11
 1258 344 1258 344 1084.5 172 c 128,-1,12
 911 0 911 0 634 0 c 2,13,-1
 153 0 l 1,0,-1
654 657 m 1,14,-1
 396 657 l 1,15,-1
 396 194 l 1,16,-1
 634 194 l 2,17,18
 809 194 809 194 912 312.5 c 128,-1,19
 1015 431 1015 431 1015 617 c 2,20,-1
 1015 840 l 2,21,22
 1015 1024 1015 1024 912 1142.5 c 128,-1,23
 809 1261 809 1261 634 1261 c 2,24,-1
 396 1261 l 1,25,-1
 396 827 l 1,26,-1
 654 827 l 1,27,-1
 654 657 l 1,14,-1
EndSplineSet
Validated: 1
Substitution2: "'smcp' Lowercase to Small Capitals lookup 0 subtable" Eth.smcp
EndChar

StartChar: multiply
Encoding: 215 215 153
Width: 1092
GlyphClass: 1
Flags: W
LayerCount: 2
Fore
SplineSet
77 364 m 1,0,-1
 393 686 l 1,1,-1
 77 1008 l 1,2,-1
 225 1158 l 1,3,-1
 540 836 l 1,4,-1
 856 1158 l 1,5,-1
 1004 1008 l 1,6,-1
 688 686 l 1,7,-1
 1004 364 l 1,8,-1
 856 214 l 1,9,-1
 540 535 l 1,10,-1
 225 214 l 1,11,-1
 77 364 l 1,0,-1
EndSplineSet
Validated: 1
EndChar

StartChar: Oslash
Encoding: 216 216 154
Width: 1403
GlyphClass: 1
Flags: W
LayerCount: 2
Fore
SplineSet
1297 597 m 2,0,1
 1297 330 1297 330 1129.5 154.5 c 128,-1,2
 962 -21 962 -21 694 -21 c 0,3,4
 611 -21 611 -21 537 -2.5 c 128,-1,5
 463 16 463 16 400 52 c 1,6,-1
 314 -95 l 1,7,-1
 166 -95 l 1,8,-1
 297 127 l 1,9,10
 205 211 205 211 155 332.5 c 128,-1,11
 105 454 105 454 105 597 c 2,12,-1
 105 859 l 2,13,14
 105 1125 105 1125 268.5 1301 c 128,-1,15
 432 1477 432 1477 694 1477 c 0,16,17
 790 1477 790 1477 875.5 1452 c 128,-1,18
 961 1427 961 1427 1033 1380 c 1,19,-1
 1114 1518 l 1,20,-1
 1262 1518 l 1,21,-1
 1132 1298 l 1,22,23
 1211 1214 1211 1214 1254 1101 c 128,-1,24
 1297 988 1297 988 1297 859 c 2,25,-1
 1297 597 l 2,0,1
348 597 m 2,26,27
 348 520 348 520 365 453 c 128,-1,28
 382 386 382 386 414 338 c 1,29,-1
 420 337 l 1,30,-1
 924 1194 l 1,31,32
 879 1234 879 1234 820.5 1255.5 c 128,-1,33
 762 1277 762 1277 694 1277 c 0,34,35
 533 1277 533 1277 440.5 1160 c 128,-1,36
 348 1043 348 1043 348 861 c 2,37,-1
 348 597 l 2,26,27
1054 861 m 2,38,39
 1054 923 1054 923 1042 978 c 128,-1,40
 1030 1033 1030 1033 1009 1076 c 1,41,-1
 1003 1077 l 1,42,-1
 507 234 l 1,43,44
 545 206 545 206 592 192 c 128,-1,45
 639 178 639 178 694 178 c 0,46,47
 861 178 861 178 957.5 295 c 128,-1,48
 1054 412 1054 412 1054 597 c 2,49,-1
 1054 861 l 2,38,39
EndSplineSet
Validated: 1
EndChar

StartChar: Thorn
Encoding: 222 222 160
Width: 1226
GlyphClass: 1
Flags: W
LayerCount: 2
Fore
SplineSet
391 1456 m 1,0,-1
 391 1176 l 1,1,-1
 637 1176 l 2,2,3
 879 1176 879 1176 1014.5 1054.5 c 128,-1,4
 1150 933 1150 933 1150 738 c 0,5,6
 1150 542 1150 542 1014.5 421 c 128,-1,7
 879 300 879 300 637 300 c 2,8,-1
 391 300 l 1,9,-1
 391 0 l 1,10,-1
 148 0 l 1,11,-1
 148 1456 l 1,12,-1
 391 1456 l 1,0,-1
391 981 m 1,13,-1
 391 495 l 1,14,-1
 637 495 l 2,15,16
 772 495 772 495 839.5 564.5 c 128,-1,17
 907 634 907 634 907 736 c 0,18,19
 907 840 907 840 839.5 910.5 c 128,-1,20
 772 981 772 981 637 981 c 2,21,-1
 391 981 l 1,13,-1
EndSplineSet
Validated: 1
EndChar

StartChar: germandbls
Encoding: 223 223 161
Width: 1255
GlyphClass: 1
Flags: W
LayerCount: 2
Fore
SplineSet
378 0 m 1,0,-1
 136 0 l 1,1,-1
 136 1093 l 2,2,3
 136 1317 136 1317 259 1442 c 128,-1,4
 382 1567 382 1567 584 1567 c 0,5,6
 754 1567 754 1567 863.5 1475.5 c 128,-1,7
 973 1384 973 1384 973 1211 c 0,8,9
 973 1098 973 1098 914 994.5 c 128,-1,10
 855 891 855 891 855 829 c 0,11,12
 855 761 855 761 1017 619 c 128,-1,13
 1179 477 1179 477 1179 339 c 0,14,15
 1179 159 1179 159 1070 69 c 128,-1,16
 961 -21 961 -21 764 -21 c 0,17,18
 682 -21 682 -21 597.5 -4 c 128,-1,19
 513 13 513 13 475 41 c 1,20,-1
 524 238 l 1,21,22
 565 213 565 213 626.5 193 c 128,-1,23
 688 173 688 173 750 173 c 0,24,25
 843 173 843 173 890 214.5 c 128,-1,26
 937 256 937 256 937 327 c 0,27,28
 937 403 937 403 774.5 541.5 c 128,-1,29
 612 680 612 680 612 825 c 0,30,31
 612 910 612 910 675 1015 c 128,-1,32
 738 1120 738 1120 738 1195 c 0,33,34
 738 1275 738 1275 690.5 1323.5 c 128,-1,35
 643 1372 643 1372 580 1372 c 0,36,37
 489 1372 489 1372 433.5 1298 c 128,-1,38
 378 1224 378 1224 378 1091 c 2,39,-1
 378 0 l 1,0,-1
EndSplineSet
Validated: 1
Substitution2: "'smcp' Lowercase to Small Capitals lookup 0 subtable" germandbls.smcp
EndChar

StartChar: ae
Encoding: 230 230 168
Width: 1780
GlyphClass: 1
Flags: W
LayerCount: 2
Fore
SplineSet
1286 -21 m 0,0,1
 1154 -21 1154 -21 1051.5 23.5 c 128,-1,2
 949 68 949 68 883 151 c 1,3,4
 824 77 824 77 717 28 c 128,-1,5
 610 -21 610 -21 461 -21 c 0,6,7
 281 -21 281 -21 182.5 68.5 c 128,-1,8
 84 158 84 158 84 312 c 0,9,10
 84 470 84 470 204.5 556 c 128,-1,11
 325 642 325 642 556 642 c 2,12,-1
 762 642 l 1,13,-1
 762 713 l 2,14,15
 762 804 762 804 715.5 855.5 c 128,-1,16
 669 907 669 907 583 907 c 0,17,18
 490 907 490 907 436.5 862 c 128,-1,19
 383 817 383 817 383 752 c 1,20,-1
 150 770 l 1,21,-1
 148 776 l 1,22,23
 142 917 142 917 263 1009.5 c 128,-1,24
 384 1102 384 1102 585 1102 c 0,25,26
 693 1102 693 1102 778 1068.5 c 128,-1,27
 863 1035 863 1035 919 971 c 1,28,29
 982 1035 982 1035 1066 1068.5 c 128,-1,30
 1150 1102 1150 1102 1250 1102 c 0,31,32
 1464 1102 1464 1102 1582 971 c 128,-1,33
 1700 840 1700 840 1700 612 c 2,34,-1
 1700 471 l 1,35,-1
 1020 471 l 1,36,-1
 1017 465 l 1,37,38
 1021 334 1021 334 1091 253.5 c 128,-1,39
 1161 173 1161 173 1301 173 c 0,40,41
 1399 173 1399 173 1461 196 c 128,-1,42
 1523 219 1523 219 1606 265 c 1,43,-1
 1678 100 l 1,44,45
 1621 54 1621 54 1520.5 16.5 c 128,-1,46
 1420 -21 1420 -21 1286 -21 c 0,0,1
508 164 m 0,47,48
 575 164 575 164 648 200.5 c 128,-1,49
 721 237 721 237 762 286 c 1,50,-1
 762 475 l 1,51,-1
 558 475 l 2,52,53
 449 475 449 475 388 426 c 128,-1,54
 327 377 327 377 327 308 c 0,55,56
 327 243 327 243 372.5 203.5 c 128,-1,57
 418 164 418 164 508 164 c 0,47,48
1250 907 m 0,58,59
 1146 907 1146 907 1088 835.5 c 128,-1,60
 1030 764 1030 764 1020 647 c 1,61,-1
 1022 642 l 1,62,-1
 1460 642 l 1,63,-1
 1460 672 l 2,64,65
 1460 777 1460 777 1408.5 842 c 128,-1,66
 1357 907 1357 907 1250 907 c 0,58,59
EndSplineSet
Validated: 33
EndChar

StartChar: eth
Encoding: 240 240 178
Width: 1210
GlyphClass: 1
Flags: W
LayerCount: 2
Fore
SplineSet
897 1292 m 1,0,1
 995 1187 995 1187 1048.5 1049 c 128,-1,2
 1102 911 1102 911 1102 748 c 2,3,-1
 1102 541 l 2,4,5
 1102 293 1102 293 952 136 c 128,-1,6
 802 -21 802 -21 577 -21 c 0,7,8
 350 -21 350 -21 205 119.5 c 128,-1,9
 60 260 60 260 60 468 c 0,10,11
 60 694 60 694 196.5 833.5 c 128,-1,12
 333 973 333 973 555 973 c 0,13,14
 640 973 640 973 715.5 941.5 c 128,-1,15
 791 910 791 910 843 858 c 1,16,-1
 847 863 l 1,17,18
 835 957 835 957 794 1035.5 c 128,-1,19
 753 1114 753 1114 689 1174 c 1,20,-1
 421 1024 l 1,21,-1
 343 1133 l 1,22,-1
 562 1256 l 1,23,-1
 562 1262 l 1,24,25
 529 1279 529 1279 490.5 1294 c 128,-1,26
 452 1309 452 1309 413 1321 c 1,27,-1
 488 1517 l 1,28,29
 572 1498 572 1498 648 1464.5 c 128,-1,30
 724 1431 724 1431 790 1385 c 1,31,-1
 997 1501 l 1,32,-1
 1075 1392 l 1,33,-1
 897 1292 l 1,0,1
581 173 m 0,34,35
 706 173 706 173 782.5 277 c 128,-1,36
 859 381 859 381 859 541 c 2,37,-1
 859 673 l 1,38,39
 824 721 824 721 751.5 753 c 128,-1,40
 679 785 679 785 576 785 c 0,41,42
 450 785 450 785 376.5 695 c 128,-1,43
 303 605 303 605 303 468 c 0,44,45
 303 347 303 347 378.5 260 c 128,-1,46
 454 173 454 173 581 173 c 0,34,35
EndSplineSet
Validated: 1
Substitution2: "'smcp' Lowercase to Small Capitals lookup 0 subtable" Eth.smcp
EndChar

StartChar: divide
Encoding: 247 247 185
Width: 1169
GlyphClass: 1
Flags: W
LayerCount: 2
Fore
SplineSet
1079 582 m 1,0,-1
 67 582 l 1,1,-1
 67 794 l 1,2,-1
 1079 794 l 1,3,-1
 1079 582 l 1,0,-1
696 985 m 1,4,-1
 453 985 l 1,5,-1
 453 1206 l 1,6,-1
 696 1206 l 1,7,-1
 696 985 l 1,4,-1
696 170 m 1,8,-1
 453 170 l 1,9,-1
 453 391 l 1,10,-1
 696 391 l 1,11,-1
 696 170 l 1,8,-1
EndSplineSet
Validated: 1
EndChar

StartChar: oslash
Encoding: 248 248 186
Width: 1161
GlyphClass: 1
Flags: W
LayerCount: 2
Fore
SplineSet
83 551 m 2,0,1
 83 793 83 793 215.5 947.5 c 128,-1,2
 348 1102 348 1102 578 1102 c 0,3,4
 631 1102 631 1102 680.5 1092.5 c 128,-1,5
 730 1083 730 1083 775 1066 c 1,6,-1
 847 1212 l 1,7,-1
 991 1212 l 1,8,-1
 887 1001 l 1,9,10
 978 927 978 927 1027 810.5 c 128,-1,11
 1076 694 1076 694 1076 551 c 2,12,-1
 1076 530 l 2,13,14
 1076 286 1076 286 943.5 132.5 c 128,-1,15
 811 -21 811 -21 580 -21 c 0,16,17
 532 -21 532 -21 487 -13.5 c 128,-1,18
 442 -6 442 -6 400 8 c 1,19,-1
 328 -138 l 1,20,-1
 184 -138 l 1,21,-1
 286 69 l 1,22,23
 187 140 187 140 135 260 c 128,-1,24
 83 380 83 380 83 530 c 2,25,-1
 83 551 l 2,0,1
326 530 m 2,26,27
 326 452 326 452 340.5 388 c 128,-1,28
 355 324 355 324 385 284 c 1,29,-1
 391 283 l 1,30,-1
 685 883 l 1,31,32
 661 894 661 894 634.5 900.5 c 128,-1,33
 608 907 608 907 578 907 c 0,34,35
 451 907 451 907 388.5 806.5 c 128,-1,36
 326 706 326 706 326 551 c 2,37,-1
 326 530 l 2,26,27
834 551 m 2,38,39
 834 619 834 619 821 678 c 128,-1,40
 808 737 808 737 784 778 c 1,41,-1
 778 779 l 1,42,-1
 489 189 l 1,43,44
 509 181 509 181 532 177 c 128,-1,45
 555 173 555 173 580 173 c 0,46,47
 707 173 707 173 770.5 272.5 c 128,-1,48
 834 372 834 372 834 530 c 2,49,-1
 834 551 l 2,38,39
EndSplineSet
Validated: 1
EndChar

StartChar: thorn
Encoding: 254 254 192
Width: 1175
GlyphClass: 1
Flags: W
LayerCount: 2
Fore
SplineSet
1086 505 m 2,0,1
 1086 269 1086 269 975 124 c 128,-1,2
 864 -21 864 -21 666 -21 c 0,3,4
 574 -21 574 -21 503 12 c 128,-1,5
 432 45 432 45 381 109 c 1,6,-1
 381 -416 l 1,7,-1
 138 -416 l 1,8,-1
 138 1560 l 1,9,-1
 381 1560 l 1,10,-1
 381 965 l 1,11,12
 431 1031 431 1031 501.5 1066.5 c 128,-1,13
 572 1102 572 1102 663 1102 c 0,14,15
 863 1102 863 1102 974.5 943.5 c 128,-1,16
 1086 785 1086 785 1086 526 c 2,17,-1
 1086 505 l 2,0,1
844 526 m 2,18,19
 844 692 844 692 781.5 797.5 c 128,-1,20
 719 903 719 903 595 903 c 0,21,22
 519 903 519 903 466 870.5 c 128,-1,23
 413 838 413 838 381 780 c 1,24,-1
 381 291 l 1,25,26
 413 234 413 234 466 203.5 c 128,-1,27
 519 173 519 173 597 173 c 0,28,29
 721 173 721 173 782.5 264.5 c 128,-1,30
 844 356 844 356 844 505 c 2,31,-1
 844 526 l 2,18,19
EndSplineSet
Validated: 1
EndChar

StartChar: Dcroat
Encoding: 272 272 210
Width: 1372
GlyphClass: 1
Flags: W
LayerCount: 2
Fore
SplineSet
153 0 m 1,0,-1
 153 657 l 1,1,-1
 -1 657 l 1,2,-1
 -1 827 l 1,3,-1
 153 827 l 1,4,-1
 153 1456 l 1,5,-1
 634 1456 l 2,6,7
 911 1456 911 1456 1084.5 1283 c 128,-1,8
 1258 1110 1258 1110 1258 838 c 2,9,-1
 1258 617 l 2,10,11
 1258 344 1258 344 1084.5 172 c 128,-1,12
 911 0 911 0 634 0 c 2,13,-1
 153 0 l 1,0,-1
654 657 m 1,14,-1
 396 657 l 1,15,-1
 396 194 l 1,16,-1
 634 194 l 2,17,18
 809 194 809 194 912 312.5 c 128,-1,19
 1015 431 1015 431 1015 617 c 2,20,-1
 1015 840 l 2,21,22
 1015 1024 1015 1024 912 1142.5 c 128,-1,23
 809 1261 809 1261 634 1261 c 2,24,-1
 396 1261 l 1,25,-1
 396 827 l 1,26,-1
 654 827 l 1,27,-1
 654 657 l 1,14,-1
EndSplineSet
Validated: 1
Substitution2: "'smcp' Lowercase to Small Capitals lookup 0 subtable" Dcroat.smcp
EndChar

StartChar: dcroat
Encoding: 273 273 211
Width: 1160
GlyphClass: 1
Flags: W
LayerCount: 2
Fore
SplineSet
1199 1225 m 1,0,-1
 1027 1225 l 1,1,-1
 1027 0 l 1,2,-1
 830 0 l 1,3,-1
 801 137 l 1,4,5
 749 60 749 60 675 19.5 c 128,-1,6
 601 -21 601 -21 504 -21 c 0,7,8
 305 -21 305 -21 194 124 c 128,-1,9
 83 269 83 269 83 505 c 2,10,-1
 83 526 l 2,11,12
 83 785 83 785 194 943.5 c 128,-1,13
 305 1102 305 1102 506 1102 c 0,14,15
 594 1102 594 1102 663.5 1066.5 c 128,-1,16
 733 1031 733 1031 784 965 c 1,17,-1
 784 1225 l 1,18,-1
 544 1225 l 1,19,-1
 544 1395 l 1,20,-1
 784 1395 l 1,21,-1
 784 1560 l 1,22,-1
 1027 1560 l 1,23,-1
 1027 1395 l 1,24,-1
 1199 1395 l 1,25,-1
 1199 1225 l 1,0,-1
326 505 m 2,26,27
 326 355 326 355 383.5 266 c 128,-1,28
 441 177 441 177 566 177 c 0,29,30
 643 177 643 177 696.5 210 c 128,-1,31
 750 243 750 243 784 304 c 1,32,-1
 784 776 l 1,33,34
 750 836 750 836 696 869.5 c 128,-1,35
 642 903 642 903 568 903 c 0,36,37
 444 903 444 903 385 798.5 c 128,-1,38
 326 694 326 694 326 526 c 2,39,-1
 326 505 l 2,26,27
EndSplineSet
Validated: 1
Substitution2: "'smcp' Lowercase to Small Capitals lookup 0 subtable" Dcroat.smcp
EndChar

StartChar: Hbar
Encoding: 294 294 232
Width: 1442
GlyphClass: 1
Flags: W
LayerCount: 2
Fore
SplineSet
1298 1188 m 1,0,-1
 1430 1188 l 1,1,-1
 1430 1026 l 1,2,-1
 1298 1026 l 1,3,-1
 1298 0 l 1,4,-1
 1055 0 l 1,5,-1
 1055 621 l 1,6,-1
 404 621 l 1,7,-1
 404 0 l 1,8,-1
 161 0 l 1,9,-1
 161 1026 l 1,10,-1
 24 1026 l 1,11,-1
 24 1188 l 1,12,-1
 161 1188 l 1,13,-1
 161 1456 l 1,14,-1
 404 1456 l 1,15,-1
 404 1188 l 1,16,-1
 1055 1188 l 1,17,-1
 1055 1456 l 1,18,-1
 1298 1456 l 1,19,-1
 1298 1188 l 1,0,-1
404 816 m 1,20,-1
 1055 816 l 1,21,-1
 1055 1026 l 1,22,-1
 404 1026 l 1,23,-1
 404 816 l 1,20,-1
EndSplineSet
Validated: 1
EndChar

StartChar: hbar
Encoding: 295 295 233
Width: 1160
GlyphClass: 1
Flags: W
LayerCount: 2
Fore
SplineSet
632 1223 m 1,0,-1
 368 1223 l 1,1,-1
 368 942 l 1,2,3
 422 1018 422 1018 499.5 1060 c 128,-1,4
 577 1102 577 1102 671 1102 c 0,5,6
 843 1102 843 1102 939.5 993.5 c 128,-1,7
 1036 885 1036 885 1036 659 c 2,8,-1
 1036 0 l 1,9,-1
 793 0 l 1,10,-1
 793 661 l 2,11,12
 793 788 793 788 743.5 845.5 c 128,-1,13
 694 903 694 903 596 903 c 0,14,15
 518 903 518 903 461 875.5 c 128,-1,16
 404 848 404 848 368 799 c 1,17,-1
 368 0 l 1,18,-1
 125 0 l 1,19,-1
 125 1223 l 1,20,-1
 -23 1223 l 1,21,-1
 -23 1393 l 1,22,-1
 125 1393 l 1,23,-1
 125 1560 l 1,24,-1
 368 1560 l 1,25,-1
 368 1393 l 1,26,-1
 632 1393 l 1,27,-1
 632 1223 l 1,0,-1
EndSplineSet
Validated: 1
EndChar

StartChar: dotlessi
Encoding: 305 305 243
Width: 538
GlyphClass: 1
Flags: W
LayerCount: 2
Fore
SplineSet
386 0 m 1,0,-1
 143 0 l 1,1,-1
 143 1082 l 1,2,-1
 386 1082 l 1,3,-1
 386 0 l 1,0,-1
EndSplineSet
Validated: 1
EndChar

StartChar: kgreenlandic
Encoding: 312 312 250
Width: 1176
GlyphClass: 1
Flags: W
LayerCount: 2
Fore
SplineSet
495 428 m 1,0,-1
 384 428 l 1,1,-1
 384 0 l 1,2,-1
 142 0 l 1,3,-1
 142 1082 l 1,4,-1
 384 1082 l 1,5,-1
 384 650 l 1,6,-1
 469 650 l 1,7,-1
 805 1082 l 1,8,-1
 1098 1082 l 1,9,-1
 1101 1077 l 1,10,-1
 685 564 l 1,11,-1
 1131 0 l 1,12,-1
 822 0 l 1,13,-1
 495 428 l 1,0,-1
EndSplineSet
Validated: 1
EndChar

StartChar: Lslash
Encoding: 321 321 259
Width: 1060
GlyphClass: 1
Flags: W
LayerCount: 2
Fore
SplineSet
389 865 m 1,0,-1
 645 943 l 1,1,-1
 645 759 l 1,2,-1
 389 681 l 1,3,-1
 389 194 l 1,4,-1
 1071 194 l 1,5,-1
 1071 0 l 1,6,-1
 146 0 l 1,7,-1
 146 608 l 1,8,-1
 27 572 l 1,9,-1
 27 756 l 1,10,-1
 146 792 l 1,11,-1
 146 1456 l 1,12,-1
 389 1456 l 1,13,-1
 389 865 l 1,0,-1
EndSplineSet
Validated: 1
EndChar

StartChar: lslash
Encoding: 322 322 260
Width: 575
GlyphClass: 1
Flags: W
LayerCount: 2
Fore
SplineSet
407 891 m 1,0,-1
 552 943 l 1,1,-1
 552 759 l 1,2,-1
 407 707 l 1,3,-1
 407 0 l 1,4,-1
 164 0 l 1,5,-1
 164 621 l 1,6,-1
 27 572 l 1,7,-1
 27 756 l 1,8,-1
 164 805 l 1,9,-1
 164 1560 l 1,10,-1
 407 1560 l 1,11,-1
 407 891 l 1,0,-1
EndSplineSet
Validated: 1
EndChar

StartChar: Eng
Encoding: 330 330 268
Width: 1426
GlyphClass: 1
Flags: W
LayerCount: 2
Fore
SplineSet
1284 1456 m 1,0,-1
 1284 -63 l 2,1,2
 1284 -242 1284 -242 1190.5 -339.5 c 128,-1,3
 1097 -437 1097 -437 931 -437 c 0,4,5
 895 -437 895 -437 865.5 -433 c 128,-1,6
 836 -429 836 -429 804 -420 c 1,7,-1
 818 -229 l 1,8,9
 835 -234 835 -234 865.5 -238 c 128,-1,10
 896 -242 896 -242 917 -242 c 0,11,12
 976 -242 976 -242 1008.5 -194.5 c 128,-1,13
 1041 -147 1041 -147 1041 -63 c 2,14,-1
 1041 0 l 1,15,-1
 396 1049 l 1,16,-1
 390 1047 l 1,17,-1
 390 0 l 1,18,-1
 147 0 l 1,19,-1
 147 1456 l 1,20,-1
 390 1456 l 1,21,-1
 1035 407 l 1,22,-1
 1041 409 l 1,23,-1
 1041 1456 l 1,24,-1
 1284 1456 l 1,0,-1
EndSplineSet
Validated: 1
EndChar

StartChar: eng
Encoding: 331 331 269
Width: 1160
GlyphClass: 1
Flags: W
LayerCount: 2
Fore
SplineSet
348 1082 m 1,0,-1
 361 932 l 1,1,2
 415 1013 415 1013 494.5 1057.5 c 128,-1,3
 574 1102 574 1102 672 1102 c 0,4,5
 841 1102 841 1102 935.5 998 c 128,-1,6
 1030 894 1030 894 1030 673 c 2,7,-1
 1030 -63 l 2,8,9
 1030 -242 1030 -242 936.5 -339.5 c 128,-1,10
 843 -437 843 -437 677 -437 c 0,11,12
 641 -437 641 -437 611.5 -433 c 128,-1,13
 582 -429 582 -429 550 -420 c 1,14,-1
 564 -222 l 1,15,16
 581 -227 581 -227 611 -230.5 c 128,-1,17
 641 -234 641 -234 663 -234 c 0,18,19
 722 -234 722 -234 754.5 -190.5 c 128,-1,20
 787 -147 787 -147 787 -63 c 2,21,-1
 787 671 l 2,22,23
 787 797 787 797 738 850 c 128,-1,24
 689 903 689 903 589 903 c 0,25,26
 514 903 514 903 459 876 c 128,-1,27
 404 849 404 849 369 800 c 1,28,-1
 369 0 l 1,29,-1
 126 0 l 1,30,-1
 126 1082 l 1,31,-1
 348 1082 l 1,0,-1
EndSplineSet
Validated: 1
EndChar

StartChar: OE
Encoding: 338 338 276
Width: 1972
GlyphClass: 1
Flags: W
LayerCount: 2
Fore
SplineSet
1803 0 m 1,0,-1
 971 0 l 1,1,2
 879 -10 879 -10 814.5 -15.5 c 128,-1,3
 750 -21 750 -21 683 -21 c 0,4,5
 423 -21 423 -21 262 144.5 c 128,-1,6
 101 310 101 310 101 576 c 2,7,-1
 101 880 l 2,8,9
 101 1145 101 1145 261.5 1311 c 128,-1,10
 422 1477 422 1477 681 1477 c 0,11,12
 750 1477 750 1477 821 1471 c 128,-1,13
 892 1465 892 1465 971 1456 c 1,14,-1
 1796 1456 l 1,15,-1
 1796 1261 l 1,16,-1
 1131 1261 l 1,17,-1
 1131 850 l 1,18,-1
 1701 850 l 1,19,-1
 1701 655 l 1,20,-1
 1131 655 l 1,21,-1
 1131 194 l 1,22,-1
 1803 194 l 1,23,-1
 1803 0 l 1,0,-1
683 174 m 0,24,25
 735 174 735 174 786.5 177.5 c 128,-1,26
 838 181 838 181 888 188 c 1,27,-1
 888 1267 l 1,28,29
 836 1274 836 1274 784 1278 c 128,-1,30
 732 1282 732 1282 681 1282 c 0,31,32
 522 1282 522 1282 432.5 1179.5 c 128,-1,33
 343 1077 343 1077 343 882 c 2,34,-1
 343 576 l 2,35,36
 343 380 343 380 433 277 c 128,-1,37
 523 174 523 174 683 174 c 0,24,25
EndSplineSet
Validated: 1
EndChar

StartChar: oe
Encoding: 339 339 277
Width: 1851
GlyphClass: 1
Flags: W
LayerCount: 2
Fore
SplineSet
1367 -21 m 0,0,1
 1235 -21 1235 -21 1134 27 c 128,-1,2
 1033 75 1033 75 968 163 c 1,3,4
 903 75 903 75 804.5 27 c 128,-1,5
 706 -21 706 -21 580 -21 c 0,6,7
 348 -21 348 -21 215.5 133 c 128,-1,8
 83 287 83 287 83 530 c 2,9,-1
 83 551 l 2,10,11
 83 793 83 793 215.5 947.5 c 128,-1,12
 348 1102 348 1102 578 1102 c 0,13,14
 705 1102 705 1102 804.5 1053 c 128,-1,15
 904 1004 904 1004 970 915 c 1,16,17
 1034 1004 1034 1004 1129.5 1053 c 128,-1,18
 1225 1102 1225 1102 1341 1102 c 0,19,20
 1559 1102 1559 1102 1671 967.5 c 128,-1,21
 1783 833 1783 833 1783 608 c 2,22,-1
 1783 477 l 1,23,-1
 1114 477 l 1,24,-1
 1112 472 l 1,25,26
 1116 339 1116 339 1182 256 c 128,-1,27
 1248 173 1248 173 1381 173 c 0,28,29
 1480 173 1480 173 1552.5 197 c 128,-1,30
 1625 221 1625 221 1687 266 c 1,31,-1
 1766 107 l 1,32,33
 1704 53 1704 53 1602 16 c 128,-1,34
 1500 -21 1500 -21 1367 -21 c 0,0,1
326 530 m 2,35,36
 326 371 326 371 388 272 c 128,-1,37
 450 173 450 173 580 173 c 0,38,39
 707 173 707 173 770.5 272.5 c 128,-1,40
 834 372 834 372 834 530 c 2,41,-1
 834 551 l 2,42,43
 834 706 834 706 770.5 806.5 c 128,-1,44
 707 907 707 907 578 907 c 0,45,46
 451 907 451 907 388.5 806.5 c 128,-1,47
 326 706 326 706 326 551 c 2,48,-1
 326 530 l 2,35,36
1341 907 m 0,49,50
 1246 907 1246 907 1189 838.5 c 128,-1,51
 1132 770 1132 770 1118 660 c 1,52,-1
 1120 655 l 1,53,-1
 1543 655 l 1,54,-1
 1543 674 l 2,55,56
 1543 778 1543 778 1494.5 842.5 c 128,-1,57
 1446 907 1446 907 1341 907 c 0,49,50
EndSplineSet
Validated: 1
EndChar

StartChar: Tbar
Encoding: 358 358 296
Width: 1202
GlyphClass: 1
Flags: W
LayerCount: 2
Fore
SplineSet
928 786 m 1,0,-1
 720 786 l 1,1,-1
 720 0 l 1,2,-1
 477 0 l 1,3,-1
 477 786 l 1,4,-1
 273 786 l 1,5,-1
 273 956 l 1,6,-1
 477 956 l 1,7,-1
 477 1261 l 1,8,-1
 34 1261 l 1,9,-1
 34 1456 l 1,10,-1
 1170 1456 l 1,11,-1
 1170 1261 l 1,12,-1
 720 1261 l 1,13,-1
 720 956 l 1,14,-1
 928 956 l 1,15,-1
 928 786 l 1,0,-1
EndSplineSet
Validated: 1
Substitution2: "'smcp' Lowercase to Small Capitals lookup 0 subtable" Tbar.smcp
EndChar

StartChar: tbar
Encoding: 359 359 297
Width: 701
GlyphClass: 1
Flags: W
LayerCount: 2
Fore
SplineSet
439 1345 m 1,0,-1
 439 1082 l 1,1,-1
 633 1082 l 1,2,-1
 633 902 l 1,3,-1
 439 902 l 1,4,-1
 439 737 l 1,5,-1
 652 737 l 1,6,-1
 652 567 l 1,7,-1
 439 567 l 1,8,-1
 439 304 l 2,9,10
 439 237 439 237 468 208.5 c 128,-1,11
 497 180 497 180 545 180 c 0,12,13
 565 180 565 180 584 183.5 c 128,-1,14
 603 187 603 187 620 193 c 1,15,-1
 646 15 l 1,16,17
 615 -2 615 -2 572.5 -11.5 c 128,-1,18
 530 -21 530 -21 484 -21 c 0,19,20
 350 -21 350 -21 273.5 57.5 c 128,-1,21
 197 136 197 136 197 304 c 2,22,-1
 197 567 l 1,23,-1
 -3 567 l 1,24,-1
 -3 737 l 1,25,-1
 197 737 l 1,26,-1
 197 902 l 1,27,-1
 32 902 l 1,28,-1
 32 1082 l 1,29,-1
 197 1082 l 1,30,-1
 197 1345 l 1,31,-1
 439 1345 l 1,0,-1
EndSplineSet
Validated: 1
Substitution2: "'smcp' Lowercase to Small Capitals lookup 0 subtable" Tbar.smcp
EndChar

StartChar: longs
Encoding: 383 383 321
Width: 524
GlyphClass: 1
Flags: W
LayerCount: 2
Fore
SplineSet
139 0 m 1,0,-1
 139 1208 l 2,1,2
 139 1387 139 1387 236.5 1484 c 128,-1,3
 334 1581 334 1581 509 1581 c 0,4,5
 545 1581 545 1581 581 1575.5 c 128,-1,6
 617 1570 617 1570 661 1560 c 1,7,-1
 636 1375 l 1,8,9
 614 1380 614 1380 592.5 1383 c 128,-1,10
 571 1386 571 1386 544 1386 c 0,11,12
 465 1386 465 1386 423 1339 c 128,-1,13
 381 1292 381 1292 381 1208 c 2,14,-1
 381 0 l 1,15,-1
 139 0 l 1,0,-1
EndSplineSet
Validated: 1
EndChar

StartChar: florin
Encoding: 402 402 322
Width: 720
GlyphClass: 1
Flags: W
LayerCount: 2
Fore
SplineSet
644 902 m 1,0,-1
 443 902 l 1,1,-1
 443 -63 l 2,2,3
 443 -242 443 -242 350 -339.5 c 128,-1,4
 257 -437 257 -437 91 -437 c 0,5,6
 55 -437 55 -437 26 -433 c 128,-1,7
 -3 -429 -3 -429 -35 -420 c 1,8,-1
 -20 -229 l 1,9,10
 -3 -234 -3 -234 26 -238 c 128,-1,11
 55 -242 55 -242 77 -242 c 0,12,13
 135 -242 135 -242 167.5 -194.5 c 128,-1,14
 200 -147 200 -147 200 -63 c 2,15,-1
 200 902 l 1,16,-1
 35 902 l 1,17,-1
 35 1082 l 1,18,-1
 200 1082 l 1,19,-1
 200 1208 l 2,20,21
 200 1387 200 1387 297.5 1484 c 128,-1,22
 395 1581 395 1581 571 1581 c 0,23,24
 606 1581 606 1581 642 1575.5 c 128,-1,25
 678 1570 678 1570 723 1560 c 1,26,-1
 698 1372 l 1,27,28
 678 1376 678 1376 653.5 1379 c 128,-1,29
 629 1382 629 1382 601 1382 c 0,30,31
 522 1382 522 1382 482.5 1337 c 128,-1,32
 443 1292 443 1292 443 1208 c 2,33,-1
 443 1082 l 1,34,-1
 644 1082 l 1,35,-1
 644 902 l 1,0,-1
EndSplineSet
Validated: 1
EndChar

StartChar: Ohorn
Encoding: 416 416 323
Width: 1417
GlyphClass: 1
Flags: W
LayerCount: 2
Fore
SplineSet
1292 597 m 2,0,1
 1292 330 1292 330 1124.5 154.5 c 128,-1,2
 957 -21 957 -21 689 -21 c 0,3,4
 428 -21 428 -21 264 154.5 c 128,-1,5
 100 330 100 330 100 597 c 2,6,-1
 100 859 l 2,7,8
 100 1125 100 1125 263.5 1301 c 128,-1,9
 427 1477 427 1477 689 1477 c 0,10,11
 816 1477 816 1477 923.5 1433.5 c 128,-1,12
 1031 1390 1031 1390 1112 1312 c 1,13,14
 1223 1332 1223 1332 1281.5 1415.5 c 128,-1,15
 1340 1499 1340 1499 1340 1635 c 1,16,-1
 1548 1635 l 1,17,18
 1548 1443 1548 1443 1465.5 1318.5 c 128,-1,19
 1383 1194 1383 1194 1229 1148 c 1,20,21
 1259 1083 1259 1083 1275.5 1010 c 128,-1,22
 1292 937 1292 937 1292 859 c 2,23,-1
 1292 597 l 2,0,1
1049 861 m 2,24,25
 1049 1043 1049 1043 952 1160 c 128,-1,26
 855 1277 855 1277 689 1277 c 0,27,28
 528 1277 528 1277 435.5 1160 c 128,-1,29
 343 1043 343 1043 343 861 c 2,30,-1
 343 597 l 2,31,32
 343 413 343 413 436 295.5 c 128,-1,33
 529 178 529 178 689 178 c 0,34,35
 856 178 856 178 952.5 295 c 128,-1,36
 1049 412 1049 412 1049 597 c 2,37,-1
 1049 861 l 2,24,25
EndSplineSet
Validated: 1
EndChar

StartChar: ohorn
Encoding: 417 417 324
Width: 1183
GlyphClass: 1
Flags: W
LayerCount: 2
Fore
SplineSet
83 551 m 2,0,1
 83 793 83 793 215.5 947.5 c 128,-1,2
 348 1102 348 1102 578 1102 c 0,3,4
 687 1102 687 1102 775.5 1065.5 c 128,-1,5
 864 1029 864 1029 929 963 c 1,6,7
 996 990 996 990 1030 1058 c 128,-1,8
 1064 1126 1064 1126 1064 1227 c 1,9,-1
 1259 1227 l 1,10,11
 1259 1081 1259 1081 1196 982.5 c 128,-1,12
 1133 884 1133 884 1013 843 c 1,13,14
 1043 779 1043 779 1059.5 705.5 c 128,-1,15
 1076 632 1076 632 1076 551 c 2,16,-1
 1076 530 l 2,17,18
 1076 286 1076 286 943.5 132.5 c 128,-1,19
 811 -21 811 -21 580 -21 c 0,20,21
 348 -21 348 -21 215.5 133 c 128,-1,22
 83 287 83 287 83 530 c 2,23,-1
 83 551 l 2,0,1
326 530 m 2,24,25
 326 371 326 371 388 272 c 128,-1,26
 450 173 450 173 580 173 c 0,27,28
 707 173 707 173 770.5 272.5 c 128,-1,29
 834 372 834 372 834 530 c 2,30,-1
 834 551 l 2,31,32
 834 706 834 706 770.5 806.5 c 128,-1,33
 707 907 707 907 578 907 c 0,34,35
 451 907 451 907 388.5 806.5 c 128,-1,36
 326 706 326 706 326 551 c 2,37,-1
 326 530 l 2,24,25
EndSplineSet
Validated: 1
EndChar

StartChar: Uhorn
Encoding: 431 431 325
Width: 1445
GlyphClass: 1
Flags: W
LayerCount: 2
Fore
SplineSet
1265 1456 m 1,0,-1
 1265 1276 l 1,1,-1
 1271 1274 l 1,2,3
 1354 1299 1354 1299 1395 1382.5 c 128,-1,4
 1436 1466 1436 1466 1436 1598 c 1,5,-1
 1644 1598 l 1,6,7
 1644 1384 1644 1384 1548 1256.5 c 128,-1,8
 1452 1129 1452 1129 1265 1097 c 1,9,-1
 1265 497 l 2,10,11
 1265 254 1265 254 1105.5 116.5 c 128,-1,12
 946 -21 946 -21 694 -21 c 0,13,14
 446 -21 446 -21 290 116.5 c 128,-1,15
 134 254 134 254 134 497 c 2,16,-1
 134 1456 l 1,17,-1
 377 1456 l 1,18,-1
 377 497 l 2,19,20
 377 342 377 342 464 257.5 c 128,-1,21
 551 173 551 173 694 173 c 0,22,23
 842 173 842 173 932 257.5 c 128,-1,24
 1022 342 1022 342 1022 497 c 2,25,-1
 1022 1456 l 1,26,-1
 1265 1456 l 1,0,-1
EndSplineSet
Validated: 1
EndChar

StartChar: uhorn
Encoding: 432 432 326
Width: 1187
GlyphClass: 1
Flags: W
LayerCount: 2
Fore
SplineSet
1388 1210 m 1,0,-1
 1390 1205 l 1,1,2
 1393 1027 1393 1027 1306.5 929 c 128,-1,3
 1220 831 1220 831 1034 814 c 1,4,-1
 1034 0 l 1,5,-1
 825 0 l 1,6,-1
 803 160 l 1,7,8
 753 73 753 73 674.5 26 c 128,-1,9
 596 -21 596 -21 493 -21 c 0,10,11
 319 -21 319 -21 221 93.5 c 128,-1,12
 123 208 123 208 123 449 c 2,13,-1
 123 1082 l 1,14,-1
 365 1082 l 1,15,-1
 365 447 l 2,16,17
 365 292 365 292 410 234.5 c 128,-1,18
 455 177 455 177 550 177 c 0,19,20
 638 177 638 177 697.5 208.5 c 128,-1,21
 757 240 757 240 791 300 c 1,22,-1
 791 1082 l 1,23,-1
 1034 1082 l 1,24,-1
 1034 962 l 1,25,-1
 1040 960 l 1,26,27
 1132 970 1132 970 1170.5 1031 c 128,-1,28
 1209 1092 1209 1092 1209 1210 c 1,29,-1
 1388 1210 l 1,0,-1
EndSplineSet
Validated: 33
EndChar

StartChar: uni0237
Encoding: 567 567 336
Width: 550
GlyphClass: 1
Flags: W
LayerCount: 2
Fore
SplineSet
403 1082 m 1,0,-1
 403 -63 l 2,1,2
 403 -242 403 -242 310 -339.5 c 128,-1,3
 217 -437 217 -437 51 -437 c 0,4,5
 15 -437 15 -437 -14 -433 c 128,-1,6
 -43 -429 -43 -429 -75 -420 c 1,7,-1
 -60 -229 l 1,8,9
 -43 -234 -43 -234 -14 -238 c 128,-1,10
 15 -242 15 -242 37 -242 c 0,11,12
 95 -242 95 -242 128 -194.5 c 128,-1,13
 161 -147 161 -147 161 -63 c 2,14,-1
 161 1082 l 1,15,-1
 403 1082 l 1,0,-1
EndSplineSet
Validated: 1
EndChar

StartChar: circumflex
Encoding: 710 710 338
Width: 998
GlyphClass: 1
Flags: W
LayerCount: 2
Fore
SplineSet
828 1276 m 1,0,-1
 828 1252 l 1,1,-1
 633 1252 l 1,2,-1
 490 1391 l 1,3,-1
 348 1252 l 1,4,-1
 155 1252 l 1,5,-1
 155 1278 l 1,6,-1
 419 1518 l 1,7,-1
 562 1518 l 1,8,-1
 828 1276 l 1,0,-1
EndSplineSet
Validated: 1
EndChar

StartChar: caron
Encoding: 711 711 339
Width: 944
GlyphClass: 1
Flags: W
LayerCount: 2
Fore
SplineSet
466 1385 m 1,0,-1
 598 1521 l 1,1,-1
 813 1521 l 1,2,-1
 813 1504 l 1,3,-1
 545 1252 l 1,4,-1
 388 1252 l 1,5,-1
 121 1502 l 1,6,-1
 121 1521 l 1,7,-1
 334 1521 l 1,8,-1
 466 1385 l 1,0,-1
EndSplineSet
Validated: 1
EndChar

StartChar: breve
Encoding: 728 728 340
Width: 892
GlyphClass: 1
Flags: W
LayerCount: 2
Fore
SplineSet
754 1456 m 1,0,-1
 757 1450 l 1,1,2
 761 1327 761 1327 674 1250 c 128,-1,3
 587 1173 587 1173 440 1173 c 0,4,5
 292 1173 292 1173 205 1250 c 128,-1,6
 118 1327 118 1327 123 1450 c 1,7,-1
 126 1456 l 1,8,-1
 306 1456 l 1,9,10
 306 1398 306 1398 338.5 1361 c 128,-1,11
 371 1324 371 1324 440 1324 c 0,12,13
 507 1324 507 1324 540 1361 c 128,-1,14
 573 1398 573 1398 573 1456 c 1,15,-1
 754 1456 l 1,0,-1
EndSplineSet
Validated: 33
EndChar

StartChar: dotaccent
Encoding: 729 729 341
Width: 591
GlyphClass: 1
Flags: W
LayerCount: 2
Fore
SplineSet
420 1239 m 1,0,-1
 150 1239 l 1,1,-1
 150 1462 l 1,2,-1
 420 1462 l 1,3,-1
 420 1239 l 1,0,-1
EndSplineSet
Validated: 1
EndChar

StartChar: ring
Encoding: 730 730 342
Width: 690
GlyphClass: 1
Flags: W
LayerCount: 2
Fore
SplineSet
160 1305 m 256,0,1
 160 1378 160 1378 213 1427.5 c 128,-1,2
 266 1477 266 1477 342 1477 c 0,3,4
 416 1477 416 1477 468 1427.5 c 128,-1,5
 520 1378 520 1378 520 1305 c 0,6,7
 520 1231 520 1231 468.5 1184.5 c 128,-1,8
 417 1138 417 1138 342 1138 c 0,9,10
 265 1138 265 1138 212.5 1185 c 128,-1,11
 160 1232 160 1232 160 1305 c 256,0,1
268 1305 m 0,12,13
 268 1274 268 1274 289.5 1253.5 c 128,-1,14
 311 1233 311 1233 342 1233 c 0,15,16
 371 1233 371 1233 391.5 1253.5 c 128,-1,17
 412 1274 412 1274 412 1305 c 0,18,19
 412 1337 412 1337 392 1359 c 128,-1,20
 372 1381 372 1381 342 1381 c 0,21,22
 310 1381 310 1381 289 1359 c 128,-1,23
 268 1337 268 1337 268 1305 c 0,12,13
EndSplineSet
Validated: 1
EndChar

StartChar: ogonek
Encoding: 731 731 343
Width: 589
GlyphClass: 1
Flags: W
LayerCount: 2
Fore
SplineSet
396 0 m 1,0,1
 334 -51 334 -51 301.5 -93.5 c 128,-1,2
 269 -136 269 -136 269 -187 c 0,3,4
 269 -221 269 -221 288.5 -244 c 128,-1,5
 308 -267 308 -267 360 -267 c 0,6,7
 387 -267 387 -267 407.5 -261 c 128,-1,8
 428 -255 428 -255 456 -244 c 1,9,-1
 491 -386 l 1,10,11
 455 -405 455 -405 411 -417.5 c 128,-1,12
 367 -430 367 -430 306 -430 c 0,13,14
 205 -430 205 -430 139.5 -373.5 c 128,-1,15
 74 -317 74 -317 74 -216 c 0,16,17
 74 -137 74 -137 128.5 -66 c 128,-1,18
 183 5 183 5 297 60 c 1,19,-1
 396 0 l 1,0,1
EndSplineSet
Validated: 1
EndChar

StartChar: tilde
Encoding: 732 732 344
Width: 984
GlyphClass: 1
Flags: W
LayerCount: 2
Fore
SplineSet
849 1488 m 1,0,1
 849 1393 849 1393 789 1326 c 128,-1,2
 729 1259 729 1259 639 1259 c 0,3,4
 568 1259 568 1259 485.5 1303.5 c 128,-1,5
 403 1348 403 1348 352 1348 c 0,6,7
 313 1348 313 1348 286 1315.5 c 128,-1,8
 259 1283 259 1283 259 1238 c 1,9,-1
 128 1273 l 1,10,11
 128 1367 128 1367 187.5 1436.5 c 128,-1,12
 247 1506 247 1506 337 1506 c 0,13,14
 393 1506 393 1506 482.5 1461.5 c 128,-1,15
 572 1417 572 1417 624 1417 c 0,16,17
 662 1417 662 1417 690 1449 c 128,-1,18
 718 1481 718 1481 718 1527 c 1,19,-1
 849 1488 l 1,0,1
EndSplineSet
Validated: 1
EndChar

StartChar: hungarumlaut
Encoding: 733 733 345
Width: 815
GlyphClass: 1
Flags: W
LayerCount: 2
Fore
SplineSet
664 1518 m 1,0,-1
 918 1518 l 1,1,-1
 920 1512 l 1,2,-1
 627 1252 l 1,3,-1
 426 1252 l 1,4,-1
 424 1257 l 1,5,-1
 664 1518 l 1,0,-1
308 1518 m 1,6,-1
 551 1518 l 1,7,-1
 553 1513 l 1,8,-1
 313 1252 l 1,9,-1
 118 1252 l 1,10,-1
 308 1518 l 1,6,-1
EndSplineSet
Validated: 1
EndChar

StartChar: uni02F3
Encoding: 755 755 346
Width: 668
GlyphClass: 1
Flags: W
LayerCount: 2
Fore
SplineSet
171 -231 m 0,0,1
 171 -163 171 -163 220 -117.5 c 128,-1,2
 269 -72 269 -72 341 -72 c 0,3,4
 410 -72 410 -72 458 -117.5 c 128,-1,5
 506 -163 506 -163 506 -231 c 256,6,7
 506 -299 506 -299 458.5 -342.5 c 128,-1,8
 411 -386 411 -386 341 -386 c 0,9,10
 269 -386 269 -386 220 -342 c 128,-1,11
 171 -298 171 -298 171 -231 c 0,0,1
272 -231 m 0,12,13
 272 -259 272 -259 291.5 -278.5 c 128,-1,14
 311 -298 311 -298 341 -298 c 0,15,16
 368 -298 368 -298 387 -278.5 c 128,-1,17
 406 -259 406 -259 406 -231 c 0,18,19
 406 -201 406 -201 387 -181 c 128,-1,20
 368 -161 368 -161 341 -161 c 0,21,22
 311 -161 311 -161 291.5 -181 c 128,-1,23
 272 -201 272 -201 272 -231 c 0,12,13
EndSplineSet
Validated: 1
EndChar

StartChar: hook
Encoding: 777 777 350
Width: 0
GlyphClass: 1
Flags: W
LayerCount: 2
Fore
SplineSet
-687 1254 m 1,0,-1
 -694 1400 l 1,1,2
 -619 1404 -619 1404 -587.5 1419 c 128,-1,3
 -556 1434 -556 1434 -556 1468 c 0,4,5
 -556 1506 -556 1506 -596 1523 c 128,-1,6
 -636 1540 -636 1540 -706 1540 c 1,7,-1
 -699 1663 l 1,8,9
 -534 1663 -534 1663 -446.5 1611.5 c 128,-1,10
 -359 1560 -359 1560 -359 1471 c 0,11,12
 -359 1403 -359 1403 -402 1367 c 128,-1,13
 -445 1331 -445 1331 -509 1323 c 1,14,-1
 -509 1254 l 1,15,-1
 -687 1254 l 1,0,-1
EndSplineSet
Validated: 1
EndChar

StartChar: uni030F
Encoding: 783 783 351
Width: 0
GlyphClass: 1
Flags: W
LayerCount: 2
Fore
SplineSet
-510 1257 m 1,0,-1
 -512 1252 l 1,1,-1
 -713 1252 l 1,2,-1
 -1006 1512 l 1,3,-1
 -1004 1518 l 1,4,-1
 -750 1518 l 1,5,-1
 -510 1257 l 1,0,-1
-204 1252 m 1,6,-1
 -399 1252 l 1,7,-1
 -639 1513 l 1,8,-1
 -637 1518 l 1,9,-1
 -394 1518 l 1,10,-1
 -204 1252 l 1,6,-1
EndSplineSet
Validated: 1
EndChar

StartChar: dotbelow
Encoding: 803 803 352
Width: 0
GlyphClass: 1
Flags: W
LayerCount: 2
Fore
SplineSet
-464 -347 m 1,0,-1
 -734 -347 l 1,1,-1
 -734 -124 l 1,2,-1
 -464 -124 l 1,3,-1
 -464 -347 l 1,0,-1
EndSplineSet
Validated: 1
EndChar

StartChar: tonos
Encoding: 900 900 353
Width: 605
GlyphClass: 1
Flags: W
LayerCount: 2
Fore
SplineSet
266 1549 m 1,0,-1
 508 1549 l 1,1,-1
 333 1270 l 1,2,-1
 222 1270 l 1,3,-1
 266 1549 l 1,0,-1
EndSplineSet
Validated: 1
EndChar

StartChar: dieresistonos
Encoding: 901 901 354
Width: 1084
GlyphClass: 1
Flags: W
LayerCount: 2
Fore
SplineSet
910 1252 m 1,0,-1
 685 1252 l 1,1,-1
 685 1456 l 1,2,-1
 910 1456 l 1,3,-1
 910 1252 l 1,0,-1
382 1252 m 1,4,-1
 157 1252 l 1,5,-1
 157 1456 l 1,6,-1
 382 1456 l 1,7,-1
 382 1252 l 1,4,-1
508 1746 m 1,8,-1
 757 1746 l 1,9,-1
 607 1473 l 1,10,-1
 461 1473 l 1,11,-1
 508 1746 l 1,8,-1
EndSplineSet
Validated: 1
EndChar

StartChar: Gamma
Encoding: 915 915 366
Width: 1130
GlyphClass: 1
Flags: W
LayerCount: 2
Fore
SplineSet
1068 1261 m 1,0,-1
 391 1261 l 1,1,-1
 391 0 l 1,2,-1
 148 0 l 1,3,-1
 148 1456 l 1,4,-1
 1068 1456 l 1,5,-1
 1068 1261 l 1,0,-1
EndSplineSet
Validated: 1
EndChar

StartChar: Delta
Encoding: 916 916 367
AltUni2: 002206.ffffffff.0 002206.ffffffff.0
Width: 1469
GlyphClass: 1
Flags: W
LayerCount: 2
Fore
SplineSet
627 1456 m 1,0,-1
 858 1456 l 1,1,-1
 1432 0 l 1,2,-1
 26 0 l 1,3,-1
 627 1456 l 1,0,-1
354 194 m 1,4,-1
 1108 194 l 1,5,-1
 743 1160 l 1,6,-1
 737 1160 l 1,7,-1
 354 194 l 1,4,-1
EndSplineSet
Validated: 1
EndChar

StartChar: Theta
Encoding: 920 920 371
Width: 1403
GlyphClass: 1
Flags: W
LayerCount: 2
Fore
SplineSet
931 633 m 1,0,-1
 483 633 l 1,1,-1
 483 828 l 1,2,-1
 931 828 l 1,3,-1
 931 633 l 1,0,-1
1297 597 m 2,4,5
 1297 330 1297 330 1129.5 154.5 c 128,-1,6
 962 -21 962 -21 694 -21 c 0,7,8
 433 -21 433 -21 269 154.5 c 128,-1,9
 105 330 105 330 105 597 c 2,10,-1
 105 859 l 2,11,12
 105 1125 105 1125 268.5 1301 c 128,-1,13
 432 1477 432 1477 694 1477 c 0,14,15
 961 1477 961 1477 1129 1301 c 128,-1,16
 1297 1125 1297 1125 1297 859 c 2,17,-1
 1297 597 l 2,4,5
1054 861 m 2,18,19
 1054 1043 1054 1043 957 1160 c 128,-1,20
 860 1277 860 1277 694 1277 c 0,21,22
 533 1277 533 1277 440.5 1160 c 128,-1,23
 348 1043 348 1043 348 861 c 2,24,-1
 348 597 l 2,25,26
 348 413 348 413 441 295.5 c 128,-1,27
 534 178 534 178 694 178 c 0,28,29
 861 178 861 178 957.5 295 c 128,-1,30
 1054 412 1054 412 1054 597 c 2,31,-1
 1054 861 l 2,18,19
EndSplineSet
Validated: 1
EndChar

StartChar: Lambda
Encoding: 923 923 374
Width: 1337
GlyphClass: 1
Flags: W
LayerCount: 2
Fore
SplineSet
668 1136 m 1,0,-1
 662 1136 l 1,1,-1
 286 0 l 1,2,-1
 35 0 l 1,3,-1
 550 1456 l 1,4,-1
 781 1456 l 1,5,-1
 1297 0 l 1,6,-1
 1045 0 l 1,7,-1
 668 1136 l 1,0,-1
EndSplineSet
Validated: 1
EndChar

StartChar: Xi
Encoding: 926 926 377
Width: 1169
GlyphClass: 1
Flags: W
LayerCount: 2
Fore
SplineSet
112 194 m 1,0,-1
 1069 194 l 1,1,-1
 1069 0 l 1,2,-1
 112 0 l 1,3,-1
 112 194 l 1,0,-1
208 844 m 1,4,-1
 967 844 l 1,5,-1
 967 653 l 1,6,-1
 208 653 l 1,7,-1
 208 844 l 1,4,-1
122 1456 m 1,8,-1
 1044 1456 l 1,9,-1
 1044 1261 l 1,10,-1
 122 1261 l 1,11,-1
 122 1456 l 1,8,-1
EndSplineSet
Validated: 1
EndChar

StartChar: Pi
Encoding: 928 928 379
Width: 1442
GlyphClass: 1
Flags: W
LayerCount: 2
Fore
SplineSet
1290 0 m 1,0,-1
 1047 0 l 1,1,-1
 1047 1261 l 1,2,-1
 394 1261 l 1,3,-1
 394 0 l 1,4,-1
 151 0 l 1,5,-1
 151 1456 l 1,6,-1
 1290 1456 l 1,7,-1
 1290 0 l 1,0,-1
EndSplineSet
Validated: 1
EndChar

StartChar: Sigma
Encoding: 931 931 381
Width: 1169
GlyphClass: 1
Flags: W
LayerCount: 2
Fore
SplineSet
790 719 m 1,0,-1
 387 195 l 1,1,-1
 1100 195 l 1,2,-1
 1100 0 l 1,3,-1
 71 0 l 1,4,-1
 71 152 l 1,5,-1
 533 729 l 1,6,-1
 71 1304 l 1,7,-1
 71 1456 l 1,8,-1
 1062 1456 l 1,9,-1
 1062 1261 l 1,10,-1
 388 1261 l 1,11,-1
 790 739 l 1,12,-1
 790 719 l 1,0,-1
EndSplineSet
Validated: 1
EndChar

StartChar: Phi
Encoding: 934 934 384
Width: 1471
GlyphClass: 1
Flags: W
LayerCount: 2
Fore
SplineSet
862 1244 m 1,0,1
 1100 1234 1100 1234 1253.5 1090 c 128,-1,2
 1407 946 1407 946 1407 722 c 256,3,4
 1407 498 1407 498 1253.5 355.5 c 128,-1,5
 1100 213 1100 213 862 204 c 1,6,-1
 862 0 l 1,7,-1
 619 0 l 1,8,-1
 619 203 l 1,9,10
 378 212 378 212 225 354 c 128,-1,11
 72 496 72 496 72 720 c 0,12,13
 72 945 72 945 225.5 1089.5 c 128,-1,14
 379 1234 379 1234 619 1244 c 1,15,-1
 619 1456 l 1,16,-1
 862 1456 l 1,17,-1
 862 1244 l 1,0,1
311 720 m 0,18,19
 311 578 311 578 391 497 c 128,-1,20
 471 416 471 416 613 413 c 1,21,-1
 619 415 l 1,22,-1
 619 1033 l 1,23,-1
 613 1035 l 1,24,25
 471 1031 471 1031 391 947 c 128,-1,26
 311 863 311 863 311 720 c 0,18,19
1168 722 m 0,27,28
 1168 865 1168 865 1088 948 c 128,-1,29
 1008 1031 1008 1031 868 1035 c 1,30,-1
 862 1033 l 1,31,-1
 862 415 l 1,32,-1
 868 413 l 1,33,34
 1008 416 1008 416 1088 498 c 128,-1,35
 1168 580 1168 580 1168 722 c 0,27,28
EndSplineSet
Validated: 1
EndChar

StartChar: Psi
Encoding: 936 936 386
Width: 1447
GlyphClass: 1
Flags: W
LayerCount: 2
Fore
SplineSet
834 538 m 1,0,-1
 840 536 l 1,1,2
 970 552 970 552 1044 649.5 c 128,-1,3
 1118 747 1118 747 1118 913 c 2,4,-1
 1118 1456 l 1,5,-1
 1361 1456 l 1,6,-1
 1361 913 l 2,7,8
 1361 660 1361 660 1217.5 508 c 128,-1,9
 1074 356 1074 356 834 331 c 1,10,-1
 834 0 l 1,11,-1
 592 0 l 1,12,-1
 592 330 l 1,13,14
 354 353 354 353 213 505.5 c 128,-1,15
 72 658 72 658 72 913 c 2,16,-1
 72 1456 l 1,17,-1
 314 1456 l 1,18,-1
 314 913 l 2,19,20
 314 750 314 750 387 652.5 c 128,-1,21
 460 555 460 555 586 537 c 1,22,-1
 592 539 l 1,23,-1
 592 1456 l 1,24,-1
 834 1456 l 1,25,-1
 834 538 l 1,0,-1
EndSplineSet
Validated: 1
EndChar

StartChar: Omega
Encoding: 937 937 387
AltUni2: 002126.ffffffff.0 002126.ffffffff.0
Width: 1371
GlyphClass: 1
Flags: W
LayerCount: 2
Fore
SplineSet
735 200 m 1,0,1
 853 228 853 228 919 365 c 128,-1,2
 985 502 985 502 985 745 c 2,3,-1
 985 850 l 2,4,5
 985 1060 985 1060 902.5 1170 c 128,-1,6
 820 1280 820 1280 674 1280 c 256,7,8
 528 1280 528 1280 446.5 1170 c 128,-1,9
 365 1060 365 1060 365 850 c 2,10,-1
 365 745 l 2,11,12
 365 501 365 501 432.5 364 c 128,-1,13
 500 227 500 227 621 200 c 1,14,-1
 621 0 l 1,15,-1
 121 0 l 1,16,-1
 121 196 l 1,17,-1
 370 196 l 1,18,19
 250 287 250 287 179 434.5 c 128,-1,20
 108 582 108 582 108 745 c 2,21,-1
 108 848 l 2,22,23
 108 1126 108 1126 265 1301.5 c 128,-1,24
 422 1477 422 1477 674 1477 c 256,25,26
 926 1477 926 1477 1084 1301.5 c 128,-1,27
 1242 1126 1242 1126 1242 848 c 2,28,-1
 1242 745 l 2,29,30
 1242 582 1242 582 1170.5 435 c 128,-1,31
 1099 288 1099 288 981 196 c 1,32,-1
 1236 196 l 1,33,-1
 1236 0 l 1,34,-1
 735 0 l 1,35,-1
 735 200 l 1,0,1
EndSplineSet
Validated: 1
EndChar

StartChar: alpha
Encoding: 945 945 395
Width: 1156
GlyphClass: 1
Flags: W
LayerCount: 2
Fore
SplineSet
1015 1081 m 1,0,-1
 1015 303 l 2,1,2
 1015 237 1015 237 1034 211 c 128,-1,3
 1053 185 1053 185 1088 185 c 0,4,5
 1102 185 1102 185 1113.5 186 c 128,-1,6
 1125 187 1125 187 1134 191 c 1,7,-1
 1159 10 l 1,8,9
 1126 -8 1126 -8 1095 -14.5 c 128,-1,10
 1064 -21 1064 -21 1025 -21 c 0,11,12
 942 -21 942 -21 885 14 c 128,-1,13
 828 49 828 49 800 123 c 1,14,15
 748 52 748 52 675.5 15.5 c 128,-1,16
 603 -21 603 -21 508 -21 c 0,17,18
 309 -21 309 -21 197.5 124 c 128,-1,19
 86 269 86 269 86 505 c 2,20,-1
 86 526 l 2,21,22
 86 785 86 785 197.5 943.5 c 128,-1,23
 309 1102 309 1102 510 1102 c 0,24,25
 604 1102 604 1102 676.5 1064 c 128,-1,26
 749 1026 749 1026 801 954 c 1,27,-1
 850 1081 l 1,28,-1
 1015 1081 l 1,0,-1
329 505 m 2,29,30
 329 355 329 355 386.5 264 c 128,-1,31
 444 173 444 173 569 173 c 0,32,33
 639 173 639 173 689 202 c 128,-1,34
 739 231 739 231 772 284 c 1,35,-1
 772 303 l 1,36,-1
 772 795 l 1,37,38
 738 848 738 848 688.5 877.5 c 128,-1,39
 639 907 639 907 571 907 c 0,40,41
 447 907 447 907 388 800.5 c 128,-1,42
 329 694 329 694 329 526 c 2,43,-1
 329 505 l 2,29,30
EndSplineSet
Validated: 1
EndChar

StartChar: beta
Encoding: 946 946 396
Width: 1222
GlyphClass: 1
Flags: W
LayerCount: 2
Fore
SplineSet
617 1477 m 0,0,1
 821 1477 821 1477 943.5 1369.5 c 128,-1,2
 1066 1262 1066 1262 1066 1082 c 0,3,4
 1066 988 1066 988 1016.5 909.5 c 128,-1,5
 967 831 967 831 879 783 c 1,6,7
 998 739 998 739 1064 644 c 128,-1,8
 1130 549 1130 549 1130 421 c 0,9,10
 1130 212 1130 212 1007 95.5 c 128,-1,11
 884 -21 884 -21 679 -21 c 0,12,13
 601 -21 601 -21 526.5 -0.5 c 128,-1,14
 452 20 452 20 392 62 c 1,15,-1
 392 -393 l 1,16,-1
 150 -393 l 1,17,-1
 150 1055 l 2,18,19
 150 1234 150 1234 286.5 1355.5 c 128,-1,20
 423 1477 423 1477 617 1477 c 0,0,1
613 861 m 2,21,22
 721 861 721 861 772 916.5 c 128,-1,23
 823 972 823 972 823 1073 c 0,24,25
 823 1158 823 1158 768.5 1220 c 128,-1,26
 714 1282 714 1282 617 1282 c 256,27,28
 520 1282 520 1282 456 1218 c 128,-1,29
 392 1154 392 1154 392 1055 c 2,30,-1
 392 256 l 1,31,32
 433 216 433 216 496 194.5 c 128,-1,33
 559 173 559 173 637 173 c 0,34,35
 752 173 752 173 819.5 242 c 128,-1,36
 887 311 887 311 887 420 c 0,37,38
 887 528 887 528 826.5 602 c 128,-1,39
 766 676 766 676 660 676 c 2,40,-1
 539 676 l 1,41,-1
 539 861 l 1,42,-1
 613 861 l 2,21,22
EndSplineSet
Validated: 1
EndChar

StartChar: gamma
Encoding: 947 947 397
Width: 1039
GlyphClass: 1
Flags: W
LayerCount: 2
Fore
SplineSet
762 1082 m 1,0,-1
 1013 1082 l 1,1,-1
 644 42 l 1,2,-1
 644 -417 l 1,3,-1
 402 -417 l 1,4,-1
 402 45 l 1,5,-1
 32 1082 l 1,6,-1
 283 1082 l 1,7,-1
 504 366 l 1,8,-1
 522 277 l 1,9,-1
 528 277 l 1,10,-1
 547 366 l 1,11,-1
 762 1082 l 1,0,-1
EndSplineSet
Validated: 1
EndChar

StartChar: delta
Encoding: 948 948 398
Width: 1160
GlyphClass: 1
Flags: W
LayerCount: 2
Fore
SplineSet
957 1456 m 1,0,-1
 957 1263 l 1,1,-1
 529 1263 l 1,2,-1
 527 1257 l 1,3,-1
 836 1031 l 2,4,5
 944 950 944 950 1010 827 c 128,-1,6
 1076 704 1076 704 1076 551 c 2,7,-1
 1076 530 l 2,8,9
 1076 286 1076 286 943.5 132.5 c 128,-1,10
 811 -21 811 -21 580 -21 c 0,11,12
 348 -21 348 -21 215.5 129 c 128,-1,13
 83 279 83 279 83 516 c 2,14,-1
 83 537 l 2,15,16
 83 744 83 744 189.5 888 c 128,-1,17
 296 1032 296 1032 473 1062 c 1,18,-1
 480 1063 l 1,19,-1
 481 1069 l 1,20,-1
 189 1304 l 1,21,-1
 189 1456 l 1,22,-1
 957 1456 l 1,0,-1
578 907 m 0,23,24
 451 907 451 907 388.5 806.5 c 128,-1,25
 326 706 326 706 326 551 c 2,26,-1
 326 530 l 2,27,28
 326 371 326 371 388 272 c 128,-1,29
 450 173 450 173 580 173 c 0,30,31
 707 173 707 173 770.5 272.5 c 128,-1,32
 834 372 834 372 834 530 c 2,33,-1
 834 551 l 2,34,35
 834 706 834 706 770.5 806.5 c 128,-1,36
 707 907 707 907 578 907 c 0,23,24
EndSplineSet
Validated: 1
EndChar

StartChar: epsilon
Encoding: 949 949 399
Width: 1120
GlyphClass: 1
Flags: W
LayerCount: 2
Fore
SplineSet
96 306 m 0,0,1
 96 396 96 396 148 460 c 128,-1,2
 200 524 200 524 299 557 c 1,3,4
 212 593 212 593 163.5 653.5 c 128,-1,5
 115 714 115 714 115 786 c 0,6,7
 115 936 115 936 239 1018.5 c 128,-1,8
 363 1101 363 1101 573 1101 c 0,9,10
 761 1101 761 1101 888.5 1012 c 128,-1,11
 1016 923 1016 923 1011 781 c 1,12,-1
 1009 775 l 1,13,-1
 777 775 l 1,14,15
 777 835 777 835 716 874.5 c 128,-1,16
 655 914 655 914 566 914 c 0,17,18
 464 914 464 914 411 872.5 c 128,-1,19
 358 831 358 831 358 774 c 0,20,21
 358 711 358 711 408 675 c 128,-1,22
 458 639 458 639 559 639 c 2,23,-1
 758 639 l 1,24,-1
 758 466 l 1,25,-1
 559 466 l 2,26,27
 451 466 451 466 395 429.5 c 128,-1,28
 339 393 339 393 339 316 c 0,29,30
 339 253 339 253 399.5 209.5 c 128,-1,31
 460 166 460 166 566 166 c 0,32,33
 668 166 668 166 731 211.5 c 128,-1,34
 794 257 794 257 794 321 c 1,35,-1
 1026 321 l 1,36,-1
 1028 315 l 1,37,38
 1033 152 1033 152 897 66 c 128,-1,39
 761 -20 761 -20 573 -20 c 0,40,41
 363 -20 363 -20 229.5 67.5 c 128,-1,42
 96 155 96 155 96 306 c 0,0,1
EndSplineSet
Validated: 33
EndChar

StartChar: zeta
Encoding: 950 950 400
Width: 1054
GlyphClass: 1
Flags: W
LayerCount: 2
Fore
SplineSet
970 1456 m 1,0,-1
 970 1318 l 1,1,-1
 621 890 l 1,2,3
 502 751 502 751 450 647 c 128,-1,4
 398 543 398 543 398 407 c 0,5,6
 398 299 398 299 448 245.5 c 128,-1,7
 498 192 498 192 599 192 c 2,8,-1
 640 192 l 2,9,10
 795 192 795 192 883 123.5 c 128,-1,11
 971 55 971 55 971 -77 c 0,12,13
 969 -196 969 -196 885.5 -289 c 128,-1,14
 802 -382 802 -382 675 -427 c 1,15,-1
 586 -262 l 1,16,17
 651 -233 651 -233 694.5 -194.5 c 128,-1,18
 738 -156 738 -156 738 -95 c 0,19,20
 738 -50 738 -50 701 -25 c 128,-1,21
 664 0 664 0 583 0 c 2,22,-1
 533 0 l 2,23,24
 348 0 348 0 252 108.5 c 128,-1,25
 156 217 156 217 156 383 c 0,26,27
 156 521 156 521 224 672 c 128,-1,28
 292 823 292 823 434 991 c 2,29,-1
 664 1256 l 1,30,-1
 662 1261 l 1,31,-1
 97 1261 l 1,32,-1
 97 1456 l 1,33,-1
 970 1456 l 1,0,-1
EndSplineSet
Validated: 1
EndChar

StartChar: eta
Encoding: 951 951 401
Width: 1160
GlyphClass: 1
Flags: W
LayerCount: 2
Fore
SplineSet
348 1082 m 1,0,-1
 361 932 l 1,1,2
 415 1013 415 1013 494.5 1057.5 c 128,-1,3
 574 1102 574 1102 672 1102 c 0,4,5
 843 1102 843 1102 936.5 1001 c 128,-1,6
 1030 900 1030 900 1030 673 c 2,7,-1
 1030 -415 l 1,8,-1
 787 -415 l 1,9,-1
 787 671 l 2,10,11
 787 797 787 797 737.5 852 c 128,-1,12
 688 907 688 907 589 907 c 0,13,14
 514 907 514 907 459 879 c 128,-1,15
 404 851 404 851 369 801 c 1,16,-1
 369 0 l 1,17,-1
 126 0 l 1,18,-1
 126 1082 l 1,19,-1
 348 1082 l 1,0,-1
EndSplineSet
Validated: 1
EndChar

StartChar: theta
Encoding: 952 952 402
Width: 1186
GlyphClass: 1
Flags: W
LayerCount: 2
Fore
SplineSet
1065 521 m 2,0,1
 1065 269 1065 269 935.5 124 c 128,-1,2
 806 -21 806 -21 589 -21 c 256,3,4
 372 -21 372 -21 241 124.5 c 128,-1,5
 110 270 110 270 110 521 c 2,6,-1
 110 934 l 2,7,8
 110 1185 110 1185 240 1331 c 128,-1,9
 370 1477 370 1477 587 1477 c 256,10,11
 804 1477 804 1477 934.5 1331 c 128,-1,12
 1065 1185 1065 1185 1065 934 c 2,13,-1
 1065 521 l 2,0,1
822 634 m 1,14,-1
 353 634 l 1,15,-1
 353 486 l 2,16,17
 353 338 353 338 415 255.5 c 128,-1,18
 477 173 477 173 589 173 c 256,19,20
 701 173 701 173 761.5 255 c 128,-1,21
 822 337 822 337 822 486 c 2,22,-1
 822 634 l 1,14,-1
353 824 m 1,23,-1
 822 824 l 1,24,-1
 822 971 l 2,25,26
 822 1117 822 1117 760 1199.5 c 128,-1,27
 698 1282 698 1282 587 1282 c 0,28,29
 475 1282 475 1282 414 1199.5 c 128,-1,30
 353 1117 353 1117 353 971 c 2,31,-1
 353 824 l 1,23,-1
EndSplineSet
Validated: 1
EndChar

StartChar: iota
Encoding: 953 953 403
Width: 678
GlyphClass: 1
Flags: W
LayerCount: 2
Fore
SplineSet
412 1081 m 1,0,-1
 412 296 l 2,1,2
 412 230 412 230 436.5 204 c 128,-1,3
 461 178 461 178 506 178 c 0,4,5
 532 178 532 178 553 183.5 c 128,-1,6
 574 189 574 189 600 200 c 1,7,-1
 638 23 l 1,8,9
 592 -2 592 -2 548 -11.5 c 128,-1,10
 504 -21 504 -21 450 -21 c 0,11,12
 313 -21 313 -21 241 57.5 c 128,-1,13
 169 136 169 136 169 303 c 2,14,-1
 169 1081 l 1,15,-1
 412 1081 l 1,0,-1
EndSplineSet
Validated: 1
EndChar

StartChar: lambda
Encoding: 955 955 405
Width: 1135
GlyphClass: 1
Flags: W
LayerCount: 2
Fore
SplineSet
301 0 m 1,0,-1
 36 0 l 1,1,-1
 419 1043 l 1,2,-1
 365 1168 l 2,3,4
 336 1236 336 1236 294 1279 c 128,-1,5
 252 1322 252 1322 196 1322 c 0,6,7
 184 1322 184 1322 163 1320 c 128,-1,8
 142 1318 142 1318 129 1317 c 1,9,-1
 126 1499 l 1,10,11
 158 1507 158 1507 189 1512.5 c 128,-1,12
 220 1518 220 1518 250 1518 c 0,13,14
 393 1518 393 1518 470.5 1438 c 128,-1,15
 548 1358 548 1358 592 1246 c 2,16,-1
 953 326 l 2,17,18
 973 266 973 266 1006 228.5 c 128,-1,19
 1039 191 1039 191 1081 187 c 0,20,21
 1096 186 1096 186 1105 186 c 128,-1,22
 1114 186 1114 186 1130 189 c 1,23,-1
 1119 -3 l 1,24,25
 1098 -9 1098 -9 1072.5 -12.5 c 128,-1,26
 1047 -16 1047 -16 1026 -14 c 0,27,28
 905 -9 905 -9 831.5 70.5 c 128,-1,29
 758 150 758 150 709 285 c 2,30,-1
 536 744 l 1,31,-1
 530 744 l 1,32,-1
 507 639 l 1,33,-1
 301 0 l 1,0,-1
EndSplineSet
Validated: 1
EndChar

StartChar: xi
Encoding: 958 958 408
Width: 1068
GlyphClass: 1
Flags: W
LayerCount: 2
Fore
SplineSet
950 1456 m 1,0,-1
 950 1257 l 1,1,-1
 649 1257 l 1,2,3
 539 1249 539 1249 484 1196.5 c 128,-1,4
 429 1144 429 1144 429 1063 c 0,5,6
 429 980 429 980 492.5 933 c 128,-1,7
 556 886 556 886 691 886 c 2,8,-1
 837 886 l 1,9,-1
 837 687 l 1,10,-1
 694 687 l 2,11,12
 522 687 522 687 432.5 616.5 c 128,-1,13
 343 546 343 546 343 410 c 0,14,15
 343 307 343 307 414 242 c 128,-1,16
 485 177 485 177 610 177 c 2,17,-1
 700 177 l 2,18,19
 857 177 857 177 945.5 110 c 128,-1,20
 1034 43 1034 43 1034 -91 c 0,21,22
 1032 -219 1032 -219 951 -309 c 128,-1,23
 870 -399 870 -399 738 -448 c 1,24,-1
 657 -295 l 1,25,26
 720 -266 720 -266 764.5 -226.5 c 128,-1,27
 809 -187 809 -187 809 -123 c 0,28,29
 809 -75 809 -75 775.5 -48 c 128,-1,30
 742 -21 742 -21 672 -21 c 2,31,-1
 603 -21 l 2,32,33
 376 -21 376 -21 238 94 c 128,-1,34
 100 209 100 209 100 414 c 0,35,36
 100 552 100 552 176.5 647 c 128,-1,37
 253 742 253 742 400 788 c 1,38,39
 298 825 298 825 242 889.5 c 128,-1,40
 186 954 186 954 186 1038 c 0,41,42
 186 1111 186 1111 218.5 1166 c 128,-1,43
 251 1221 251 1221 315 1257 c 1,44,-1
 102 1257 l 1,45,-1
 102 1456 l 1,46,-1
 950 1456 l 1,0,-1
EndSplineSet
Validated: 1
EndChar

StartChar: pi
Encoding: 960 960 410
Width: 1267
GlyphClass: 1
Flags: W
LayerCount: 2
Fore
SplineSet
1167 893 m 1,0,-1
 1013 893 l 1,1,-1
 1013 296 l 2,2,3
 1013 230 1013 230 1037.5 204 c 128,-1,4
 1062 178 1062 178 1107 178 c 0,5,6
 1133 178 1133 178 1154 183.5 c 128,-1,7
 1175 189 1175 189 1201 200 c 1,8,-1
 1239 23 l 1,9,10
 1193 -2 1193 -2 1149 -11.5 c 128,-1,11
 1105 -21 1105 -21 1051 -21 c 0,12,13
 914 -21 914 -21 842 57.5 c 128,-1,14
 770 136 770 136 770 303 c 2,15,-1
 770 893 l 1,16,-1
 478 893 l 1,17,-1
 478 0 l 1,18,-1
 235 0 l 1,19,-1
 235 893 l 1,20,-1
 79 893 l 1,21,-1
 79 1082 l 1,22,-1
 1167 1082 l 1,23,-1
 1167 893 l 1,0,-1
EndSplineSet
Validated: 1
EndChar

StartChar: rho
Encoding: 961 961 411
Width: 1160
GlyphClass: 1
Flags: W
LayerCount: 2
Fore
SplineSet
1073 505 m 2,0,1
 1073 268 1073 268 963 123.5 c 128,-1,2
 853 -21 853 -21 656 -21 c 0,3,4
 565 -21 565 -21 493.5 9.5 c 128,-1,5
 422 40 422 40 371 99 c 1,6,-1
 371 -416 l 1,7,-1
 128 -416 l 1,8,-1
 128 575 l 2,9,10
 128 816 128 816 259 959 c 128,-1,11
 390 1102 390 1102 598 1102 c 0,12,13
 827 1102 827 1102 950 944 c 128,-1,14
 1073 786 1073 786 1073 526 c 2,15,-1
 1073 505 l 2,0,1
830 526 m 2,16,17
 830 695 830 695 772.5 801 c 128,-1,18
 715 907 715 907 592 907 c 0,19,20
 482 907 482 907 426.5 804.5 c 128,-1,21
 371 702 371 702 371 563 c 2,22,-1
 371 291 l 1,23,24
 403 234 403 234 456 203.5 c 128,-1,25
 509 173 509 173 587 173 c 0,26,27
 711 173 711 173 770.5 264 c 128,-1,28
 830 355 830 355 830 505 c 2,29,-1
 830 526 l 2,16,17
EndSplineSet
Validated: 1
EndChar

StartChar: sigma1
Encoding: 962 962 412
Width: 1079
GlyphClass: 1
Flags: W
LayerCount: 2
Fore
SplineSet
568 1102 m 0,0,1
 761 1102 761 1102 879.5 993.5 c 128,-1,2
 998 885 998 885 994 700 c 1,3,-1
 992 694 l 1,4,-1
 772 694 l 1,5,6
 772 786 772 786 719.5 846.5 c 128,-1,7
 667 907 667 907 568 907 c 0,8,9
 443 907 443 907 383.5 805 c 128,-1,10
 324 703 324 703 324 558 c 2,11,-1
 324 523 l 2,12,13
 324 385 324 385 397.5 299.5 c 128,-1,14
 471 214 471 214 627 192 c 0,15,16
 812 163 812 163 897.5 104 c 128,-1,17
 983 45 983 45 983 -85 c 0,18,19
 980 -204 980 -204 896.5 -296.5 c 128,-1,20
 813 -389 813 -389 687 -434 c 1,21,-1
 598 -270 l 1,22,23
 664 -239 664 -239 707 -201 c 128,-1,24
 750 -163 750 -163 750 -102 c 0,25,26
 750 -58 750 -58 709 -34.5 c 128,-1,27
 668 -11 668 -11 580 2 c 0,28,29
 330 39 330 39 205.5 172 c 128,-1,30
 81 305 81 305 81 523 c 2,31,-1
 81 558 l 2,32,33
 81 790 81 790 210.5 946 c 128,-1,34
 340 1102 340 1102 568 1102 c 0,0,1
EndSplineSet
Validated: 33
EndChar

StartChar: sigma
Encoding: 963 963 413
Width: 1168
GlyphClass: 1
Flags: W
LayerCount: 2
Fore
SplineSet
1149 886 m 1,0,-1
 883 886 l 1,1,2
 969 818 969 818 1019 720 c 128,-1,3
 1069 622 1069 622 1069 510 c 2,4,-1
 1069 489 l 2,5,6
 1069 274 1069 274 936.5 126.5 c 128,-1,7
 804 -21 804 -21 580 -21 c 0,8,9
 347 -21 347 -21 214.5 133 c 128,-1,10
 82 287 82 287 82 530 c 2,11,-1
 82 551 l 2,12,13
 82 783 82 783 214 932 c 128,-1,14
 346 1081 346 1081 577 1082 c 2,15,-1
 1149 1082 l 1,16,-1
 1149 886 l 1,0,-1
325 530 m 2,17,18
 325 371 325 371 387.5 272 c 128,-1,19
 450 173 450 173 580 173 c 0,20,21
 703 173 703 173 764.5 272.5 c 128,-1,22
 826 372 826 372 826 530 c 2,23,-1
 826 551 l 2,24,25
 826 697 826 697 764.5 791.5 c 128,-1,26
 703 886 703 886 578 886 c 2,27,-1
 577 886 l 2,28,29
 449 885 449 885 387 790.5 c 128,-1,30
 325 696 325 696 325 551 c 2,31,-1
 325 530 l 2,17,18
EndSplineSet
Validated: 1
EndChar

StartChar: tau
Encoding: 964 964 414
Width: 1074
GlyphClass: 1
Flags: W
LayerCount: 2
Fore
SplineSet
1008 889 m 1,0,-1
 657 889 l 1,1,-1
 657 0 l 1,2,-1
 414 0 l 1,3,-1
 414 889 l 1,4,-1
 67 889 l 1,5,-1
 67 1082 l 1,6,-1
 1008 1082 l 1,7,-1
 1008 889 l 1,0,-1
EndSplineSet
Validated: 1
EndChar

StartChar: upsilon
Encoding: 965 965 415
Width: 1160
GlyphClass: 1
Flags: W
LayerCount: 2
Fore
SplineSet
370 1082 m 1,0,-1
 370 470 l 2,1,2
 370 314 370 314 430 243.5 c 128,-1,3
 490 173 490 173 591 173 c 0,4,5
 713 173 713 173 771 288 c 128,-1,6
 829 403 829 403 829 566 c 0,7,8
 826 691 826 691 796.5 819 c 128,-1,9
 767 947 767 947 716 1082 c 1,10,-1
 957 1082 l 1,11,12
 1008 976 1008 976 1040 847 c 128,-1,13
 1072 718 1072 718 1072 566 c 0,14,15
 1072 304 1072 304 959.5 141.5 c 128,-1,16
 847 -21 847 -21 601 -21 c 0,17,18
 376 -21 376 -21 252 100.5 c 128,-1,19
 128 222 128 222 128 472 c 2,20,-1
 128 1082 l 1,21,-1
 370 1082 l 1,0,-1
EndSplineSet
Validated: 1
EndChar

StartChar: phi
Encoding: 966 966 416
Width: 1488
GlyphClass: 1
Flags: W
LayerCount: 2
Fore
SplineSet
856 1082 m 2,0,1
 1100 1082 1100 1082 1256.5 918.5 c 128,-1,2
 1413 755 1413 755 1413 531 c 0,3,4
 1413 312 1413 312 1278.5 161.5 c 128,-1,5
 1144 11 1144 11 856 -15 c 1,6,-1
 856 -478 l 1,7,-1
 613 -478 l 1,8,-1
 613 -14 l 1,9,10
 330 16 330 16 199 180 c 128,-1,11
 68 344 68 344 68 580 c 0,12,13
 68 728 68 728 101.5 853.5 c 128,-1,14
 135 979 135 979 190 1082 c 1,15,-1
 428 1082 l 1,16,17
 374 949 374 949 343.5 825 c 128,-1,18
 313 701 313 701 311 580 c 0,19,20
 311 431 311 431 382 324 c 128,-1,21
 453 217 453 217 607 191 c 1,22,-1
 613 193 l 1,23,-1
 613 1082 l 1,24,-1
 856 1082 l 2,0,1
1170 531 m 0,25,26
 1167 680 1167 680 1086 782 c 128,-1,27
 1005 884 1005 884 862 880 c 1,28,-1
 856 878 l 1,29,-1
 856 190 l 1,30,-1
 862 188 l 1,31,32
 1022 209 1022 209 1096 303.5 c 128,-1,33
 1170 398 1170 398 1170 531 c 0,25,26
EndSplineSet
Validated: 33
EndChar

StartChar: chi
Encoding: 967 967 417
Width: 1135
GlyphClass: 1
Flags: W
LayerCount: 2
Fore
SplineSet
186 1098 m 0,0,1
 329 1098 329 1098 407 1018 c 128,-1,2
 485 938 485 938 528 826 c 2,3,-1
 605 643 l 1,4,-1
 611 643 l 1,5,-1
 825 1082 l 1,6,-1
 1070 1082 l 1,7,-1
 722 365 l 1,8,-1
 916 -93 l 2,9,10
 943 -156 943 -156 973 -191.5 c 128,-1,11
 1003 -227 1003 -227 1044 -231 c 0,12,13
 1059 -232 1059 -232 1068 -232 c 128,-1,14
 1077 -232 1077 -232 1092 -230 c 1,15,-1
 1082 -423 l 1,16,17
 1063 -429 1063 -429 1037 -432 c 128,-1,18
 1011 -435 1011 -435 989 -434 c 0,19,20
 876 -429 876 -429 806.5 -349 c 128,-1,21
 737 -269 737 -269 686 -134 c 1,22,-1
 592 84 l 1,23,-1
 586 85 l 1,24,-1
 343 -416 l 1,25,-1
 95 -416 l 1,26,-1
 474 361 l 1,27,-1
 308 748 l 2,28,29
 280 816 280 816 235 859.5 c 128,-1,30
 190 903 190 903 131 903 c 0,31,32
 120 903 120 903 102.5 901 c 128,-1,33
 85 899 85 899 64 897 c 1,34,-1
 62 1079 l 1,35,36
 90 1087 90 1087 122.5 1092.5 c 128,-1,37
 155 1098 155 1098 186 1098 c 0,0,1
EndSplineSet
Validated: 1
EndChar

StartChar: psi
Encoding: 968 968 418
Width: 1481
GlyphClass: 1
Flags: W
LayerCount: 2
Fore
SplineSet
850 1082 m 1,0,-1
 850 192 l 1,1,-1
 856 190 l 1,2,3
 1014 216 1014 216 1089 323.5 c 128,-1,4
 1164 431 1164 431 1164 580 c 0,5,6
 1161 701 1161 701 1130 826 c 128,-1,7
 1099 951 1099 951 1047 1082 c 1,8,-1
 1285 1082 l 1,9,10
 1339 980 1339 980 1372.5 854 c 128,-1,11
 1406 728 1406 728 1406 580 c 0,12,13
 1406 340 1406 340 1272.5 176 c 128,-1,14
 1139 12 1139 12 850 -16 c 1,15,-1
 850 -478 l 1,16,-1
 607 -478 l 1,17,-1
 607 -14 l 1,18,19
 354 15 354 15 216.5 165 c 128,-1,20
 79 315 79 315 79 593 c 2,21,-1
 79 1082 l 1,22,-1
 322 1082 l 1,23,-1
 322 591 l 2,24,25
 322 409 322 409 397 311 c 128,-1,26
 472 213 472 213 601 192 c 1,27,-1
 607 194 l 1,28,-1
 607 1082 l 1,29,-1
 850 1082 l 1,0,-1
EndSplineSet
Validated: 1
EndChar

StartChar: omega
Encoding: 969 969 419
Width: 1750
GlyphClass: 1
Flags: W
LayerCount: 2
Fore
SplineSet
490 1082 m 1,0,1
 421 949 421 949 381 820.5 c 128,-1,2
 341 692 341 692 337 566 c 1,3,4
 337 393 337 393 385.5 283 c 128,-1,5
 434 173 434 173 541 173 c 0,6,7
 636 173 636 173 692.5 246.5 c 128,-1,8
 749 320 749 320 749 480 c 2,9,-1
 749 805 l 1,10,-1
 1000 805 l 1,11,-1
 1000 480 l 2,12,13
 1000 320 1000 320 1056 246.5 c 128,-1,14
 1112 173 1112 173 1207 173 c 0,15,16
 1314 173 1314 173 1363 282.5 c 128,-1,17
 1412 392 1412 392 1412 566 c 1,18,19
 1407 692 1407 692 1367 821 c 128,-1,20
 1327 950 1327 950 1258 1082 c 1,21,-1
 1500 1082 l 1,22,23
 1569 978 1569 978 1611.5 848.5 c 128,-1,24
 1654 719 1654 719 1654 566 c 0,25,26
 1654 303 1654 303 1550 141 c 128,-1,27
 1446 -21 1446 -21 1218 -21 c 0,28,29
 1096 -21 1096 -21 1008.5 37.5 c 128,-1,30
 921 96 921 96 874 208 c 1,31,32
 827 96 827 96 739.5 37.5 c 128,-1,33
 652 -21 652 -21 531 -21 c 0,34,35
 302 -21 302 -21 198.5 141 c 128,-1,36
 95 303 95 303 95 566 c 0,37,38
 95 719 95 719 137 848.5 c 128,-1,39
 179 978 179 978 249 1082 c 1,40,-1
 490 1082 l 1,0,1
EndSplineSet
Validated: 1
EndChar

StartChar: uni03D1
Encoding: 977 977 425
Width: 1326
GlyphClass: 2
Flags: W
LayerCount: 2
Fore
SplineSet
532 999 m 1,0,-1
 532 1083 l 2,1,2
 532 1262 532 1262 633 1369.5 c 128,-1,3
 734 1477 734 1477 895 1477 c 0,4,5
 1059 1477 1059 1477 1154 1372 c 128,-1,6
 1249 1267 1249 1267 1249 1083 c 2,7,-1
 1249 575 l 2,8,9
 1249 306 1249 306 1092.5 142.5 c 128,-1,10
 936 -21 936 -21 681 -21 c 0,11,12
 430 -21 430 -21 273.5 148.5 c 128,-1,13
 117 318 117 318 117 575 c 2,14,-1
 117 1252 l 1,15,-1
 367 1254 l 1,16,-1
 367 575 l 2,17,18
 367 401 367 401 451.5 291.5 c 128,-1,19
 536 182 536 182 681 182 c 0,20,21
 827 182 827 182 911.5 283 c 128,-1,22
 996 384 996 384 1000 563 c 1,23,24
 794 575 794 575 663 696 c 128,-1,25
 532 817 532 817 532 999 c 1,26,-1
 532 999 l 1,0,-1
1000 1098 m 2,27,28
 1000 1182 1000 1182 971.5 1224 c 128,-1,29
 943 1266 943 1266 887 1266 c 0,30,31
 832 1266 832 1266 800 1223.5 c 128,-1,32
 768 1181 768 1181 768 1098 c 2,33,-1
 768 997 l 2,34,35
 768 898 768 898 828.5 831.5 c 128,-1,36
 889 765 889 765 994 759 c 1,37,-1
 1000 761 l 1,38,-1
 1000 1098 l 2,27,28
EndSplineSet
Validated: 5
EndChar

StartChar: uni03D2
Encoding: 978 978 426
Width: 1141
GlyphClass: 1
Flags: W
LayerCount: 2
Fore
SplineSet
754 1220 m 2,0,1
 810 1359 810 1359 878 1416.5 c 128,-1,2
 946 1474 946 1474 1050 1474 c 0,3,4
 1082 1474 1082 1474 1107.5 1469.5 c 128,-1,5
 1133 1465 1133 1465 1157 1453 c 1,6,-1
 1133 1261 l 1,7,8
 1129 1263 1129 1263 1115.5 1264.5 c 128,-1,9
 1102 1266 1102 1266 1089 1266 c 0,10,11
 1055 1266 1055 1266 1027 1244.5 c 128,-1,12
 999 1223 999 1223 982 1184 c 2,13,-1
 689 525 l 1,14,-1
 689 0 l 1,15,-1
 447 0 l 1,16,-1
 447 530 l 1,17,-1
 155 1184 l 2,18,19
 137 1223 137 1223 109.5 1244.5 c 128,-1,20
 82 1266 82 1266 49 1266 c 0,21,22
 34 1266 34 1266 21 1264.5 c 128,-1,23
 8 1263 8 1263 5 1261 c 1,24,-1
 -18 1453 l 1,25,26
 4 1465 4 1465 29.5 1469.5 c 128,-1,27
 55 1474 55 1474 88 1474 c 0,28,29
 192 1474 192 1474 259.5 1418 c 128,-1,30
 327 1362 327 1362 383 1223 c 2,31,-1
 548 830 l 1,32,-1
 566 752 l 1,33,-1
 572 752 l 1,34,-1
 590 830 l 1,35,-1
 754 1220 l 2,0,1
EndSplineSet
Validated: 1
EndChar

StartChar: uni03D6
Encoding: 982 982 427
Width: 1649
GlyphClass: 1
Flags: W
LayerCount: 2
Fore
SplineSet
1620 910 m 1,0,-1
 1488 910 l 1,1,2
 1515 831 1515 831 1531 745.5 c 128,-1,3
 1547 660 1547 660 1547 566 c 0,4,5
 1547 304 1547 304 1454 141.5 c 128,-1,6
 1361 -21 1361 -21 1157 -21 c 0,7,8
 1040 -21 1040 -21 956 36.5 c 128,-1,9
 872 94 872 94 827 206 c 1,10,11
 781 94 781 94 697 36.5 c 128,-1,12
 613 -21 613 -21 497 -21 c 0,13,14
 293 -21 293 -21 200.5 141.5 c 128,-1,15
 108 304 108 304 108 566 c 0,16,17
 108 660 108 660 123.5 745.5 c 128,-1,18
 139 831 139 831 167 910 c 1,19,-1
 51 910 l 1,20,-1
 51 1082 l 1,21,-1
 1620 1082 l 1,22,-1
 1620 910 l 1,0,-1
1305 566 m 0,23,24
 1302 651 1302 651 1284 737 c 128,-1,25
 1266 823 1266 823 1236 910 c 1,26,-1
 418 910 l 1,27,28
 387 822 387 822 369.5 735.5 c 128,-1,29
 352 649 352 649 350 566 c 0,30,31
 350 394 350 394 387.5 283.5 c 128,-1,32
 425 173 425 173 508 173 c 0,33,34
 596 173 596 173 649.5 246.5 c 128,-1,35
 703 320 703 320 703 480 c 2,36,-1
 703 706 l 1,37,-1
 953 706 l 1,38,-1
 953 480 l 2,39,40
 953 320 953 320 1005.5 246.5 c 128,-1,41
 1058 173 1058 173 1147 173 c 0,42,43
 1229 173 1229 173 1267 282.5 c 128,-1,44
 1305 392 1305 392 1305 566 c 0,23,24
EndSplineSet
Validated: 1
EndChar

StartChar: uni0402
Encoding: 1026 1026 430
Width: 1535
GlyphClass: 1
Flags: W
LayerCount: 2
Fore
SplineSet
1190 1261 m 1,0,-1
 740 1261 l 1,1,-1
 740 901 l 1,2,-1
 918 901 l 2,3,4
 1168 901 1168 901 1321.5 773.5 c 128,-1,5
 1475 646 1475 646 1475 418 c 0,6,7
 1475 282 1475 282 1378 143.5 c 128,-1,8
 1281 5 1281 5 1095 -41 c 1,9,-1
 1010 131 l 1,10,11
 1124 169 1124 169 1178 241 c 128,-1,12
 1232 313 1232 313 1232 418 c 0,13,14
 1231 552 1231 552 1146.5 625.5 c 128,-1,15
 1062 699 1062 699 918 699 c 2,16,-1
 740 699 l 1,17,-1
 740 0 l 1,18,-1
 497 0 l 1,19,-1
 497 1261 l 1,20,-1
 54 1261 l 1,21,-1
 54 1456 l 1,22,-1
 1190 1456 l 1,23,-1
 1190 1261 l 1,0,-1
EndSplineSet
Validated: 1
EndChar

StartChar: uni0404
Encoding: 1028 1028 432
Width: 1342
GlyphClass: 1
Flags: W
LayerCount: 2
Fore
SplineSet
1234 477 m 1,0,-1
 1236 471 l 1,1,2
 1240 251 1240 251 1093 115.5 c 128,-1,3
 946 -20 946 -20 696 -20 c 0,4,5
 442 -20 442 -20 284 151.5 c 128,-1,6
 126 323 126 323 126 590 c 2,7,-1
 126 867 l 2,8,9
 126 1133 126 1133 282 1305.5 c 128,-1,10
 438 1478 438 1478 689 1478 c 0,11,12
 946 1478 946 1478 1093.5 1347 c 128,-1,13
 1241 1216 1241 1216 1237 988 c 1,14,-1
 1235 982 l 1,15,-1
 1000 982 l 1,16,17
 1000 1128 1000 1128 921 1205.5 c 128,-1,18
 842 1283 842 1283 689 1283 c 0,19,20
 541 1283 541 1283 454.5 1165.5 c 128,-1,21
 368 1048 368 1048 368 869 c 2,22,-1
 368 831 l 1,23,-1
 869 831 l 1,24,-1
 869 636 l 1,25,-1
 368 636 l 1,26,-1
 368 590 l 2,27,28
 368 409 368 409 456 291.5 c 128,-1,29
 544 174 544 174 696 174 c 0,30,31
 845 174 845 174 922.5 252 c 128,-1,32
 1000 330 1000 330 1000 477 c 1,33,-1
 1234 477 l 1,0,-1
EndSplineSet
Validated: 33
EndChar

StartChar: uni0405
Encoding: 1029 1029 433
Width: 1259
GlyphClass: 1
Flags: W
LayerCount: 2
Fore
SplineSet
920 374 m 0,0,1
 920 465 920 465 855.5 523 c 128,-1,2
 791 581 791 581 627 627 c 0,3,4
 392 692 392 692 264.5 797.5 c 128,-1,5
 137 903 137 903 137 1073 c 0,6,7
 137 1249 137 1249 277 1363 c 128,-1,8
 417 1477 417 1477 637 1477 c 0,9,10
 873 1477 873 1477 1014.5 1350.5 c 128,-1,11
 1156 1224 1156 1224 1151 1038 c 1,12,-1
 1149 1032 l 1,13,-1
 915 1032 l 1,14,15
 915 1147 915 1147 838.5 1215 c 128,-1,16
 762 1283 762 1283 635 1283 c 0,17,18
 512 1283 512 1283 445.5 1225 c 128,-1,19
 379 1167 379 1167 379 1075 c 0,20,21
 379 991 379 991 452 936.5 c 128,-1,22
 525 882 525 882 694 833 c 0,23,24
 923 769 923 769 1043 658.5 c 128,-1,25
 1163 548 1163 548 1163 376 c 0,26,27
 1163 195 1163 195 1021 87 c 128,-1,28
 879 -21 879 -21 648 -21 c 0,29,30
 426 -21 426 -21 261 97 c 128,-1,31
 96 215 96 215 101 430 c 1,32,-1
 103 436 l 1,33,-1
 337 436 l 1,34,35
 337 305 337 305 427.5 238.5 c 128,-1,36
 518 172 518 172 648 172 c 0,37,38
 777 172 777 172 848.5 226.5 c 128,-1,39
 920 281 920 281 920 374 c 0,0,1
EndSplineSet
Validated: 33
EndChar

StartChar: uni0409
Encoding: 1033 1033 437
Width: 2186
GlyphClass: 1
Flags: W
LayerCount: 2
Fore
SplineSet
1290 1456 m 1,0,-1
 1290 923 l 1,1,-1
 1598 923 l 2,2,3
 1838 923 1838 923 1976.5 794.5 c 128,-1,4
 2115 666 2115 666 2115 461 c 256,5,6
 2115 256 2115 256 1976.5 128 c 128,-1,7
 1838 0 1838 0 1598 0 c 2,8,-1
 1047 0 l 1,9,-1
 1047 1261 l 1,10,-1
 599 1261 l 1,11,-1
 599 781 l 2,12,13
 599 370 599 370 478 185 c 128,-1,14
 357 0 357 0 94 0 c 2,15,-1
 46 0 l 1,16,-1
 46 194 l 1,17,-1
 86 194 l 2,18,19
 235 194 235 194 296 327 c 128,-1,20
 357 460 357 460 357 781 c 2,21,-1
 357 1456 l 1,22,-1
 1290 1456 l 1,0,-1
1290 728 m 1,23,-1
 1290 194 l 1,24,-1
 1598 194 l 2,25,26
 1733 194 1733 194 1803 272 c 128,-1,27
 1873 350 1873 350 1873 463 c 0,28,29
 1873 573 1873 573 1803 650.5 c 128,-1,30
 1733 728 1733 728 1598 728 c 2,31,-1
 1290 728 l 1,23,-1
EndSplineSet
Validated: 1
EndChar

StartChar: uni040A
Encoding: 1034 1034 438
Width: 2185
GlyphClass: 1
Flags: W
LayerCount: 2
Fore
SplineSet
394 836 m 1,0,-1
 1047 836 l 1,1,-1
 1047 1456 l 1,2,-1
 1289 1456 l 1,3,-1
 1289 889 l 1,4,-1
 1598 889 l 2,5,6
 1839 889 1839 889 1977 767 c 128,-1,7
 2115 645 2115 645 2115 448 c 0,8,9
 2115 249 2115 249 1976.5 124.5 c 128,-1,10
 1838 0 1838 0 1598 0 c 2,11,-1
 1047 0 l 1,12,-1
 1047 641 l 1,13,-1
 394 641 l 1,14,-1
 394 0 l 1,15,-1
 151 0 l 1,16,-1
 151 1456 l 1,17,-1
 394 1456 l 1,18,-1
 394 836 l 1,0,-1
1289 694 m 1,19,-1
 1289 202 l 1,20,-1
 1598 202 l 2,21,22
 1733 202 1733 202 1802.5 272.5 c 128,-1,23
 1872 343 1872 343 1872 450 c 0,24,25
 1872 554 1872 554 1802.5 624 c 128,-1,26
 1733 694 1733 694 1598 694 c 2,27,-1
 1289 694 l 1,19,-1
EndSplineSet
Validated: 1
EndChar

StartChar: uni040B
Encoding: 1035 1035 439
Width: 1654
GlyphClass: 1
Flags: W
LayerCount: 2
Fore
SplineSet
1206 1261 m 1,0,-1
 756 1261 l 1,1,-1
 756 971 l 1,2,-1
 1004 971 l 2,3,4
 1254 971 1254 971 1387 857 c 128,-1,5
 1520 743 1520 743 1520 502 c 2,6,-1
 1520 0 l 1,7,-1
 1277 0 l 1,8,-1
 1277 502 l 2,9,10
 1277 655 1277 655 1213 715.5 c 128,-1,11
 1149 776 1149 776 1004 776 c 2,12,-1
 756 776 l 1,13,-1
 756 0 l 1,14,-1
 513 0 l 1,15,-1
 513 1261 l 1,16,-1
 70 1261 l 1,17,-1
 70 1456 l 1,18,-1
 1206 1456 l 1,19,-1
 1206 1261 l 1,0,-1
EndSplineSet
Validated: 1
EndChar

StartChar: uni040F
Encoding: 1039 1039 443
Width: 1435
GlyphClass: 1
Flags: W
LayerCount: 2
Fore
SplineSet
145 1456 m 1,0,-1
 388 1456 l 1,1,-1
 388 194 l 1,2,-1
 1040 194 l 1,3,-1
 1040 1456 l 1,4,-1
 1283 1456 l 1,5,-1
 1283 0 l 1,6,-1
 845 0 l 1,7,-1
 845 -360 l 1,8,-1
 602 -360 l 1,9,-1
 602 0 l 1,10,-1
 145 0 l 1,11,-1
 145 1456 l 1,0,-1
EndSplineSet
Validated: 1
EndChar

StartChar: uni0411
Encoding: 1041 1041 445
Width: 1288
GlyphClass: 1
Flags: W
LayerCount: 2
Fore
SplineSet
1068 1261 m 1,0,-1
 391 1261 l 1,1,-1
 391 916 l 1,2,-1
 699 916 l 2,3,4
 941 916 941 916 1079 790.5 c 128,-1,5
 1217 665 1217 665 1217 461 c 0,6,7
 1217 256 1217 256 1078.5 128 c 128,-1,8
 940 0 940 0 699 0 c 2,9,-1
 148 0 l 1,10,-1
 148 1456 l 1,11,-1
 1068 1456 l 1,12,-1
 1068 1261 l 1,0,-1
391 721 m 1,13,-1
 391 194 l 1,14,-1
 699 194 l 2,15,16
 834 194 834 194 904 272 c 128,-1,17
 974 350 974 350 974 463 c 0,18,19
 974 572 974 572 904 646.5 c 128,-1,20
 834 721 834 721 699 721 c 2,21,-1
 391 721 l 1,13,-1
EndSplineSet
Validated: 1
EndChar

StartChar: uni0414
Encoding: 1044 1044 448
Width: 1526
GlyphClass: 1
Flags: W
LayerCount: 2
Fore
SplineSet
1499 -358 m 1,0,-1
 1256 -358 l 1,1,-1
 1256 0 l 1,2,-1
 278 0 l 1,3,-1
 278 -359 l 1,4,-1
 35 -359 l 1,5,-1
 35 194 l 1,6,-1
 131 194 l 2,7,8
 255 194 255 194 313 358.5 c 128,-1,9
 371 523 371 523 387 860 c 2,10,-1
 420 1456 l 1,11,-1
 1311 1456 l 1,12,-1
 1311 194 l 1,13,-1
 1499 194 l 1,14,-1
 1499 -358 l 1,0,-1
631 860 m 2,15,16
 619 634 619 634 581.5 467.5 c 128,-1,17
 544 301 544 301 478 194 c 1,18,-1
 1068 194 l 1,19,-1
 1068 1261 l 1,20,-1
 652 1261 l 1,21,-1
 631 860 l 2,15,16
EndSplineSet
Validated: 1
EndChar

StartChar: uni0416
Encoding: 1046 1046 450
Width: 1773
GlyphClass: 1
Flags: W
LayerCount: 2
Fore
SplineSet
1086 635 m 1,0,-1
 1012 635 l 1,1,-1
 1012 0 l 1,2,-1
 770 0 l 1,3,-1
 770 635 l 1,4,-1
 690 635 l 1,5,-1
 319 0 l 1,6,-1
 16 0 l 1,7,-1
 493 775 l 1,8,-1
 49 1456 l 1,9,-1
 342 1456 l 1,10,-1
 702 844 l 1,11,-1
 770 844 l 1,12,-1
 770 1456 l 1,13,-1
 1012 1456 l 1,14,-1
 1012 844 l 1,15,-1
 1075 844 l 1,16,-1
 1430 1456 l 1,17,-1
 1723 1456 l 1,18,-1
 1282 775 l 1,19,-1
 1756 0 l 1,20,-1
 1454 0 l 1,21,-1
 1086 635 l 1,0,-1
EndSplineSet
Validated: 1
EndChar

StartChar: uni0417
Encoding: 1047 1047 451
Width: 1367
GlyphClass: 1
Flags: W
LayerCount: 2
Fore
SplineSet
677 839 m 2,0,1
 834 839 834 839 909 898 c 128,-1,2
 984 957 984 957 984 1061 c 0,3,4
 984 1156 984 1156 902 1219 c 128,-1,5
 820 1282 820 1282 661 1282 c 0,6,7
 535 1282 535 1282 450.5 1221.5 c 128,-1,8
 366 1161 366 1161 366 1069 c 1,9,-1
 132 1069 l 1,10,-1
 130 1075 l 1,11,12
 124 1254 124 1254 279 1365.5 c 128,-1,13
 434 1477 434 1477 661 1477 c 0,14,15
 923 1477 923 1477 1074.5 1369 c 128,-1,16
 1226 1261 1226 1261 1226 1061 c 0,17,18
 1226 961 1226 961 1160 878 c 128,-1,19
 1094 795 1094 795 978 748 c 1,20,21
 1109 705 1109 705 1179 618.5 c 128,-1,22
 1249 532 1249 532 1249 408 c 0,23,24
 1249 207 1249 207 1086 93 c 128,-1,25
 923 -21 923 -21 661 -21 c 0,26,27
 434 -21 434 -21 269 86 c 128,-1,28
 104 193 104 193 109 398 c 1,29,-1
 111 404 l 1,30,-1
 345 404 l 1,31,32
 345 306 345 306 433.5 239.5 c 128,-1,33
 522 173 522 173 661 173 c 0,34,35
 821 173 821 173 913.5 238.5 c 128,-1,36
 1006 304 1006 304 1006 407 c 0,37,38
 1006 529 1006 529 923 587.5 c 128,-1,39
 840 646 840 646 677 646 c 2,40,-1
 488 646 l 1,41,-1
 488 839 l 1,42,-1
 677 839 l 2,0,1
EndSplineSet
Validated: 33
EndChar

StartChar: uni0418
Encoding: 1048 1048 452
Width: 1435
GlyphClass: 1
Flags: W
LayerCount: 2
Fore
SplineSet
1044 1456 m 1,0,-1
 1287 1456 l 1,1,-1
 1287 0 l 1,2,-1
 1044 0 l 1,3,-1
 1044 1044 l 1,4,-1
 1038 1046 l 1,5,-1
 392 0 l 1,6,-1
 150 0 l 1,7,-1
 150 1456 l 1,8,-1
 392 1456 l 1,9,-1
 392 413 l 1,10,-1
 398 411 l 1,11,-1
 1044 1456 l 1,0,-1
EndSplineSet
Validated: 1
EndChar

StartChar: uni041B
Encoding: 1051 1051 455
Width: 1442
GlyphClass: 1
Flags: W
LayerCount: 2
Fore
SplineSet
1290 1456 m 1,0,-1
 1290 0 l 1,1,-1
 1047 0 l 1,2,-1
 1047 1261 l 1,3,-1
 575 1261 l 1,4,-1
 575 781 l 2,5,6
 575 370 575 370 460.5 185 c 128,-1,7
 346 0 346 0 94 0 c 2,8,-1
 46 0 l 1,9,-1
 46 194 l 1,10,-1
 86 194 l 2,11,12
 224 194 224 194 278.5 326 c 128,-1,13
 333 458 333 458 333 781 c 2,14,-1
 333 1456 l 1,15,-1
 1290 1456 l 1,0,-1
EndSplineSet
Validated: 1
EndChar

StartChar: uni0423
Encoding: 1059 1059 463
Width: 1303
GlyphClass: 1
Flags: W
LayerCount: 2
Fore
SplineSet
600 798 m 1,0,-1
 651 650 l 1,1,-1
 657 650 l 1,2,-1
 984 1456 l 1,3,-1
 1252 1456 l 1,4,-1
 723 258 l 2,5,6
 664 125 664 125 579.5 52 c 128,-1,7
 495 -21 495 -21 338 -21 c 0,8,9
 275 -21 275 -21 223 -10.5 c 128,-1,10
 171 0 171 0 126 18 c 1,11,-1
 154 199 l 1,12,13
 194 188 194 188 235 180.5 c 128,-1,14
 276 173 276 173 311 173 c 0,15,16
 393 173 393 173 440 211.5 c 128,-1,17
 487 250 487 250 514 317 c 2,18,-1
 544 385 l 1,19,-1
 47 1456 l 1,20,-1
 313 1456 l 1,21,-1
 600 798 l 1,0,-1
EndSplineSet
Validated: 1
EndChar

StartChar: uni0426
Encoding: 1062 1062 466
Width: 1546
GlyphClass: 1
Flags: W
LayerCount: 2
Fore
SplineSet
142 1456 m 1,0,-1
 385 1456 l 1,1,-1
 385 195 l 1,2,-1
 1038 195 l 1,3,-1
 1038 1456 l 1,4,-1
 1281 1456 l 1,5,-1
 1281 197 l 1,6,-1
 1473 197 l 1,7,-1
 1473 -359 l 1,8,-1
 1231 -359 l 1,9,-1
 1231 0 l 1,10,-1
 142 0 l 1,11,-1
 142 1456 l 1,0,-1
EndSplineSet
Validated: 1
EndChar

StartChar: uni0427
Encoding: 1063 1063 467
Width: 1409
GlyphClass: 1
Flags: W
LayerCount: 2
Fore
SplineSet
1257 1456 m 1,0,-1
 1257 0 l 1,1,-1
 1014 0 l 1,2,-1
 1014 577 l 1,3,4
 936 556 936 556 848.5 545 c 128,-1,5
 761 534 761 534 666 534 c 0,6,7
 413 534 413 534 278 645.5 c 128,-1,8
 143 757 143 757 143 997 c 2,9,-1
 143 1456 l 1,10,-1
 386 1456 l 1,11,-1
 386 997 l 2,12,13
 386 845 386 845 452 787.5 c 128,-1,14
 518 730 518 730 666 730 c 0,15,16
 750 730 750 730 841 741.5 c 128,-1,17
 932 753 932 753 1014 774 c 1,18,-1
 1014 1456 l 1,19,-1
 1257 1456 l 1,0,-1
EndSplineSet
Validated: 1
EndChar

StartChar: uni0428
Encoding: 1064 1064 468
Width: 2098
GlyphClass: 1
Flags: W
LayerCount: 2
Fore
SplineSet
390 1456 m 1,0,-1
 390 194 l 1,1,-1
 936 194 l 1,2,-1
 936 1456 l 1,3,-1
 1178 1456 l 1,4,-1
 1178 194 l 1,5,-1
 1721 194 l 1,6,-1
 1721 1456 l 1,7,-1
 1964 1456 l 1,8,-1
 1964 0 l 1,9,-1
 147 0 l 1,10,-1
 147 1456 l 1,11,-1
 390 1456 l 1,0,-1
EndSplineSet
Validated: 1
EndChar

StartChar: uni0429
Encoding: 1065 1065 469
Width: 2208
GlyphClass: 1
Flags: W
LayerCount: 2
Fore
SplineSet
390 1456 m 1,0,-1
 390 194 l 1,1,-1
 936 194 l 1,2,-1
 936 1456 l 1,3,-1
 1178 1456 l 1,4,-1
 1178 194 l 1,5,-1
 1721 194 l 1,6,-1
 1721 1456 l 1,7,-1
 1964 1456 l 1,8,-1
 1964 187 l 1,9,-1
 2161 187 l 1,10,-1
 2161 -354 l 1,11,-1
 1918 -354 l 1,12,-1
 1918 0 l 1,13,-1
 147 0 l 1,14,-1
 147 1456 l 1,15,-1
 390 1456 l 1,0,-1
EndSplineSet
Validated: 1
EndChar

StartChar: uni042A
Encoding: 1066 1066 470
Width: 1464
GlyphClass: 1
Flags: W
LayerCount: 2
Fore
SplineSet
3 1456 m 1,0,-1
 554 1456 l 1,1,-1
 554 916 l 1,2,-1
 862 916 l 2,3,4
 1104 916 1104 916 1242 790.5 c 128,-1,5
 1380 665 1380 665 1380 461 c 0,6,7
 1380 256 1380 256 1241.5 128 c 128,-1,8
 1103 0 1103 0 862 0 c 2,9,-1
 311 0 l 1,10,-1
 311 1261 l 1,11,-1
 3 1261 l 1,12,-1
 3 1456 l 1,0,-1
554 721 m 1,13,-1
 554 194 l 1,14,-1
 862 194 l 2,15,16
 997 194 997 194 1067 272 c 128,-1,17
 1137 350 1137 350 1137 463 c 0,18,19
 1137 572 1137 572 1067 646.5 c 128,-1,20
 997 721 997 721 862 721 c 2,21,-1
 554 721 l 1,13,-1
EndSplineSet
Validated: 1
EndChar

StartChar: uni042B
Encoding: 1067 1067 471
Width: 1763
GlyphClass: 1
Flags: W
LayerCount: 2
Fore
SplineSet
391 916 m 1,0,-1
 699 916 l 2,1,2
 941 916 941 916 1079 790.5 c 128,-1,3
 1217 665 1217 665 1217 461 c 0,4,5
 1217 256 1217 256 1078.5 128 c 128,-1,6
 940 0 940 0 699 0 c 2,7,-1
 148 0 l 1,8,-1
 148 1456 l 1,9,-1
 391 1456 l 1,10,-1
 391 916 l 1,0,-1
1614 0 m 1,11,-1
 1371 0 l 1,12,-1
 1371 1456 l 1,13,-1
 1614 1456 l 1,14,-1
 1614 0 l 1,11,-1
391 721 m 1,15,-1
 391 194 l 1,16,-1
 699 194 l 2,17,18
 834 194 834 194 904 272 c 128,-1,19
 974 350 974 350 974 463 c 0,20,21
 974 572 974 572 904 646.5 c 128,-1,22
 834 721 834 721 699 721 c 2,23,-1
 391 721 l 1,15,-1
EndSplineSet
Validated: 1
EndChar

StartChar: uni042C
Encoding: 1068 1068 472
Width: 1287
GlyphClass: 1
Flags: W
LayerCount: 2
Fore
SplineSet
391 916 m 1,0,-1
 699 916 l 2,1,2
 941 916 941 916 1079 790.5 c 128,-1,3
 1217 665 1217 665 1217 461 c 0,4,5
 1217 256 1217 256 1078.5 128 c 128,-1,6
 940 0 940 0 699 0 c 2,7,-1
 148 0 l 1,8,-1
 148 1456 l 1,9,-1
 391 1456 l 1,10,-1
 391 916 l 1,0,-1
391 721 m 1,11,-1
 391 194 l 1,12,-1
 699 194 l 2,13,14
 834 194 834 194 904 272 c 128,-1,15
 974 350 974 350 974 463 c 0,16,17
 974 572 974 572 904 646.5 c 128,-1,18
 834 721 834 721 699 721 c 2,19,-1
 391 721 l 1,11,-1
EndSplineSet
Validated: 1
EndChar

StartChar: uni042D
Encoding: 1069 1069 473
Width: 1340
GlyphClass: 1
Flags: W
LayerCount: 2
Fore
SplineSet
144 980 m 1,0,-1
 142 986 l 1,1,2
 137 1205 137 1205 282.5 1341.5 c 128,-1,3
 428 1478 428 1478 678 1478 c 256,4,5
 928 1478 928 1478 1083.5 1306 c 128,-1,6
 1239 1134 1239 1134 1239 867 c 2,7,-1
 1239 590 l 2,8,9
 1239 322 1239 322 1083.5 151 c 128,-1,10
 928 -20 928 -20 678 -20 c 0,11,12
 425 -20 425 -20 281 110 c 128,-1,13
 137 240 137 240 142 469 c 1,14,-1
 144 475 l 1,15,-1
 378 475 l 1,16,17
 378 328 378 328 453 251 c 128,-1,18
 528 174 528 174 678 174 c 0,19,20
 825 174 825 174 910 291 c 128,-1,21
 995 408 995 408 995 588 c 2,22,-1
 995 648 l 1,23,-1
 481 648 l 1,24,-1
 481 844 l 1,25,-1
 995 844 l 1,26,-1
 995 867 l 2,27,28
 995 1047 995 1047 910 1165 c 128,-1,29
 825 1283 825 1283 678 1283 c 0,30,31
 529 1283 529 1283 454 1205 c 128,-1,32
 379 1127 379 1127 379 980 c 1,33,-1
 144 980 l 1,0,-1
EndSplineSet
Validated: 33
EndChar

StartChar: uni042E
Encoding: 1070 1070 474
Width: 1876
GlyphClass: 1
Flags: W
LayerCount: 2
Fore
SplineSet
1777 597 m 2,0,1
 1777 330 1777 330 1609.5 154.5 c 128,-1,2
 1442 -21 1442 -21 1174 -21 c 0,3,4
 913 -21 913 -21 749 154.5 c 128,-1,5
 585 330 585 330 585 597 c 2,6,-1
 585 615 l 1,7,-1
 416 615 l 1,8,-1
 416 0 l 1,9,-1
 173 0 l 1,10,-1
 173 1456 l 1,11,-1
 416 1456 l 1,12,-1
 416 811 l 1,13,-1
 585 811 l 1,14,-1
 585 859 l 2,15,16
 585 1125 585 1125 748.5 1301 c 128,-1,17
 912 1477 912 1477 1174 1477 c 0,18,19
 1441 1477 1441 1477 1609 1301 c 128,-1,20
 1777 1125 1777 1125 1777 859 c 2,21,-1
 1777 597 l 2,0,1
1534 861 m 2,22,23
 1534 1043 1534 1043 1437 1160 c 128,-1,24
 1340 1277 1340 1277 1174 1277 c 0,25,26
 1013 1277 1013 1277 920.5 1160 c 128,-1,27
 828 1043 828 1043 828 861 c 2,28,-1
 828 597 l 2,29,30
 828 413 828 413 921 295.5 c 128,-1,31
 1014 178 1014 178 1174 178 c 0,32,33
 1341 178 1341 178 1437.5 295 c 128,-1,34
 1534 412 1534 412 1534 597 c 2,35,-1
 1534 861 l 2,22,23
EndSplineSet
Validated: 1
EndChar

StartChar: uni042F
Encoding: 1071 1071 475
Width: 1207
GlyphClass: 1
Flags: W
LayerCount: 2
Fore
SplineSet
268 0 m 1,0,-1
 8 0 l 1,1,-1
 336 652 l 1,2,3
 207 708 207 708 141.5 802 c 128,-1,4
 76 896 76 896 76 1029 c 0,5,6
 76 1232 76 1232 215.5 1344 c 128,-1,7
 355 1456 355 1456 601 1456 c 2,8,-1
 1085 1456 l 1,9,-1
 1085 0 l 1,10,-1
 842 0 l 1,11,-1
 842 582 l 1,12,-1
 555 582 l 1,13,-1
 268 0 l 1,0,-1
842 1261 m 1,14,-1
 601 1261 l 2,15,16
 462 1261 462 1261 390 1198 c 128,-1,17
 318 1135 318 1135 318 1024 c 0,18,19
 318 912 318 912 391 841.5 c 128,-1,20
 464 771 464 771 601 771 c 2,21,-1
 842 771 l 1,22,-1
 842 1261 l 1,14,-1
EndSplineSet
Validated: 1
EndChar

StartChar: uni0431
Encoding: 1073 1073 477
Width: 1140
GlyphClass: 1
Flags: W
LayerCount: 2
Fore
SplineSet
611 1102 m 0,0,1
 827 1102 827 1102 951.5 947.5 c 128,-1,2
 1076 793 1076 793 1076 551 c 2,3,-1
 1076 530 l 2,4,5
 1076 287 1076 287 943.5 133 c 128,-1,6
 811 -21 811 -21 580 -21 c 0,7,8
 347 -21 347 -21 214.5 133 c 128,-1,9
 82 287 82 287 82 530 c 2,10,-1
 82 551 l 2,11,12
 82 558 82 558 82 563 c 128,-1,13
 82 568 82 568 83 574 c 2,14,-1
 83 804 l 2,15,16
 83 1127 83 1127 205.5 1274 c 128,-1,17
 328 1421 328 1421 577 1432 c 0,18,19
 710 1436 710 1436 780 1463.5 c 128,-1,20
 850 1491 850 1491 850 1555 c 1,21,-1
 1036 1555 l 1,22,-1
 1038 1549 l 1,23,24
 1043 1371 1043 1371 931 1301.5 c 128,-1,25
 819 1232 819 1232 597 1228 c 0,26,27
 448 1224 448 1224 365 1154 c 128,-1,28
 282 1084 282 1084 285 957 c 1,29,-1
 288 952 l 1,30,31
 345 1018 345 1018 430 1060 c 128,-1,32
 515 1102 515 1102 611 1102 c 0,0,1
578 907 m 256,33,34
 450 907 450 907 387.5 806.5 c 128,-1,35
 325 706 325 706 325 551 c 2,36,-1
 325 530 l 2,37,38
 325 371 325 371 387.5 272 c 128,-1,39
 450 173 450 173 580 173 c 0,40,41
 707 173 707 173 770 272.5 c 128,-1,42
 833 372 833 372 833 530 c 2,43,-1
 833 551 l 2,44,45
 833 706 833 706 769.5 806.5 c 128,-1,46
 706 907 706 907 578 907 c 256,33,34
EndSplineSet
Validated: 33
EndChar

StartChar: uni0432
Encoding: 1074 1074 478
Width: 1160
GlyphClass: 1
Flags: W
LayerCount: 2
Fore
SplineSet
136 0 m 1,0,-1
 136 1082 l 1,1,-1
 575 1082 l 2,2,3
 790 1082 790 1082 909.5 1006.5 c 128,-1,4
 1029 931 1029 931 1029 782 c 0,5,6
 1029 706 1029 706 981 646.5 c 128,-1,7
 933 587 933 587 845 556 c 1,8,9
 956 532 956 532 1015.5 464.5 c 128,-1,10
 1075 397 1075 397 1075 309 c 0,11,12
 1075 157 1075 157 962.5 78.5 c 128,-1,13
 850 0 850 0 644 0 c 2,14,-1
 136 0 l 1,0,-1
378 461 m 1,15,-1
 378 192 l 1,16,-1
 644 192 l 2,17,18
 738 192 738 192 785 226.5 c 128,-1,19
 832 261 832 261 832 326 c 0,20,21
 832 390 832 390 786 425.5 c 128,-1,22
 740 461 740 461 644 461 c 2,23,-1
 378 461 l 1,15,-1
378 635 m 1,24,-1
 589 635 l 2,25,26
 688 636 688 636 737 667 c 128,-1,27
 786 698 786 698 786 757 c 0,28,29
 786 824 786 824 733 856.5 c 128,-1,30
 680 889 680 889 575 889 c 2,31,-1
 378 889 l 1,32,-1
 378 635 l 1,24,-1
EndSplineSet
Validated: 1
EndChar

StartChar: uni0433
Encoding: 1075 1075 479
Width: 852
GlyphClass: 1
Flags: W
LayerCount: 2
Fore
SplineSet
838 886 m 1,0,-1
 369 886 l 1,1,-1
 369 0 l 1,2,-1
 126 0 l 1,3,-1
 126 1082 l 1,4,-1
 838 1082 l 1,5,-1
 838 886 l 1,0,-1
EndSplineSet
Validated: 1
EndChar

StartChar: uni0434
Encoding: 1076 1076 480
Width: 1331
GlyphClass: 1
Flags: W
LayerCount: 2
Fore
SplineSet
138 194 m 1,0,-1
 174 195 l 2,1,2
 252 195 252 195 286.5 304.5 c 128,-1,3
 321 414 321 414 335 655 c 2,4,-1
 359 1082 l 1,5,-1
 1117 1082 l 1,6,-1
 1117 194 l 1,7,-1
 1263 194 l 1,8,-1
 1263 -358 l 1,9,-1
 1021 -358 l 1,10,-1
 1021 0 l 1,11,-1
 314 0 l 1,12,-1
 314 -358 l 1,13,-1
 71 -358 l 1,14,-1
 71 194 l 1,15,-1
 138 194 l 1,0,-1
577 655 m 2,16,17
 568 498 568 498 549 385 c 128,-1,18
 530 272 530 272 494 194 c 1,19,-1
 874 194 l 1,20,-1
 874 873 l 1,21,-1
 589 873 l 1,22,-1
 577 655 l 2,16,17
EndSplineSet
Validated: 1
EndChar

StartChar: uni0436
Encoding: 1078 1078 482
Width: 1560
GlyphClass: 1
Flags: W
LayerCount: 2
Fore
SplineSet
970 435 m 1,0,-1
 900 435 l 1,1,-1
 900 0 l 1,2,-1
 658 0 l 1,3,-1
 658 435 l 1,4,-1
 588 435 l 1,5,-1
 330 0 l 1,6,-1
 22 0 l 1,7,-1
 400 575 l 1,8,-1
 48 1082 l 1,9,-1
 348 1082 l 1,10,-1
 603 657 l 1,11,-1
 658 657 l 1,12,-1
 658 1082 l 1,13,-1
 900 1082 l 1,14,-1
 900 657 l 1,15,-1
 956 657 l 1,16,-1
 1211 1082 l 1,17,-1
 1512 1082 l 1,18,-1
 1159 575 l 1,19,-1
 1537 0 l 1,20,-1
 1228 0 l 1,21,-1
 970 435 l 1,0,-1
EndSplineSet
Validated: 1
EndChar

StartChar: uni0437
Encoding: 1079 1079 483
Width: 1120
GlyphClass: 1
Flags: W
LayerCount: 2
Fore
SplineSet
566 640 m 2,0,1
 666 640 666 640 715.5 675.5 c 128,-1,2
 765 711 765 711 765 774 c 0,3,4
 765 832 765 832 712.5 873 c 128,-1,5
 660 914 660 914 559 914 c 0,6,7
 469 914 469 914 409.5 874.5 c 128,-1,8
 350 835 350 835 350 775 c 1,9,-1
 118 775 l 1,10,-1
 116 781 l 1,11,12
 110 924 110 924 236.5 1012.5 c 128,-1,13
 363 1101 363 1101 552 1101 c 0,14,15
 761 1101 761 1101 884 1019 c 128,-1,16
 1007 937 1007 937 1007 786 c 0,17,18
 1007 714 1007 714 958.5 653.5 c 128,-1,19
 910 593 910 593 825 557 c 1,20,21
 923 524 923 524 975 460 c 128,-1,22
 1027 396 1027 396 1027 306 c 0,23,24
 1027 155 1027 155 894.5 67.5 c 128,-1,25
 762 -20 762 -20 552 -20 c 0,26,27
 363 -20 363 -20 228 66 c 128,-1,28
 93 152 93 152 99 315 c 1,29,-1
 101 321 l 1,30,-1
 333 321 l 1,31,32
 333 257 333 257 394.5 211.5 c 128,-1,33
 456 166 456 166 560 166 c 256,34,35
 664 166 664 166 724 209.5 c 128,-1,36
 784 253 784 253 784 316 c 0,37,38
 784 393 784 393 728.5 429 c 128,-1,39
 673 465 673 465 566 465 c 2,40,-1
 372 465 l 1,41,-1
 372 640 l 1,42,-1
 566 640 l 2,0,1
EndSplineSet
Validated: 33
EndChar

StartChar: uni0438
Encoding: 1080 1080 484
Width: 1160
GlyphClass: 1
Flags: W
LayerCount: 2
Fore
SplineSet
792 1082 m 1,0,-1
 1034 1082 l 1,1,-1
 1034 0 l 1,2,-1
 792 0 l 1,3,-1
 792 718 l 1,4,-1
 786 720 l 1,5,-1
 368 0 l 1,6,-1
 126 0 l 1,7,-1
 126 1082 l 1,8,-1
 368 1082 l 1,9,-1
 368 365 l 1,10,-1
 374 363 l 1,11,-1
 792 1082 l 1,0,-1
EndSplineSet
Validated: 1
EndChar

StartChar: uni043A
Encoding: 1082 1082 486
Width: 1143
GlyphClass: 1
Flags: W
LayerCount: 2
Fore
SplineSet
494 428 m 1,0,-1
 384 428 l 1,1,-1
 384 0 l 1,2,-1
 142 0 l 1,3,-1
 142 1082 l 1,4,-1
 384 1082 l 1,5,-1
 384 650 l 1,6,-1
 469 650 l 1,7,-1
 790 1082 l 1,8,-1
 1091 1082 l 1,9,-1
 683 566 l 1,10,-1
 1124 0 l 1,11,-1
 808 0 l 1,12,-1
 494 428 l 1,0,-1
EndSplineSet
Validated: 1
EndChar

StartChar: uni043B
Encoding: 1083 1083 487
Width: 1141
GlyphClass: 1
Flags: W
LayerCount: 2
Fore
SplineSet
1034 1082 m 1,0,-1
 1034 0 l 1,1,-1
 792 0 l 1,2,-1
 792 886 l 1,3,-1
 477 886 l 1,4,-1
 477 621 l 2,5,6
 477 301 477 301 386 150.5 c 128,-1,7
 295 0 295 0 74 0 c 2,8,-1
 22 0 l 1,9,-1
 23 205 l 1,10,-1
 59 205 l 2,11,12
 162 205 162 205 198 297 c 128,-1,13
 234 389 234 389 234 621 c 2,14,-1
 234 1082 l 1,15,-1
 1034 1082 l 1,0,-1
EndSplineSet
Validated: 1
EndChar

StartChar: uni043C
Encoding: 1084 1084 488
Width: 1542
GlyphClass: 1
Flags: W
LayerCount: 2
Fore
SplineSet
763 306 m 1,0,-1
 769 306 l 1,1,-1
 1086 1082 l 1,2,-1
 1390 1082 l 1,3,-1
 1390 0 l 1,4,-1
 1147 0 l 1,5,-1
 1147 704 l 1,6,-1
 1141 705 l 1,7,-1
 848 0 l 1,8,-1
 683 0 l 1,9,-1
 390 708 l 1,10,-1
 384 707 l 1,11,-1
 384 0 l 1,12,-1
 142 0 l 1,13,-1
 142 1082 l 1,14,-1
 448 1082 l 1,15,-1
 763 306 l 1,0,-1
EndSplineSet
Validated: 1
EndChar

StartChar: uni043D
Encoding: 1085 1085 489
Width: 1160
GlyphClass: 1
Flags: W
LayerCount: 2
Fore
SplineSet
1033 0 m 1,0,-1
 790 0 l 1,1,-1
 790 437 l 1,2,-1
 369 437 l 1,3,-1
 369 0 l 1,4,-1
 126 0 l 1,5,-1
 126 1082 l 1,6,-1
 369 1082 l 1,7,-1
 369 631 l 1,8,-1
 790 631 l 1,9,-1
 790 1082 l 1,10,-1
 1033 1082 l 1,11,-1
 1033 0 l 1,0,-1
EndSplineSet
Validated: 1
EndChar

StartChar: uni043F
Encoding: 1087 1087 491
Width: 1160
GlyphClass: 1
Flags: W
LayerCount: 2
Fore
SplineSet
1034 0 m 1,0,-1
 791 0 l 1,1,-1
 791 886 l 1,2,-1
 369 886 l 1,3,-1
 369 0 l 1,4,-1
 126 0 l 1,5,-1
 126 1082 l 1,6,-1
 1034 1082 l 1,7,-1
 1034 0 l 1,0,-1
EndSplineSet
Validated: 1
EndChar

StartChar: uni0441
Encoding: 1089 1089 493
Width: 1065
GlyphClass: 1
Flags: W
LayerCount: 2
Fore
SplineSet
569 173 m 0,0,1
 652 173 652 173 709.5 225 c 128,-1,2
 767 277 767 277 767 357 c 1,3,-1
 987 357 l 1,4,-1
 989 351 l 1,5,6
 993 199 993 199 868.5 89 c 128,-1,7
 744 -21 744 -21 569 -21 c 0,8,9
 335 -21 335 -21 208 133.5 c 128,-1,10
 81 288 81 288 81 523 c 2,11,-1
 81 558 l 2,12,13
 81 792 81 792 208 947 c 128,-1,14
 335 1102 335 1102 568 1102 c 0,15,16
 757 1102 757 1102 875 988.5 c 128,-1,17
 993 875 993 875 989 700 c 1,18,-1
 987 694 l 1,19,-1
 767 694 l 1,20,21
 767 783 767 783 712 845 c 128,-1,22
 657 907 657 907 568 907 c 0,23,24
 438 907 438 907 381 806.5 c 128,-1,25
 324 706 324 706 324 558 c 2,26,-1
 324 523 l 2,27,28
 324 372 324 372 380.5 272.5 c 128,-1,29
 437 173 437 173 569 173 c 0,0,1
EndSplineSet
Validated: 33
EndChar

StartChar: uni0442
Encoding: 1090 1090 494
Width: 1058
GlyphClass: 1
Flags: W
LayerCount: 2
Fore
SplineSet
1001 889 m 1,0,-1
 649 889 l 1,1,-1
 649 0 l 1,2,-1
 406 0 l 1,3,-1
 406 889 l 1,4,-1
 60 889 l 1,5,-1
 60 1082 l 1,6,-1
 1001 1082 l 1,7,-1
 1001 889 l 1,0,-1
EndSplineSet
Validated: 1
EndChar

StartChar: uni0444
Encoding: 1092 1092 496
Width: 1809
GlyphClass: 1
Flags: W
LayerCount: 2
Fore
SplineSet
81 526 m 2,0,1
 81 785 81 785 192 943.5 c 128,-1,2
 303 1102 303 1102 504 1102 c 0,3,4
 589 1102 589 1102 656.5 1072 c 128,-1,5
 724 1042 724 1042 775 986 c 1,6,-1
 775 1560 l 1,7,-1
 1017 1560 l 1,8,-1
 1017 975 l 1,9,10
 1069 1037 1069 1037 1139.5 1069.5 c 128,-1,11
 1210 1102 1210 1102 1300 1102 c 0,12,13
 1500 1102 1500 1102 1611.5 943.5 c 128,-1,14
 1723 785 1723 785 1723 526 c 2,15,-1
 1723 505 l 2,16,17
 1723 268 1723 268 1611.5 123.5 c 128,-1,18
 1500 -21 1500 -21 1302 -21 c 0,19,20
 1211 -21 1211 -21 1140 10 c 128,-1,21
 1069 41 1069 41 1017 100 c 1,22,-1
 1017 -416 l 1,23,-1
 775 -416 l 1,24,-1
 775 92 l 1,25,26
 724 36 724 36 656 7.5 c 128,-1,27
 588 -21 588 -21 502 -21 c 0,28,29
 303 -21 303 -21 192 124 c 128,-1,30
 81 269 81 269 81 505 c 2,31,-1
 81 526 l 2,0,1
1480 526 m 2,32,33
 1480 693 1480 693 1418 800 c 128,-1,34
 1356 907 1356 907 1232 907 c 0,35,36
 1156 907 1156 907 1102.5 873.5 c 128,-1,37
 1049 840 1049 840 1017 780 c 1,38,-1
 1017 293 l 1,39,40
 1049 236 1049 236 1102.5 204.5 c 128,-1,41
 1156 173 1156 173 1234 173 c 0,42,43
 1358 173 1358 173 1419 264.5 c 128,-1,44
 1480 356 1480 356 1480 505 c 2,45,-1
 1480 526 l 2,32,33
324 505 m 2,46,47
 324 355 324 355 381.5 264 c 128,-1,48
 439 173 439 173 564 173 c 0,49,50
 638 173 638 173 689.5 202.5 c 128,-1,51
 741 232 741 232 775 288 c 1,52,-1
 775 792 l 1,53,54
 741 846 741 846 689 876.5 c 128,-1,55
 637 907 637 907 566 907 c 0,56,57
 442 907 442 907 383 800.5 c 128,-1,58
 324 694 324 694 324 526 c 2,59,-1
 324 505 l 2,46,47
EndSplineSet
Validated: 1
EndChar

StartChar: uni0446
Encoding: 1094 1094 498
Width: 1232
GlyphClass: 1
Flags: W
LayerCount: 2
Fore
SplineSet
126 1082 m 1,0,-1
 369 1082 l 1,1,-1
 369 194 l 1,2,-1
 791 194 l 1,3,-1
 791 1082 l 1,4,-1
 1034 1082 l 1,5,-1
 1034 194 l 1,6,-1
 1179 194 l 1,7,-1
 1179 -356 l 1,8,-1
 936 -356 l 1,9,-1
 936 0 l 1,10,-1
 126 0 l 1,11,-1
 126 1082 l 1,0,-1
EndSplineSet
Validated: 1
EndChar

StartChar: uni0447
Encoding: 1095 1095 499
Width: 1139
GlyphClass: 1
Flags: W
LayerCount: 2
Fore
SplineSet
1013 0 m 1,0,-1
 770 0 l 1,1,-1
 770 361 l 1,2,3
 722 350 722 350 671.5 344.5 c 128,-1,4
 621 339 621 339 571 339 c 0,5,6
 355 339 355 339 235.5 442 c 128,-1,7
 116 545 116 545 116 751 c 2,8,-1
 116 1083 l 1,9,-1
 358 1083 l 1,10,-1
 358 751 l 2,11,12
 358 635 358 635 409.5 585 c 128,-1,13
 461 535 461 535 571 535 c 0,14,15
 624 535 624 535 672.5 540.5 c 128,-1,16
 721 546 721 546 770 558 c 1,17,-1
 770 1082 l 1,18,-1
 1013 1082 l 1,19,-1
 1013 0 l 1,0,-1
EndSplineSet
Validated: 1
EndChar

StartChar: uni0448
Encoding: 1096 1096 500
Width: 1667
GlyphClass: 1
Flags: W
LayerCount: 2
Fore
SplineSet
369 1082 m 1,0,-1
 369 194 l 1,1,-1
 707 194 l 1,2,-1
 707 1082 l 1,3,-1
 950 1082 l 1,4,-1
 950 194 l 1,5,-1
 1289 194 l 1,6,-1
 1289 1082 l 1,7,-1
 1531 1082 l 1,8,-1
 1531 0 l 1,9,-1
 126 0 l 1,10,-1
 126 1082 l 1,11,-1
 369 1082 l 1,0,-1
EndSplineSet
Validated: 1
EndChar

StartChar: uni0449
Encoding: 1097 1097 501
Width: 1791
GlyphClass: 1
Flags: W
LayerCount: 2
Fore
SplineSet
369 1082 m 1,0,-1
 369 194 l 1,1,-1
 707 194 l 1,2,-1
 707 1082 l 1,3,-1
 950 1082 l 1,4,-1
 950 194 l 1,5,-1
 1289 194 l 1,6,-1
 1289 1082 l 1,7,-1
 1531 1082 l 1,8,-1
 1531 202 l 1,9,-1
 1731 202 l 1,10,-1
 1731 -359 l 1,11,-1
 1489 -359 l 1,12,-1
 1489 0 l 1,13,-1
 126 0 l 1,14,-1
 126 1082 l 1,15,-1
 369 1082 l 1,0,-1
EndSplineSet
Validated: 1
EndChar

StartChar: uni044A
Encoding: 1098 1098 502
Width: 1286
GlyphClass: 1
Flags: W
LayerCount: 2
Fore
SplineSet
583 705 m 1,0,-1
 820 705 l 2,1,2
 1024 705 1024 705 1139.5 608 c 128,-1,3
 1255 511 1255 511 1255 355 c 0,4,5
 1255 198 1255 198 1139 99 c 128,-1,6
 1023 0 1023 0 820 0 c 2,7,-1
 340 0 l 1,8,-1
 340 887 l 1,9,-1
 31 887 l 1,10,-1
 31 1082 l 1,11,-1
 583 1082 l 1,12,-1
 583 705 l 1,0,-1
583 510 m 1,13,-1
 583 194 l 1,14,-1
 820 194 l 2,15,16
 918 194 918 194 965 238.5 c 128,-1,17
 1012 283 1012 283 1012 351 c 0,18,19
 1012 416 1012 416 964.5 463 c 128,-1,20
 917 510 917 510 820 510 c 2,21,-1
 583 510 l 1,13,-1
EndSplineSet
Validated: 1
EndChar

StartChar: uni044B
Encoding: 1099 1099 503
Width: 1658
GlyphClass: 1
Flags: W
LayerCount: 2
Fore
SplineSet
405 705 m 1,0,-1
 642 705 l 2,1,2
 846 705 846 705 961.5 608 c 128,-1,3
 1077 511 1077 511 1077 355 c 0,4,5
 1077 198 1077 198 961 99 c 128,-1,6
 845 0 845 0 642 0 c 2,7,-1
 162 0 l 1,8,-1
 162 1082 l 1,9,-1
 405 1082 l 1,10,-1
 405 705 l 1,0,-1
1468 0 m 1,11,-1
 1225 0 l 1,12,-1
 1225 1082 l 1,13,-1
 1468 1082 l 1,14,-1
 1468 0 l 1,11,-1
405 510 m 1,15,-1
 405 194 l 1,16,-1
 642 194 l 2,17,18
 740 194 740 194 787 238.5 c 128,-1,19
 834 283 834 283 834 351 c 0,20,21
 834 416 834 416 786.5 463 c 128,-1,22
 739 510 739 510 642 510 c 2,23,-1
 405 510 l 1,15,-1
EndSplineSet
Validated: 1
EndChar

StartChar: uni044C
Encoding: 1100 1100 504
Width: 1127
GlyphClass: 1
Flags: W
LayerCount: 2
Fore
SplineSet
385 705 m 1,0,-1
 622 705 l 2,1,2
 826 705 826 705 941.5 608 c 128,-1,3
 1057 511 1057 511 1057 355 c 0,4,5
 1057 198 1057 198 941 99 c 128,-1,6
 825 0 825 0 622 0 c 2,7,-1
 142 0 l 1,8,-1
 142 1082 l 1,9,-1
 385 1082 l 1,10,-1
 385 705 l 1,0,-1
385 510 m 1,11,-1
 385 194 l 1,12,-1
 622 194 l 2,13,14
 720 194 720 194 767 238.5 c 128,-1,15
 814 283 814 283 814 351 c 0,16,17
 814 416 814 416 766.5 463 c 128,-1,18
 719 510 719 510 622 510 c 2,19,-1
 385 510 l 1,11,-1
EndSplineSet
Validated: 1
EndChar

StartChar: uni044D
Encoding: 1101 1101 505
Width: 1084
GlyphClass: 1
Flags: W
LayerCount: 2
Fore
SplineSet
513 907 m 0,0,1
 428 907 428 907 369 854.5 c 128,-1,2
 310 802 310 802 310 723 c 1,3,-1
 90 723 l 1,4,-1
 87 729 l 1,5,6
 82 880 82 880 209.5 991 c 128,-1,7
 337 1102 337 1102 513 1102 c 0,8,9
 741 1102 741 1102 870.5 946.5 c 128,-1,10
 1000 791 1000 791 1000 558 c 2,11,-1
 1000 523 l 2,12,13
 1000 290 1000 290 870.5 134.5 c 128,-1,14
 741 -21 741 -21 514 -21 c 0,15,16
 323 -21 323 -21 202.5 92 c 128,-1,17
 82 205 82 205 87 380 c 1,18,-1
 89 386 l 1,19,-1
 310 386 l 1,20,21
 310 296 310 296 367 234.5 c 128,-1,22
 424 173 424 173 514 173 c 0,23,24
 624 173 624 173 683 255 c 128,-1,25
 742 337 742 337 750 459 c 1,26,-1
 747 464 l 1,27,-1
 414 464 l 1,28,-1
 414 632 l 1,29,-1
 746 632 l 1,30,-1
 748 637 l 1,31,32
 738 754 738 754 679.5 830.5 c 128,-1,33
 621 907 621 907 513 907 c 0,0,1
EndSplineSet
Validated: 33
EndChar

StartChar: uni044E
Encoding: 1102 1102 506
Width: 1667
GlyphClass: 1
Flags: W
LayerCount: 2
Fore
SplineSet
386 648 m 1,0,-1
 595 648 l 1,1,2
 621 851 621 851 749.5 976.5 c 128,-1,3
 878 1102 878 1102 1084 1102 c 0,4,5
 1317 1102 1317 1102 1449.5 947.5 c 128,-1,6
 1582 793 1582 793 1582 551 c 2,7,-1
 1582 530 l 2,8,9
 1582 286 1582 286 1449.5 132.5 c 128,-1,10
 1317 -21 1317 -21 1086 -21 c 0,11,12
 873 -21 873 -21 743 109 c 128,-1,13
 613 239 613 239 593 452 c 1,14,-1
 386 452 l 1,15,-1
 386 0 l 1,16,-1
 143 0 l 1,17,-1
 143 1082 l 1,18,-1
 386 1082 l 1,19,-1
 386 648 l 1,0,-1
832 530 m 2,20,21
 832 371 832 371 894 272 c 128,-1,22
 956 173 956 173 1086 173 c 0,23,24
 1213 173 1213 173 1276.5 272.5 c 128,-1,25
 1340 372 1340 372 1340 530 c 2,26,-1
 1340 551 l 2,27,28
 1340 706 1340 706 1276.5 806.5 c 128,-1,29
 1213 907 1213 907 1084 907 c 0,30,31
 957 907 957 907 894.5 806.5 c 128,-1,32
 832 706 832 706 832 551 c 2,33,-1
 832 530 l 2,20,21
EndSplineSet
Validated: 1
EndChar

StartChar: uni044F
Encoding: 1103 1103 507
Width: 1160
GlyphClass: 1
Flags: W
LayerCount: 2
Fore
SplineSet
1017 1082 m 1,0,-1
 1017 0 l 1,1,-1
 775 0 l 1,2,-1
 775 397 l 1,3,-1
 548 397 l 1,4,-1
 317 0 l 1,5,-1
 65 0 l 1,6,-1
 320 437 l 1,7,8
 220 478 220 478 166.5 556.5 c 128,-1,9
 113 635 113 635 113 736 c 0,10,11
 113 888 113 888 230.5 985 c 128,-1,12
 348 1082 348 1082 551 1082 c 2,13,-1
 1017 1082 l 1,0,-1
356 730 m 0,14,15
 356 667 356 667 402.5 622 c 128,-1,16
 449 577 449 577 538 577 c 2,17,-1
 775 577 l 1,18,-1
 775 889 l 1,19,-1
 551 889 l 2,20,21
 455 889 455 889 405.5 841.5 c 128,-1,22
 356 794 356 794 356 730 c 0,14,15
EndSplineSet
Validated: 1
EndChar

StartChar: uni0452
Encoding: 1106 1106 510
Width: 1161
GlyphClass: 1
Flags: W
LayerCount: 2
Fore
SplineSet
567 1215 m 1,0,-1
 368 1215 l 1,1,-1
 368 942 l 1,2,3
 422 1018 422 1018 499.5 1060 c 128,-1,4
 577 1102 577 1102 671 1102 c 0,5,6
 843 1102 843 1102 939.5 993.5 c 128,-1,7
 1036 885 1036 885 1036 659 c 2,8,-1
 1036 -63 l 2,9,10
 1036 -242 1036 -242 943 -339.5 c 128,-1,11
 850 -437 850 -437 685 -437 c 0,12,13
 649 -437 649 -437 619 -433 c 128,-1,14
 589 -429 589 -429 557 -420 c 1,15,-1
 572 -229 l 1,16,17
 588 -234 588 -234 618 -238 c 128,-1,18
 648 -242 648 -242 670 -242 c 0,19,20
 728 -242 728 -242 760.5 -195 c 128,-1,21
 793 -148 793 -148 793 -63 c 2,22,-1
 793 661 l 2,23,24
 793 788 793 788 743.5 845.5 c 128,-1,25
 694 903 694 903 596 903 c 0,26,27
 518 903 518 903 461 875.5 c 128,-1,28
 404 848 404 848 368 799 c 1,29,-1
 368 0 l 1,30,-1
 125 0 l 1,31,-1
 125 1215 l 1,32,-1
 -23 1215 l 1,33,-1
 -23 1372 l 1,34,-1
 125 1372 l 1,35,-1
 125 1560 l 1,36,-1
 368 1560 l 1,37,-1
 368 1372 l 1,38,-1
 567 1372 l 1,39,-1
 567 1215 l 1,0,-1
EndSplineSet
Validated: 1
EndChar

StartChar: uni0454
Encoding: 1108 1108 512
Width: 1085
GlyphClass: 1
Flags: W
LayerCount: 2
Fore
SplineSet
569 173 m 0,0,1
 652 173 652 173 709.5 225 c 128,-1,2
 767 277 767 277 767 357 c 1,3,-1
 987 357 l 1,4,-1
 989 351 l 1,5,6
 993 199 993 199 868.5 89 c 128,-1,7
 744 -21 744 -21 569 -21 c 0,8,9
 335 -21 335 -21 208 133.5 c 128,-1,10
 81 288 81 288 81 523 c 2,11,-1
 81 558 l 2,12,13
 81 792 81 792 208 947 c 128,-1,14
 335 1102 335 1102 568 1102 c 0,15,16
 757 1102 757 1102 875 988.5 c 128,-1,17
 993 875 993 875 989 700 c 1,18,-1
 987 694 l 1,19,-1
 767 694 l 1,20,21
 767 783 767 783 712 845 c 128,-1,22
 657 907 657 907 568 907 c 0,23,24
 452 907 452 907 394.5 826 c 128,-1,25
 337 745 337 745 331 624 c 1,26,-1
 333 619 l 1,27,-1
 675 619 l 1,28,-1
 675 451 l 1,29,-1
 334 451 l 1,30,-1
 332 446 l 1,31,32
 340 326 340 326 397 249.5 c 128,-1,33
 454 173 454 173 569 173 c 0,0,1
EndSplineSet
Validated: 33
EndChar

StartChar: uni0459
Encoding: 1113 1113 517
Width: 1777
GlyphClass: 1
Flags: W
LayerCount: 2
Fore
SplineSet
1035 1082 m 1,0,-1
 1035 705 l 1,1,-1
 1272 705 l 2,2,3
 1476 705 1476 705 1591.5 608 c 128,-1,4
 1707 511 1707 511 1707 355 c 0,5,6
 1707 198 1707 198 1591 99 c 128,-1,7
 1475 0 1475 0 1272 0 c 2,8,-1
 792 0 l 1,9,-1
 792 886 l 1,10,-1
 517 886 l 1,11,-1
 517 621 l 2,12,13
 517 304 517 304 419.5 152 c 128,-1,14
 322 0 322 0 100 0 c 2,15,-1
 48 0 l 1,16,-1
 49 197 l 1,17,-1
 85 198 l 2,18,19
 184 198 184 198 229 300 c 128,-1,20
 274 402 274 402 274 621 c 2,21,-1
 274 1082 l 1,22,-1
 1035 1082 l 1,0,-1
1035 511 m 1,23,-1
 1035 192 l 1,24,-1
 1272 192 l 2,25,26
 1370 192 1370 192 1417 240 c 128,-1,27
 1464 288 1464 288 1464 357 c 0,28,29
 1464 422 1464 422 1417 466.5 c 128,-1,30
 1370 511 1370 511 1272 511 c 2,31,-1
 1035 511 l 1,23,-1
EndSplineSet
Validated: 1
EndChar

StartChar: uni045A
Encoding: 1114 1114 518
Width: 1775
GlyphClass: 1
Flags: W
LayerCount: 2
Fore
SplineSet
369 671 m 1,0,-1
 790 671 l 1,1,-1
 790 1082 l 1,2,-1
 1033 1082 l 1,3,-1
 1033 705 l 1,4,-1
 1270 705 l 2,5,6
 1474 705 1474 705 1589.5 608 c 128,-1,7
 1705 511 1705 511 1705 355 c 0,8,9
 1705 198 1705 198 1589 99 c 128,-1,10
 1473 0 1473 0 1270 0 c 2,11,-1
 790 0 l 1,12,-1
 790 477 l 1,13,-1
 369 477 l 1,14,-1
 369 0 l 1,15,-1
 126 0 l 1,16,-1
 126 1082 l 1,17,-1
 369 1082 l 1,18,-1
 369 671 l 1,0,-1
1033 511 m 1,19,-1
 1033 192 l 1,20,-1
 1270 192 l 2,21,22
 1367 192 1367 192 1414.5 240 c 128,-1,23
 1462 288 1462 288 1462 357 c 0,24,25
 1462 422 1462 422 1415 466.5 c 128,-1,26
 1368 511 1368 511 1270 511 c 2,27,-1
 1033 511 l 1,19,-1
EndSplineSet
Validated: 1
EndChar

StartChar: uni045B
Encoding: 1115 1115 519
Width: 1161
GlyphClass: 1
Flags: W
LayerCount: 2
Fore
SplineSet
679 1210 m 1,0,-1
 368 1210 l 1,1,-1
 368 942 l 1,2,3
 422 1018 422 1018 499.5 1060 c 128,-1,4
 577 1102 577 1102 671 1102 c 0,5,6
 843 1102 843 1102 939.5 993.5 c 128,-1,7
 1036 885 1036 885 1036 659 c 2,8,-1
 1036 0 l 1,9,-1
 793 0 l 1,10,-1
 793 661 l 2,11,12
 793 788 793 788 743.5 845.5 c 128,-1,13
 694 903 694 903 596 903 c 0,14,15
 518 903 518 903 461 875.5 c 128,-1,16
 404 848 404 848 368 799 c 1,17,-1
 368 0 l 1,18,-1
 125 0 l 1,19,-1
 125 1210 l 1,20,-1
 24 1210 l 1,21,-1
 24 1380 l 1,22,-1
 125 1380 l 1,23,-1
 125 1560 l 1,24,-1
 368 1560 l 1,25,-1
 368 1380 l 1,26,-1
 679 1380 l 1,27,-1
 679 1210 l 1,0,-1
EndSplineSet
Validated: 1
EndChar

StartChar: uni045F
Encoding: 1119 1119 523
Width: 1160
GlyphClass: 1
Flags: W
LayerCount: 2
Fore
SplineSet
369 1082 m 1,0,-1
 369 194 l 1,1,-1
 791 194 l 1,2,-1
 791 1082 l 1,3,-1
 1034 1082 l 1,4,-1
 1034 0 l 1,5,-1
 703 0 l 1,6,-1
 703 -358 l 1,7,-1
 460 -358 l 1,8,-1
 460 0 l 1,9,-1
 126 0 l 1,10,-1
 126 1082 l 1,11,-1
 369 1082 l 1,0,-1
EndSplineSet
Validated: 1
EndChar

StartChar: uni0460
Encoding: 1120 1120 524
Width: 1948
GlyphClass: 1
Flags: W
LayerCount: 2
Fore
SplineSet
1099 1435 m 1,0,1
 1154 1455 1154 1455 1217 1466 c 128,-1,2
 1280 1477 1280 1477 1349 1477 c 0,3,4
 1569 1477 1569 1477 1710 1310 c 128,-1,5
 1851 1143 1851 1143 1851 880 c 2,6,-1
 1851 576 l 2,7,8
 1851 312 1851 312 1705 145.5 c 128,-1,9
 1559 -21 1559 -21 1333 -21 c 0,10,11
 1220 -21 1220 -21 1132.5 4.5 c 128,-1,12
 1045 30 1045 30 980 74 c 1,13,14
 915 30 915 30 827.5 4.5 c 128,-1,15
 740 -21 740 -21 628 -21 c 0,16,17
 401 -21 401 -21 255.5 145.5 c 128,-1,18
 110 312 110 312 110 576 c 2,19,-1
 110 880 l 2,20,21
 110 1143 110 1143 250.5 1310 c 128,-1,22
 391 1477 391 1477 612 1477 c 0,23,24
 680 1477 680 1477 743.5 1466 c 128,-1,25
 807 1455 807 1455 862 1435 c 1,26,-1
 802 1246 l 1,27,28
 763 1263 763 1263 716 1272.5 c 128,-1,29
 669 1282 669 1282 616 1282 c 0,30,31
 498 1282 498 1282 425.5 1169 c 128,-1,32
 353 1056 353 1056 353 882 c 2,33,-1
 353 576 l 2,34,35
 353 400 353 400 429.5 286.5 c 128,-1,36
 506 173 506 173 628 173 c 0,37,38
 723 173 723 173 777 199.5 c 128,-1,39
 831 226 831 226 859 264 c 1,40,-1
 859 561 l 1,41,-1
 667 561 l 1,42,-1
 667 743 l 1,43,-1
 1295 743 l 1,44,-1
 1295 561 l 1,45,-1
 1102 561 l 1,46,-1
 1102 264 l 1,47,48
 1129 226 1129 226 1183 199.5 c 128,-1,49
 1237 173 1237 173 1333 173 c 0,50,51
 1453 173 1453 173 1530.5 286.5 c 128,-1,52
 1608 400 1608 400 1608 576 c 2,53,-1
 1608 882 l 2,54,55
 1608 1057 1608 1057 1535 1169.5 c 128,-1,56
 1462 1282 1462 1282 1345 1282 c 0,57,58
 1291 1282 1291 1282 1244.5 1272.5 c 128,-1,59
 1198 1263 1198 1263 1159 1246 c 1,60,-1
 1099 1435 l 1,0,1
EndSplineSet
Validated: 1
EndChar

StartChar: uni0461
Encoding: 1121 1121 525
Width: 1434
GlyphClass: 1
Flags: W
LayerCount: 2
Fore
SplineSet
504 366 m 1,0,-1
 526 255 l 1,1,-1
 532 255 l 1,2,-1
 561 366 l 1,3,-1
 668 712 l 1,4,-1
 555 1082 l 1,5,-1
 799 1082 l 1,6,-1
 970 366 l 1,7,-1
 990 266 l 1,8,-1
 996 266 l 1,9,-1
 1003 293 l 1,10,11
 1084 440 1084 440 1115.5 650 c 128,-1,12
 1147 860 1147 860 1139 1082 c 1,13,-1
 1390 1082 l 1,14,15
 1380 782 1380 782 1304 514.5 c 128,-1,16
 1228 247 1228 247 1092 0 c 1,17,-1
 885 0 l 1,18,-1
 765 393 l 1,19,-1
 759 393 l 1,20,-1
 622 0 l 1,21,-1
 418 0 l 1,22,-1
 32 1082 l 1,23,-1
 283 1082 l 1,24,-1
 504 366 l 1,0,-1
EndSplineSet
Validated: 33
EndChar

StartChar: uni0462
Encoding: 1122 1122 526
Width: 1287
GlyphClass: 1
Flags: W
LayerCount: 2
Fore
SplineSet
629 1095 m 1,0,-1
 391 1095 l 1,1,-1
 391 916 l 1,2,-1
 699 916 l 2,3,4
 941 916 941 916 1079 790.5 c 128,-1,5
 1217 665 1217 665 1217 461 c 0,6,7
 1217 256 1217 256 1078.5 128 c 128,-1,8
 940 0 940 0 699 0 c 2,9,-1
 148 0 l 1,10,-1
 148 1095 l 1,11,-1
 -26 1095 l 1,12,-1
 -26 1265 l 1,13,-1
 148 1265 l 1,14,-1
 148 1456 l 1,15,-1
 391 1456 l 1,16,-1
 391 1265 l 1,17,-1
 629 1265 l 1,18,-1
 629 1095 l 1,0,-1
391 721 m 1,19,-1
 391 194 l 1,20,-1
 699 194 l 2,21,22
 834 194 834 194 904 272 c 128,-1,23
 974 350 974 350 974 463 c 0,24,25
 974 572 974 572 904 646.5 c 128,-1,26
 834 721 834 721 699 721 c 2,27,-1
 391 721 l 1,19,-1
EndSplineSet
Validated: 1
EndChar

StartChar: uni0463
Encoding: 1123 1123 527
Width: 1127
GlyphClass: 1
Flags: W
LayerCount: 2
Fore
SplineSet
675 1092 m 1,0,-1
 385 1092 l 1,1,-1
 385 705 l 1,2,-1
 622 705 l 2,3,4
 826 705 826 705 941.5 608 c 128,-1,5
 1057 511 1057 511 1057 355 c 0,6,7
 1057 198 1057 198 941 99 c 128,-1,8
 825 0 825 0 622 0 c 2,9,-1
 142 0 l 1,10,-1
 142 1092 l 1,11,-1
 -25 1092 l 1,12,-1
 -25 1262 l 1,13,-1
 142 1262 l 1,14,-1
 142 1562 l 1,15,-1
 385 1562 l 1,16,-1
 385 1262 l 1,17,-1
 675 1262 l 1,18,-1
 675 1092 l 1,0,-1
385 510 m 1,19,-1
 385 194 l 1,20,-1
 622 194 l 2,21,22
 720 194 720 194 767 238.5 c 128,-1,23
 814 283 814 283 814 351 c 0,24,25
 814 416 814 416 766.5 463 c 128,-1,26
 719 510 719 510 622 510 c 2,27,-1
 385 510 l 1,19,-1
EndSplineSet
Validated: 1
EndChar

StartChar: uni0464
Encoding: 1124 1124 528
Width: 1833
GlyphClass: 1
Flags: W
LayerCount: 2
Fore
SplineSet
1247 622 m 1,0,-1
 818 622 l 1,1,-1
 818 590 l 2,2,3
 818 409 818 409 906 291.5 c 128,-1,4
 994 174 994 174 1146 174 c 0,5,6
 1295 174 1295 174 1372.5 252 c 128,-1,7
 1450 330 1450 330 1450 477 c 1,8,-1
 1684 477 l 1,9,-1
 1686 471 l 1,10,11
 1690 251 1690 251 1543 115.5 c 128,-1,12
 1396 -20 1396 -20 1146 -20 c 0,13,14
 892 -20 892 -20 734 151.5 c 128,-1,15
 576 323 576 323 576 590 c 2,16,-1
 576 622 l 1,17,-1
 417 622 l 1,18,-1
 417 0 l 1,19,-1
 174 0 l 1,20,-1
 174 1456 l 1,21,-1
 417 1456 l 1,22,-1
 417 818 l 1,23,-1
 576 818 l 1,24,-1
 576 867 l 2,25,26
 576 1133 576 1133 732 1305.5 c 128,-1,27
 888 1478 888 1478 1139 1478 c 0,28,29
 1396 1478 1396 1478 1543.5 1347 c 128,-1,30
 1691 1216 1691 1216 1687 988 c 1,31,-1
 1685 982 l 1,32,-1
 1450 982 l 1,33,34
 1450 1128 1450 1128 1371 1205.5 c 128,-1,35
 1292 1283 1292 1283 1139 1283 c 0,36,37
 991 1283 991 1283 904.5 1165.5 c 128,-1,38
 818 1048 818 1048 818 869 c 2,39,-1
 818 818 l 1,40,-1
 1247 818 l 1,41,-1
 1247 622 l 1,0,-1
EndSplineSet
Validated: 33
EndChar

StartChar: uni0465
Encoding: 1125 1125 529
Width: 1537
GlyphClass: 1
Flags: W
LayerCount: 2
Fore
SplineSet
1072 460 m 1,0,-1
 759 460 l 1,1,-1
 757 455 l 1,2,3
 763 331 763 331 820.5 252 c 128,-1,4
 878 173 878 173 995 173 c 0,5,6
 1078 173 1078 173 1135.5 225 c 128,-1,7
 1193 277 1193 277 1193 357 c 1,8,-1
 1413 357 l 1,9,-1
 1415 351 l 1,10,11
 1419 199 1419 199 1294.5 89 c 128,-1,12
 1170 -21 1170 -21 995 -21 c 0,13,14
 777 -21 777 -21 651.5 113.5 c 128,-1,15
 526 248 526 248 509 460 c 1,16,-1
 384 460 l 1,17,-1
 384 0 l 1,18,-1
 141 0 l 1,19,-1
 141 1082 l 1,20,-1
 384 1082 l 1,21,-1
 384 630 l 1,22,-1
 510 630 l 1,23,24
 529 838 529 838 654.5 970 c 128,-1,25
 780 1102 780 1102 994 1102 c 0,26,27
 1183 1102 1183 1102 1301 988.5 c 128,-1,28
 1419 875 1419 875 1415 700 c 1,29,-1
 1413 694 l 1,30,-1
 1193 694 l 1,31,32
 1193 783 1193 783 1138 845 c 128,-1,33
 1083 907 1083 907 994 907 c 0,34,35
 881 907 881 907 823.5 829.5 c 128,-1,36
 766 752 766 752 758 635 c 1,37,-1
 760 630 l 1,38,-1
 1072 630 l 1,39,-1
 1072 460 l 1,0,-1
EndSplineSet
Validated: 33
EndChar

StartChar: uni0466
Encoding: 1126 1126 530
Width: 1287
GlyphClass: 1
Flags: W
LayerCount: 2
Fore
SplineSet
906 410 m 1,0,-1
 768 410 l 1,1,-1
 768 0 l 1,2,-1
 547 0 l 1,3,-1
 547 410 l 1,4,-1
 422 410 l 1,5,-1
 283 0 l 1,6,-1
 32 0 l 1,7,-1
 551 1456 l 1,8,-1
 782 1456 l 1,9,-1
 1294 0 l 1,10,-1
 1043 0 l 1,11,-1
 906 410 l 1,0,-1
485 597 m 1,12,-1
 844 597 l 1,13,-1
 669 1121 l 1,14,-1
 663 1121 l 1,15,-1
 485 597 l 1,12,-1
EndSplineSet
Validated: 1
EndChar

StartChar: uni0467
Encoding: 1127 1127 531
Width: 1120
GlyphClass: 1
Flags: W
LayerCount: 2
Fore
SplineSet
740 279 m 1,0,-1
 647 279 l 1,1,-1
 647 0 l 1,2,-1
 452 0 l 1,3,-1
 452 279 l 1,4,-1
 361 279 l 1,5,-1
 257 0 l 1,6,-1
 10 0 l 1,7,-1
 435 1082 l 1,8,-1
 666 1082 l 1,9,-1
 1093 0 l 1,10,-1
 846 0 l 1,11,-1
 740 279 l 1,0,-1
426 452 m 1,12,-1
 674 452 l 1,13,-1
 574 714 l 1,14,-1
 552 802 l 1,15,-1
 546 802 l 1,16,-1
 524 714 l 1,17,-1
 426 452 l 1,12,-1
EndSplineSet
Validated: 1
EndChar

StartChar: uni0468
Encoding: 1128 1128 532
Width: 1858
GlyphClass: 1
Flags: W
LayerCount: 2
Fore
SplineSet
435 598 m 1,0,-1
 774 598 l 1,1,-1
 1080 1456 l 1,2,-1
 1311 1456 l 1,3,-1
 1823 0 l 1,4,-1
 1572 0 l 1,5,-1
 1435 410 l 1,6,-1
 1297 410 l 1,7,-1
 1297 0 l 1,8,-1
 1076 0 l 1,9,-1
 1076 410 l 1,10,-1
 950 410 l 1,11,-1
 812 0 l 1,12,-1
 561 0 l 1,13,-1
 707 410 l 1,14,-1
 435 410 l 1,15,-1
 435 0 l 1,16,-1
 192 0 l 1,17,-1
 192 1456 l 1,18,-1
 435 1456 l 1,19,-1
 435 598 l 1,0,-1
1014 597 m 1,20,-1
 1373 597 l 1,21,-1
 1198 1121 l 1,22,-1
 1192 1121 l 1,23,-1
 1014 597 l 1,20,-1
EndSplineSet
Validated: 1
EndChar

StartChar: uni0469
Encoding: 1129 1129 533
Width: 1590
GlyphClass: 1
Flags: W
LayerCount: 2
Fore
SplineSet
419 452 m 1,0,-1
 634 452 l 1,1,-1
 882 1082 l 1,2,-1
 1113 1082 l 1,3,-1
 1540 0 l 1,4,-1
 1293 0 l 1,5,-1
 1187 279 l 1,6,-1
 1094 279 l 1,7,-1
 1094 0 l 1,8,-1
 899 0 l 1,9,-1
 899 279 l 1,10,-1
 808 279 l 1,11,-1
 704 0 l 1,12,-1
 457 0 l 1,13,-1
 566 279 l 1,14,-1
 419 279 l 1,15,-1
 419 0 l 1,16,-1
 176 0 l 1,17,-1
 176 1082 l 1,18,-1
 419 1082 l 1,19,-1
 419 452 l 1,0,-1
873 452 m 1,20,-1
 1121 452 l 1,21,-1
 1021 714 l 1,22,-1
 999 802 l 1,23,-1
 993 802 l 1,24,-1
 971 714 l 1,25,-1
 873 452 l 1,20,-1
EndSplineSet
Validated: 1
EndChar

StartChar: uni046A
Encoding: 1130 1130 534
Width: 1773
GlyphClass: 1
Flags: W
LayerCount: 2
Fore
SplineSet
1140 811 m 1,0,1
 1385 808 1385 808 1513 700.5 c 128,-1,2
 1641 593 1641 593 1641 356 c 2,3,-1
 1641 0 l 1,4,-1
 1398 0 l 1,5,-1
 1398 356 l 2,6,7
 1398 502 1398 502 1334 558 c 128,-1,8
 1270 614 1270 614 1129 614 c 2,9,-1
 1024 614 l 1,10,-1
 1015 597 l 1,11,-1
 1015 0 l 1,12,-1
 773 0 l 1,13,-1
 773 611 l 1,14,-1
 771 614 l 1,15,-1
 643 614 l 2,16,17
 501 614 501 614 438 558 c 128,-1,18
 375 502 375 502 375 356 c 2,19,-1
 375 0 l 1,20,-1
 132 0 l 1,21,-1
 132 356 l 2,22,23
 132 596 132 596 262 703.5 c 128,-1,24
 392 811 392 811 643 811 c 2,25,-1
 655 811 l 1,26,-1
 276 1456 l 1,27,-1
 1520 1456 l 1,28,-1
 1140 811 l 1,0,1
898 822 m 1,29,-1
 1140 1259 l 1,30,-1
 656 1259 l 1,31,-1
 898 822 l 1,29,-1
EndSplineSet
Validated: 1
EndChar

StartChar: uni046B
Encoding: 1131 1131 535
Width: 1510
GlyphClass: 1
Flags: W
LayerCount: 2
Fore
SplineSet
130 0 m 1,0,-1
 130 169 l 2,1,2
 130 386 130 386 232.5 490 c 128,-1,3
 335 594 335 594 533 607 c 1,4,-1
 256 1082 l 1,5,-1
 1268 1082 l 1,6,-1
 990 606 l 1,7,8
 1180 590 1180 590 1280 486 c 128,-1,9
 1380 382 1380 382 1380 169 c 2,10,-1
 1380 0 l 1,11,-1
 1137 0 l 1,12,-1
 1137 169 l 2,13,14
 1137 310 1137 310 1084.5 365 c 128,-1,15
 1032 420 1032 420 917 420 c 2,16,-1
 881 420 l 1,17,-1
 880 417 l 1,18,-1
 880 0 l 1,19,-1
 638 0 l 1,20,-1
 638 420 l 1,21,-1
 593 420 l 2,22,23
 476 420 476 420 424.5 365.5 c 128,-1,24
 373 311 373 311 373 169 c 2,25,-1
 373 0 l 1,26,-1
 130 0 l 1,0,-1
762 617 m 1,27,-1
 911 907 l 1,28,-1
 613 907 l 1,29,-1
 762 617 l 1,27,-1
EndSplineSet
Validated: 1
EndChar

StartChar: uni046C
Encoding: 1132 1132 536
Width: 2354
GlyphClass: 1
Flags: W
LayerCount: 2
Fore
SplineSet
1290 615 m 1,0,-1
 349 615 l 1,1,-1
 349 811 l 1,2,-1
 1290 811 l 1,3,-1
 1290 615 l 1,0,-1
416 0 m 1,4,-1
 173 0 l 1,5,-1
 173 1456 l 1,6,-1
 416 1456 l 1,7,-1
 416 0 l 1,4,-1
1707 811 m 1,8,9
 1952 808 1952 808 2080 700.5 c 128,-1,10
 2208 593 2208 593 2208 356 c 2,11,-1
 2208 0 l 1,12,-1
 1965 0 l 1,13,-1
 1965 356 l 2,14,15
 1965 502 1965 502 1901 558 c 128,-1,16
 1837 614 1837 614 1696 614 c 2,17,-1
 1591 614 l 1,18,-1
 1582 597 l 1,19,-1
 1582 0 l 1,20,-1
 1340 0 l 1,21,-1
 1340 611 l 1,22,-1
 1338 614 l 1,23,-1
 1210 614 l 2,24,25
 1068 614 1068 614 1005 558 c 128,-1,26
 942 502 942 502 942 356 c 2,27,-1
 942 0 l 1,28,-1
 699 0 l 1,29,-1
 699 356 l 2,30,31
 699 596 699 596 829 703.5 c 128,-1,32
 959 811 959 811 1210 811 c 2,33,-1
 1222 811 l 1,34,-1
 843 1456 l 1,35,-1
 2087 1456 l 1,36,-1
 1707 811 l 1,8,9
1465 822 m 1,37,-1
 1707 1259 l 1,38,-1
 1223 1259 l 1,39,-1
 1465 822 l 1,37,-1
EndSplineSet
Validated: 5
EndChar

StartChar: uni046D
Encoding: 1133 1133 537
Width: 2041
GlyphClass: 1
Flags: W
LayerCount: 2
Fore
SplineSet
1255 424 m 1,0,-1
 247 424 l 1,1,-1
 247 610 l 1,2,-1
 1255 610 l 1,3,-1
 1255 424 l 1,0,-1
386 0 m 1,4,-1
 143 0 l 1,5,-1
 143 1082 l 1,6,-1
 386 1082 l 1,7,-1
 386 0 l 1,4,-1
636 0 m 1,8,-1
 636 169 l 2,9,10
 636 386 636 386 738.5 490 c 128,-1,11
 841 594 841 594 1039 607 c 1,12,-1
 762 1082 l 1,13,-1
 1774 1082 l 1,14,-1
 1496 606 l 1,15,16
 1686 590 1686 590 1786 486 c 128,-1,17
 1886 382 1886 382 1886 169 c 2,18,-1
 1886 0 l 1,19,-1
 1643 0 l 1,20,-1
 1643 169 l 2,21,22
 1643 310 1643 310 1590.5 365 c 128,-1,23
 1538 420 1538 420 1423 420 c 2,24,-1
 1387 420 l 1,25,-1
 1386 417 l 1,26,-1
 1386 0 l 1,27,-1
 1144 0 l 1,28,-1
 1144 420 l 1,29,-1
 1099 420 l 2,30,31
 982 420 982 420 930.5 365.5 c 128,-1,32
 879 311 879 311 879 169 c 2,33,-1
 879 0 l 1,34,-1
 636 0 l 1,8,-1
1268 617 m 1,35,-1
 1417 907 l 1,36,-1
 1119 907 l 1,37,-1
 1268 617 l 1,35,-1
EndSplineSet
Validated: 5
EndChar

StartChar: uni046E
Encoding: 1134 1134 538
Width: 1057
GlyphClass: 1
Flags: W
LayerCount: 2
Fore
SplineSet
400 846 m 2,0,1
 534 846 534 846 598 902.5 c 128,-1,2
 662 959 662 959 662 1057 c 0,3,4
 662 1147 662 1147 597 1202.5 c 128,-1,5
 532 1258 532 1258 407 1258 c 2,6,-1
 124 1258 l 1,7,-1
 124 1456 l 1,8,-1
 407 1456 l 2,9,10
 632 1456 632 1456 768.5 1354.5 c 128,-1,11
 905 1253 905 1253 905 1068 c 0,12,13
 905 957 905 957 843 875 c 128,-1,14
 781 793 781 793 669 749 c 1,15,16
 799 707 799 707 868.5 620 c 128,-1,17
 938 533 938 533 938 408 c 0,18,19
 938 206 938 206 803.5 92.5 c 128,-1,20
 669 -21 669 -21 449 -21 c 2,21,-1
 396 -21 l 2,22,23
 328 -21 328 -21 297 -48.5 c 128,-1,24
 266 -76 266 -76 266 -124 c 0,25,26
 266 -188 266 -188 310 -227 c 128,-1,27
 354 -266 354 -266 418 -295 c 1,28,-1
 337 -448 l 1,29,30
 205 -407 205 -407 123.5 -316.5 c 128,-1,31
 42 -226 42 -226 41 -99 c 0,32,33
 41 39 41 39 133 108.5 c 128,-1,34
 225 178 225 178 390 178 c 2,35,-1
 441 178 l 2,36,37
 559 178 559 178 627 241 c 128,-1,38
 695 304 695 304 695 404 c 0,39,40
 695 524 695 524 618.5 585.5 c 128,-1,41
 542 647 542 647 396 647 c 2,42,-1
 253 647 l 1,43,-1
 253 846 l 1,44,-1
 400 846 l 2,0,1
548 1776 m 1,45,-1
 680 1912 l 1,46,-1
 895 1912 l 1,47,-1
 895 1895 l 1,48,-1
 627 1643 l 1,49,-1
 470 1643 l 1,50,-1
 203 1893 l 1,51,-1
 203 1912 l 1,52,-1
 416 1912 l 1,53,-1
 548 1776 l 1,45,-1
EndSplineSet
Validated: 1
EndChar

StartChar: uni046F
Encoding: 1135 1135 539
Width: 1008
GlyphClass: 1
Flags: W
LayerCount: 2
Fore
SplineSet
407 623 m 2,0,1
 521 623 521 623 575 661 c 128,-1,2
 629 699 629 699 629 766 c 0,3,4
 629 824 629 824 572.5 860.5 c 128,-1,5
 516 897 516 897 407 897 c 2,6,-1
 124 897 l 1,7,-1
 124 1082 l 1,8,-1
 407 1082 l 2,9,10
 617 1082 617 1082 744 1002 c 128,-1,11
 871 922 871 922 871 777 c 0,12,13
 871 698 871 698 822.5 637.5 c 128,-1,14
 774 577 774 577 686 542 c 1,15,16
 791 509 791 509 847.5 448.5 c 128,-1,17
 904 388 904 388 904 304 c 0,18,19
 904 152 904 152 780.5 65.5 c 128,-1,20
 657 -21 657 -21 456 -21 c 2,21,-1
 407 -21 l 2,22,23
 336 -21 336 -21 303 -48.5 c 128,-1,24
 270 -76 270 -76 270 -124 c 0,25,26
 270 -188 270 -188 312 -227 c 128,-1,27
 354 -266 354 -266 415 -295 c 1,28,-1
 333 -441 l 1,29,30
 213 -395 213 -395 132.5 -306.5 c 128,-1,31
 52 -218 52 -218 51 -99 c 0,32,33
 51 32 51 32 139.5 97.5 c 128,-1,34
 228 163 228 163 386 163 c 2,35,-1
 434 163 l 2,36,37
 539 163 539 163 600 203 c 128,-1,38
 661 243 661 243 661 307 c 0,39,40
 661 380 661 380 595.5 417 c 128,-1,41
 530 454 530 454 404 454 c 2,42,-1
 253 454 l 1,43,-1
 253 623 l 1,44,-1
 407 623 l 2,0,1
476 1432 m 1,45,-1
 608 1568 l 1,46,-1
 823 1568 l 1,47,-1
 823 1551 l 1,48,-1
 555 1299 l 1,49,-1
 398 1299 l 1,50,-1
 131 1549 l 1,51,-1
 131 1568 l 1,52,-1
 344 1568 l 1,53,-1
 476 1432 l 1,45,-1
EndSplineSet
Validated: 1
EndChar

StartChar: uni0472
Encoding: 1138 1138 542
Width: 1403
GlyphClass: 1
Flags: W
LayerCount: 2
Fore
SplineSet
1297 597 m 2,0,1
 1297 330 1297 330 1129.5 154.5 c 128,-1,2
 962 -21 962 -21 694 -21 c 0,3,4
 433 -21 433 -21 269 154.5 c 128,-1,5
 105 330 105 330 105 597 c 2,6,-1
 105 859 l 2,7,8
 105 1125 105 1125 268.5 1301 c 128,-1,9
 432 1477 432 1477 694 1477 c 0,10,11
 961 1477 961 1477 1129 1301 c 128,-1,12
 1297 1125 1297 1125 1297 859 c 2,13,-1
 1297 597 l 2,0,1
899 739 m 0,14,15
 944 739 944 739 986.5 758.5 c 128,-1,16
 1029 778 1029 778 1054 810 c 1,17,-1
 1054 861 l 2,18,19
 1054 1043 1054 1043 957 1160 c 128,-1,20
 860 1277 860 1277 694 1277 c 0,21,22
 533 1277 533 1277 440.5 1160 c 128,-1,23
 348 1043 348 1043 348 861 c 2,24,-1
 348 793 l 1,25,26
 381 825 381 825 424.5 843 c 128,-1,27
 468 861 468 861 519 861 c 0,28,29
 596 861 596 861 711.5 800 c 128,-1,30
 827 739 827 739 899 739 c 0,14,15
1054 617 m 1,31,32
 1020 588 1020 588 976.5 572.5 c 128,-1,33
 933 557 933 557 884 557 c 0,34,35
 787 557 787 557 681.5 618 c 128,-1,36
 576 679 576 679 505 679 c 0,37,38
 455 679 455 679 411.5 653.5 c 128,-1,39
 368 628 368 628 348 591 c 1,40,41
 349 409 349 409 442 293.5 c 128,-1,42
 535 178 535 178 694 178 c 0,43,44
 861 178 861 178 957.5 295 c 128,-1,45
 1054 412 1054 412 1054 597 c 2,46,-1
 1054 617 l 1,31,32
EndSplineSet
Validated: 1
EndChar

